{
.appVersion = "3032";
DisplayStrings = (
"A/space fine/space evening\012A/space Friend\012\"YH\"/space es\"\012\"YYes\"\012\"Tungsten\"\012I/space AND/space SHE\012?!!?!\012!?\0129/space 9\012\"Vacation\012\012Xeno",
"/A.sc",
"/dieresiscomb/dotaccentcomb/gravecomb/acutecomb/hungarumlautcomb/circumflexcomb/caroncomb/brevecomb/ringcomb/tildecomb/macroncomb/hookabovecomb/commaturnedabovecomb/horncomb/dotbelowcomb/commaaccentcomb/cedillacomb/ogonekcomb/strokeshortcomb/strokelongcomb/slashshortcomb/slashlongcomb ´/breve/caron ¸/circumflex ¨/dotaccent `/hungarumlaut ¯/ogonek/ring/tilde/acutecomb.loclPLK/acute.loclPLK/brevecomb_acutecomb/brevecomb_gravecomb/brevecomb_hookabovecomb/brevecomb_tildecomb/circumflexcomb_acutecomb/circumflexcomb_gravecomb/circumflexcomb_hookabovecomb/circumflexcomb_tildecomb",

glyphs = (
{
glyphname = A;
lastChange = "2019-07-02 15:20:57 +0000";
layers = (
{
anchors = (
{
name = bottom;
position = "{567, 0}";
},
{
name = ogonek;
position = "{1102, 0}";
},
{
name = top;
position = "{562, 1152}";
}
);
background = {
paths = (
{
closed = 1;
nodes = (
"1112 0 LINE",
"732 1152 LINE",
"470 1152 LINE",
"94 0 LINE",
"220 0 LINE",
"554 1048 LINE",
"610 1048 LINE",
"950 0 LINE"
);
},
{
closed = 1;
nodes = (
"314 352 LINE",
"882 352 LINE",
"882 452 LINE",
"314 452 LINE"
);
},
{
closed = 1;
nodes = (
"1124 0 LINE",
"664 1152 LINE",
"514 1152 LINE",
"54 0 LINE",
"214 0 LINE",
"584 958 LINE",
"588 958 LINE",
"950 0 LINE"
);
}
);
};
layerId = "B520048A-B5B0-4F8C-90F0-FFAF6C62D524";
paths = (
{
closed = 1;
nodes = (
"32 0 LINE",
"184 0 LINE",
"559 856 LINE",
"563 856 LINE",
"944 0 LINE",
"1102 0 LINE",
"572 1152 LINE",
"552 1152 LINE"
);
},
{
closed = 1;
nodes = (
"294 280 LINE",
"862 280 LINE",
"862 410 LINE",
"294 410 LINE"
);
}
);
width = 1134;
},
{
anchors = (
{
name = bottom;
position = "{574, 0}";
},
{
name = ogonek;
position = "{1016, 10}";
},
{
name = top;
position = "{574, 1152}";
}
);
layerId = "21D66A2E-3203-408D-B482-78BB09110413";
paths = (
{
closed = 1;
nodes = (
"24 0 LINE",
"255 0 LINE",
"574 922 LINE",
"577 922 LINE",
"879 0 LINE",
"1124 0 LINE",
"714 1152 LINE",
"434 1152 LINE"
);
},
{
closed = 1;
nodes = (
"266 150 LINE",
"884 150 LINE",
"884 350 LINE",
"266 350 LINE"
);
}
);
width = 1148;
},
{
anchors = (
{
name = bottom;
position = "{655, 0}";
},
{
name = ogonek;
position = "{1190, 0}";
},
{
name = top;
position = "{647, 1152}";
}
);
background = {
paths = (
{
closed = 1;
nodes = (
"1200 0 LINE",
"820 1152 LINE",
"558 1152 LINE",
"182 0 LINE",
"308 0 LINE",
"642 1048 LINE",
"698 1048 LINE",
"1038 0 LINE"
);
},
{
closed = 1;
nodes = (
"402 352 LINE",
"970 352 LINE",
"970 452 LINE",
"402 452 LINE"
);
},
{
closed = 1;
nodes = (
"1212 0 LINE",
"752 1152 LINE",
"602 1152 LINE",
"142 0 LINE",
"302 0 LINE",
"672 958 LINE",
"676 958 LINE",
"1038 0 LINE"
);
}
);
};
layerId = "4CECAF9F-8433-4C1D-B398-9C9ECB761FA2";
paths = (
{
closed = 1;
nodes = (
"120 0 LINE",
"154 0 LINE",
"648 1107 LINE",
"652 1107 LINE",
"1154 0 LINE",
"1190 0 LINE",
"667 1153 LINE",
"632 1152 LINE"
);
},
{
closed = 1;
nodes = (
"312 380 LINE",
"990 380 LINE",
"990 410 LINE",
"312 410 LINE"
);
}
);
width = 1310;
},
{
anchors = (
{
name = bottom;
position = "{540, 0}";
},
{
name = ogonek;
position = "{982, 10}";
},
{
name = top;
position = "{540, 1152}";
}
);
layerId = "E81C9CF6-C278-46EE-B3DD-D93820CD8949";
paths = (
{
closed = 1;
nodes = (
"-70 0 LINE",
"317 0 LINE",
"540 462 LINE",
"544 462 LINE",
"757 0 LINE",
"1150 0 LINE",
"560 1152 LINE",
"520 1152 LINE"
);
},
{
closed = 1;
nodes = (
"232 0 LINE",
"850 0 LINE",
"850 260 LINE",
"232 260 LINE"
);
}
);
width = 1080;
},
{
anchors = (
{
name = bottom;
position = "{655, 0}";
},
{
name = ogonek;
position = "{1190, 0}";
},
{
name = top;
position = "{647, 1152}";
}
);
background = {
paths = (
{
closed = 1;
nodes = (
"1200 0 LINE",
"820 1152 LINE",
"558 1152 LINE",
"182 0 LINE",
"308 0 LINE",
"642 1048 LINE",
"698 1048 LINE",
"1038 0 LINE"
);
},
{
closed = 1;
nodes = (
"402 352 LINE",
"970 352 LINE",
"970 452 LINE",
"402 452 LINE"
);
},
{
closed = 1;
nodes = (
"1212 0 LINE",
"752 1152 LINE",
"602 1152 LINE",
"142 0 LINE",
"302 0 LINE",
"672 958 LINE",
"676 958 LINE",
"1038 0 LINE"
);
}
);
};
layerId = "07CFD988-7AB2-42E7-A00D-A2450F106178";
paths = (
{
closed = 1;
nodes = (
"120 0 LINE",
"154 0 LINE",
"648 1107 LINE",
"652 1107 LINE",
"1154 0 LINE",
"1190 0 LINE",
"668 1152 LINE",
"632 1152 LINE"
);
},
{
closed = 1;
nodes = (
"312 380 LINE",
"990 380 LINE",
"990 410 LINE",
"312 410 LINE"
);
}
);
width = 1310;
},
{
anchors = (
{
name = bottom;
position = "{543, 0}";
},
{
name = ogonek;
position = "{1078, 0}";
},
{
name = top;
position = "{538, 1152}";
}
);
background = {
paths = (
{
closed = 1;
nodes = (
"204 280 LINE",
"772 280 LINE",
"772 410 LINE",
"204 410 LINE"
);
},
{
closed = 1;
nodes = (
"513 1215 LINE",
"386 1012 OFFCURVE",
"51 212 OFFCURVE",
"13 0 CURVE",
"143 0 LINE",
"175 202 OFFCURVE",
"522 1014 OFFCURVE",
"591 1107 CURVE",
"487 1108 LINE",
"510 976 OFFCURVE",
"754 148 OFFCURVE",
"822 -1 CURVE",
"963 -1 LINE",
"894 153 OFFCURVE",
"620 1060 OFFCURVE",
"573 1215 CURVE"
);
}
);
};
layerId = "8F4C15E6-FE25-4FE1-BA9A-20FEE9FEA92B";
paths = (
{
closed = 1;
nodes = (
"184 386 LINE",
"711 386 LINE",
"711 506 LINE",
"184 506 LINE"
);
},
{
closed = 1;
nodes = (
"363 1152 LINE",
"279 884 OFFCURVE",
"-1 147 OFFCURVE",
"-77 0 CURVE",
"73 0 LINE",
"143 127 OFFCURVE",
"376 792 OFFCURVE",
"462 1032 CURVE",
"545 1032 LINE",
"600 790 OFFCURVE",
"749 92 OFFCURVE",
"766 -1 CURVE",
"933 -1 LINE",
"903 105 OFFCURVE",
"701 889 OFFCURVE",
"667 1152 CURVE"
);
}
);
width = 1000;
},
{
anchors = (
{
name = bottom;
position = "{604, 0}";
},
{
name = ogonek;
position = "{1046, 10}";
},
{
name = top;
position = "{604, 1152}";
}
);
layerId = "59F31D40-6FCC-412D-85D2-AC9268FECF70";
paths = (
{
closed = 1;
nodes = (
"231 225 LINE",
"834 225 LINE",
"834 435 LINE",
"231 435 LINE"
);
},
{
closed = 1;
nodes = (
"398 1152 LINE",
"332 949 OFFCURVE",
"97 212 OFFCURVE",
"-39 0 CURVE",
"215 0 LINE",
"327 202 OFFCURVE",
"535 861 OFFCURVE",
"547 942 CURVE",
"611 943 LINE",
"612 843 OFFCURVE",
"732 129 OFFCURVE",
"796 0 CURVE",
"1031 0 LINE",
"970 147 OFFCURVE",
"820 905 OFFCURVE",
"788 1152 CURVE"
);
}
);
width = 1030;
},
{
anchors = (
{
name = bottom;
position = "{543, 0}";
},
{
name = ogonek;
position = "{1078, 0}";
},
{
name = top;
position = "{538, 1152}";
}
);
background = {
paths = (
{
closed = 1;
nodes = (
"1088 0 LINE",
"708 1152 LINE",
"446 1152 LINE",
"70 0 LINE",
"196 0 LINE",
"530 1048 LINE",
"586 1048 LINE",
"926 0 LINE"
);
},
{
closed = 1;
nodes = (
"290 352 LINE",
"858 352 LINE",
"858 452 LINE",
"290 452 LINE"
);
},
{
closed = 1;
nodes = (
"1100 0 LINE",
"640 1152 LINE",
"490 1152 LINE",
"30 0 LINE",
"190 0 LINE",
"560 958 LINE",
"564 958 LINE",
"926 0 LINE"
);
}
);
};
layerId = "A3C9B703-72F4-4F0D-9958-30991330B555";
paths = (
{
closed = 1;
nodes = (
"172 382 LINE",
"820 382 LINE",
"820 409 LINE",
"172 409 LINE"
);
},
{
closed = 1;
nodes = (
"533 1165 LINE",
"456 1012 OFFCURVE",
"71 212 OFFCURVE",
"-47 0 CURVE",
"-17 0 LINE",
"97 202 OFFCURVE",
"478 999 OFFCURVE",
"548 1138 CURVE",
"589 1138 LINE",
"602 1086 OFFCURVE",
"865 148 OFFCURVE",
"933 -1 CURVE",
"963 -1 LINE",
"894 153 OFFCURVE",
"628 1090 OFFCURVE",
"611 1165 CURVE"
);
}
);
width = 1000;
}
);
leftKerningGroup = A;
rightKerningGroup = A;
unicode = 0041;
},
{
glyphname = Aringacute;
lastChange = "2019-03-05 22:20:06 +0000";
layers = (
{
components = (
{
name = A;
},
{
alignment = -1;
name = ringcomb;
transform = "{1, 0, 0, 1, 262, 234}";
}
);
layerId = "B520048A-B5B0-4F8C-90F0-FFAF6C62D524";
paths = (
{
closed = 1;
nodes = (
"872 927 LINE",
"1112 1207 LINE",
"938 1207 LINE",
"708 927 LINE"
);
}
);
width = 1134;
},
{
components = (
{
name = A;
},
{
name = ringcomb;
transform = "{1, 0, 0, 1, 274, 224}";
}
);
layerId = "21D66A2E-3203-408D-B482-78BB09110413";
paths = (
{
closed = 1;
nodes = (
"1043 790 LINE",
"1273 1040 LINE",
"1009 1040 LINE",
"779 790 LINE"
);
}
);
width = 1148;
},
{
components = (
{
name = A;
},
{
alignment = -1;
name = ringcomb;
transform = "{1, 0, 0, 1, 347, 284}";
}
);
layerId = "4CECAF9F-8433-4C1D-B398-9C9ECB761FA2";
paths = (
{
closed = 1;
nodes = (
"872 927 LINE",
"1112 1207 LINE",
"1068 1207 LINE",
"838 927 LINE"
);
}
);
width = 1310;
},
{
components = (
{
name = A;
},
{
name = ringcomb;
transform = "{1, 0, 0, 1, 240, 384}";
},
{
name = acutecomb;
transform = "{1, 0, 0, 1, 239, 847}";
}
);
layerId = "E81C9CF6-C278-46EE-B3DD-D93820CD8949";
width = 1080;
},
{
components = (
{
name = A;
},
{
name = ringcomb;
transform = "{1, 0, 0, 1, 347, 384}";
},
{
name = acutecomb;
transform = "{1, 0, 0, 1, 347, 634}";
}
);
layerId = "07CFD988-7AB2-42E7-A00D-A2450F106178";
width = 1310;
},
{
components = (
{
name = A;
},
{
name = ringcomb;
transform = "{1, 0, 0, 1, 260, 384}";
},
{
name = acutecomb;
transform = "{1, 0, 0, 1, 260, 634}";
}
);
layerId = "8F4C15E6-FE25-4FE1-BA9A-20FEE9FEA92B";
width = 1000;
},
{
components = (
{
name = A;
},
{
name = ringcomb;
transform = "{1, 0, 0, 1, 304, 384}";
},
{
name = acutecomb;
transform = "{1, 0, 0, 1, 303, 847}";
}
);
layerId = "59F31D40-6FCC-412D-85D2-AC9268FECF70";
width = 1030;
},
{
components = (
{
name = A;
},
{
name = ringcomb;
transform = "{1, 0, 0, 1, 171, 384}";
},
{
name = acutecomb;
transform = "{1, 0, 0, 1, 260, 634}";
}
);
layerId = "A3C9B703-72F4-4F0D-9958-30991330B555";
width = 1000;
}
);
unicode = 01FA;
},
{
glyphname = AE;
lastChange = "2019-03-05 22:32:43 +0000";
layers = (
{
anchors = (
{
name = bottom;
position = "{896, 0}";
},
{
name = top;
position = "{1000, 1152}";
}
);
layerId = "B520048A-B5B0-4F8C-90F0-FFAF6C62D524";
paths = (
{
closed = 1;
nodes = (
"32 0 LINE",
"166 0 LINE",
"780 1152 LINE",
"653 1152 LINE"
);
},
{
closed = 1;
nodes = (
"689 1152 LINE",
"786 0 LINE",
"922 0 LINE",
"800 1152 LINE"
);
},
{
closed = 1;
nodes = (
"814 540 LINE",
"1362 540 LINE",
"1362 670 LINE",
"814 670 LINE"
);
},
{
closed = 1;
nodes = (
"794 1022 LINE",
"1362 1022 LINE",
"1362 1152 LINE",
"794 1152 LINE"
);
},
{
closed = 1;
nodes = (
"894 0 LINE",
"1402 0 LINE",
"1402 130 LINE",
"894 130 LINE"
);
}
);
width = 1492;
},
{
anchors = (
{
name = bottom;
position = "{928, 0}";
},
{
name = top;
position = "{1032, 1152}";
}
);
layerId = "21D66A2E-3203-408D-B482-78BB09110413";
paths = (
{
closed = 1;
nodes = (
"24 0 LINE",
"278 0 LINE",
"772 1152 LINE",
"534 1152 LINE"
);
},
{
closed = 1;
nodes = (
"650 1152 LINE",
"808 0 LINE",
"1044 0 LINE",
"892 1152 LINE"
);
},
{
closed = 1;
nodes = (
"906 440 LINE",
"1394 440 LINE",
"1394 670 LINE",
"906 670 LINE"
);
},
{
closed = 1;
nodes = (
"886 922 LINE",
"1394 922 LINE",
"1394 1152 LINE",
"886 1152 LINE"
);
},
{
closed = 1;
nodes = (
"986 0 LINE",
"1434 0 LINE",
"1434 230 LINE",
"986 230 LINE"
);
}
);
width = 1484;
},
{
anchors = (
{
name = bottom;
position = "{834, 0}";
},
{
name = top;
position = "{938, 1152}";
}
);
layerId = "4CECAF9F-8433-4C1D-B398-9C9ECB761FA2";
paths = (
{
closed = 1;
nodes = (
"120 0 LINE",
"154 0 LINE",
"738 1152 LINE",
"705 1152 LINE"
);
},
{
closed = 1;
nodes = (
"708 1152 LINE",
"874 0 LINE",
"910 0 LINE",
"738 1152 LINE"
);
},
{
closed = 1;
nodes = (
"802 592 LINE",
"1390 592 LINE",
"1390 622 LINE",
"802 622 LINE"
);
},
{
closed = 1;
nodes = (
"732 1125 LINE",
"1390 1125 LINE",
"1390 1152 LINE",
"732 1152 LINE"
);
},
{
closed = 1;
nodes = (
"882 0 LINE",
"1430 0 LINE",
"1430 27 LINE",
"882 27 LINE"
);
}
);
width = 1560;
},
{
anchors = (
{
name = bottom;
position = "{834, 0}";
},
{
name = top;
position = "{938, 1152}";
}
);
layerId = "E81C9CF6-C278-46EE-B3DD-D93820CD8949";
paths = (
{
closed = 1;
nodes = (
"-70 0 LINE",
"184 0 LINE",
"678 1152 LINE",
"440 1152 LINE"
);
},
{
closed = 1;
nodes = (
"556 1152 LINE",
"714 0 LINE",
"950 0 LINE",
"798 1152 LINE"
);
},
{
closed = 1;
nodes = (
"812 440 LINE",
"1300 440 LINE",
"1300 670 LINE",
"812 670 LINE"
);
},
{
closed = 1;
nodes = (
"792 922 LINE",
"1300 922 LINE",
"1300 1152 LINE",
"792 1152 LINE"
);
},
{
closed = 1;
nodes = (
"892 0 LINE",
"1340 0 LINE",
"1340 230 LINE",
"892 230 LINE"
);
}
);
width = 1380;
},
{
anchors = (
{
name = bottom;
position = "{834, 0}";
},
{
name = top;
position = "{938, 1152}";
}
);
layerId = "07CFD988-7AB2-42E7-A00D-A2450F106178";
paths = (
{
closed = 1;
nodes = (
"120 0 LINE",
"154 0 LINE",
"738 1152 LINE",
"705 1152 LINE"
);
},
{
closed = 1;
nodes = (
"708 1152 LINE",
"874 0 LINE",
"910 0 LINE",
"738 1152 LINE"
);
},
{
closed = 1;
nodes = (
"802 592 LINE",
"1390 592 LINE",
"1390 622 LINE",
"802 622 LINE"
);
},
{
closed = 1;
nodes = (
"732 1125 LINE",
"1390 1125 LINE",
"1390 1152 LINE",
"732 1152 LINE"
);
},
{
closed = 1;
nodes = (
"882 0 LINE",
"1430 0 LINE",
"1430 27 LINE",
"882 27 LINE"
);
}
);
width = 1560;
},
{
anchors = (
{
name = bottom;
position = "{936, 0}";
},
{
name = top;
position = "{1040, 1152}";
}
);
layerId = "8F4C15E6-FE25-4FE1-BA9A-20FEE9FEA92B";
paths = (
{
closed = 1;
nodes = (
"144 481 LINE",
"1211 481 LINE",
"1211 611 LINE",
"144 611 LINE"
);
},
{
closed = 1;
nodes = (
"262 894 LINE",
"118 576 OFFCURVE",
"-21 147 OFFCURVE",
"-47 0 CURVE",
"83 0 LINE",
"106 146 OFFCURVE",
"264 612 OFFCURVE",
"393 894 CURVE"
);
},
{
closed = 1;
nodes = (
"1299 1022 LINE",
"1299 1152 LINE",
"94 1152 LINE",
"94 1022 LINE"
);
},
{
closed = 1;
nodes = (
"617 1094 LINE",
"607 797 OFFCURVE",
"635 110 OFFCURVE",
"666 -1 CURVE",
"807 -1 LINE",
"778 105 OFFCURVE",
"750 765 OFFCURVE",
"747 1094 CURVE"
);
},
{
closed = 1;
nodes = (
"1211 0 LINE",
"1211 130 LINE",
"705 130 LINE",
"714 0 LINE"
);
}
);
width = 1354;
},
{
anchors = (
{
name = bottom;
position = "{928, 0}";
},
{
name = top;
position = "{1032, 1152}";
}
);
layerId = "59F31D40-6FCC-412D-85D2-AC9268FECF70";
paths = (
{
closed = 1;
nodes = (
"324 441 LINE",
"1311 441 LINE",
"1311 651 LINE",
"324 651 LINE"
);
},
{
closed = 1;
nodes = (
"192 731 LINE",
"178 553 OFFCURVE",
"69 147 OFFCURVE",
"33 0 CURVE",
"263 0 LINE",
"286 146 OFFCURVE",
"394 549 OFFCURVE",
"413 731 CURVE"
);
},
{
closed = 1;
nodes = (
"1399 945 LINE",
"1399 1152 LINE",
"174 1152 LINE",
"174 945 LINE"
);
},
{
closed = 1;
nodes = (
"617 1094 LINE",
"607 797 OFFCURVE",
"635 110 OFFCURVE",
"666 -1 CURVE",
"907 -1 LINE",
"878 105 OFFCURVE",
"850 765 OFFCURVE",
"847 1094 CURVE"
);
},
{
closed = 1;
nodes = (
"1311 0 LINE",
"1311 210 LINE",
"705 210 LINE",
"714 0 LINE"
);
}
);
width = 1484;
},
{
anchors = (
{
name = bottom;
position = "{936, 0}";
},
{
name = top;
position = "{760, 1152}";
}
);
layerId = "A3C9B703-72F4-4F0D-9958-30991330B555";
paths = (
{
closed = 1;
nodes = (
"162 533 LINE",
"1211 533 LINE",
"1211 560 LINE",
"162 560 LINE"
);
},
{
closed = 1;
nodes = (
"280 894 LINE",
"136 576 OFFCURVE",
"-3 147 OFFCURVE",
"-29 0 CURVE",
"3 0 LINE",
"26 146 OFFCURVE",
"184 612 OFFCURVE",
"313 894 CURVE"
);
},
{
closed = 1;
nodes = (
"1299 1125 LINE",
"1299 1152 LINE",
"94 1152 LINE",
"94 1125 LINE"
);
},
{
closed = 1;
nodes = (
"617 1144 LINE",
"607 847 OFFCURVE",
"645 110 OFFCURVE",
"676 -1 CURVE",
"707 -1 LINE",
"678 105 OFFCURVE",
"640 845 OFFCURVE",
"647 1144 CURVE"
);
},
{
closed = 1;
nodes = (
"1211 0 LINE",
"1211 30 LINE",
"690 30 LINE",
"690 0 LINE"
);
}
);
width = 1492;
}
);
leftMetricsKey = A;
rightMetricsKey = E;
unicode = 00C6;
},
{
glyphname = B;
lastChange = "2018-11-30 00:12:37 +0000";
layers = (
{
anchors = (
{
name = bottom;
position = "{495, 0}";
},
{
name = top;
position = "{495, 1152}";
}
);
background = {
paths = (
{
closed = 1;
nodes = (
"708 0 LINE",
"712 62 LINE",
"405 62 LINE",
"405 316 LINE",
"628 316 LINE",
"632 374 LINE",
"405 374 LINE",
"405 599 LINE",
"674 599 LINE",
"678 660 LINE",
"321 660 LINE",
"321 0 LINE"
);
}
);
};
layerId = "B520048A-B5B0-4F8C-90F0-FFAF6C62D524";
paths = (
{
closed = 1;
nodes = (
"776 631 OFFCURVE",
"826 713 OFFCURVE",
"826 833 CURVE SMOOTH",
"826 1043 OFFCURVE",
"675 1152 OFFCURVE",
"441 1152 CURVE SMOOTH",
"144 1152 LINE",
"144 0 LINE",
"541 0 LINE SMOOTH",
"745 0 OFFCURVE",
"894 116 OFFCURVE",
"894 300 CURVE SMOOTH",
"894 427 OFFCURVE",
"823 546 OFFCURVE",
"698 585 CURVE",
"698 589 LINE"
);
},
{
closed = 1;
nodes = (
"284 488 LINE",
"498 488 LINE SMOOTH",
"660 488 OFFCURVE",
"746 422 OFFCURVE",
"746 307 CURVE SMOOTH",
"746 180 OFFCURVE",
"650 130 OFFCURVE",
"536 130 CURVE SMOOTH",
"284 130 LINE"
);
},
{
closed = 1;
nodes = (
"284 1022 LINE",
"426 1022 LINE SMOOTH",
"584 1022 OFFCURVE",
"678 962 OFFCURVE",
"678 820 CURVE SMOOTH",
"678 687 OFFCURVE",
"599 618 OFFCURVE",
"520 618 CURVE SMOOTH",
"284 618 LINE"
);
}
);
width = 988;
},
{
anchors = (
{
name = bottom;
position = "{533, 0}";
},
{
name = top;
position = "{533, 1152}";
}
);
background = {
paths = (
{
closed = 1;
nodes = (
"854 7 LINE",
"864 191 LINE",
"380 191 LINE",
"380 522 LINE",
"767 522 LINE",
"775 700 LINE",
"380 700 LINE",
"380 970 LINE",
"795 970 LINE",
"805 1152 LINE",
"112 1152 LINE",
"112 7 LINE"
);
}
);
};
layerId = "21D66A2E-3203-408D-B482-78BB09110413";
paths = (
{
closed = 1;
nodes = (
"832 651 OFFCURVE",
"882 731 OFFCURVE",
"882 851 CURVE SMOOTH",
"882 1053 OFFCURVE",
"741 1152 OFFCURVE",
"497 1152 CURVE SMOOTH",
"80 1152 LINE",
"80 0 LINE",
"607 0 LINE SMOOTH",
"811 0 OFFCURVE",
"950 116 OFFCURVE",
"950 308 CURVE SMOOTH",
"950 437 OFFCURVE",
"879 556 OFFCURVE",
"754 595 CURVE",
"754 599 LINE"
);
},
{
closed = 1;
nodes = (
"300 478 LINE",
"538 478 LINE SMOOTH",
"655 478 OFFCURVE",
"712 422 OFFCURVE",
"712 341 CURVE SMOOTH",
"712 245 OFFCURVE",
"637 210 OFFCURVE",
"547 210 CURVE SMOOTH",
"300 210 LINE"
);
},
{
closed = 1;
nodes = (
"300 942 LINE",
"456 942 LINE SMOOTH",
"574 942 OFFCURVE",
"644 910 OFFCURVE",
"644 810 CURVE SMOOTH",
"644 706 OFFCURVE",
"565 678 OFFCURVE",
"506 678 CURVE SMOOTH",
"300 678 LINE"
);
}
);
width = 980;
},
{
anchors = (
{
name = bottom;
position = "{551, 0}";
},
{
name = top;
position = "{551, 1152}";
}
);
background = {
paths = (
{
closed = 1;
nodes = (
"764 0 LINE",
"768 62 LINE",
"461 62 LINE",
"461 316 LINE",
"684 316 LINE",
"688 374 LINE",
"461 374 LINE",
"461 599 LINE",
"730 599 LINE",
"734 660 LINE",
"377 660 LINE",
"377 0 LINE"
);
}
);
};
layerId = "4CECAF9F-8433-4C1D-B398-9C9ECB761FA2";
paths = (
{
closed = 1;
nodes = (
"810 598 OFFCURVE",
"882 733 OFFCURVE",
"882 867 CURVE SMOOTH",
"882 1063 OFFCURVE",
"731 1152 OFFCURVE",
"497 1152 CURVE SMOOTH",
"200 1152 LINE",
"200 0 LINE",
"597 0 LINE SMOOTH",
"801 0 OFFCURVE",
"950 96 OFFCURVE",
"950 287 CURVE SMOOTH",
"950 457 OFFCURVE",
"831 536 OFFCURVE",
"682 555 CURVE",
"682 557 LINE"
);
},
{
closed = 1;
nodes = (
"232 538 LINE",
"587 538 LINE SMOOTH",
"779 538 OFFCURVE",
"918 449 OFFCURVE",
"918 285 CURVE SMOOTH",
"918 109 OFFCURVE",
"764 30 OFFCURVE",
"602 30 CURVE SMOOTH",
"232 30 LINE"
);
},
{
closed = 1;
nodes = (
"232 1122 LINE",
"494 1122 LINE SMOOTH",
"710 1122 OFFCURVE",
"850 1047 OFFCURVE",
"850 864 CURVE SMOOTH",
"850 704 OFFCURVE",
"752 568 OFFCURVE",
"589 568 CURVE SMOOTH",
"232 568 LINE"
);
}
);
width = 1130;
},
{
anchors = (
{
name = bottom;
position = "{553, 0}";
},
{
name = top;
position = "{553, 1152}";
}
);
background = {
paths = (
{
closed = 1;
nodes = (
"874 7 LINE",
"884 191 LINE",
"400 191 LINE",
"400 522 LINE",
"787 522 LINE",
"795 700 LINE",
"400 700 LINE",
"400 970 LINE",
"815 970 LINE",
"825 1152 LINE",
"132 1152 LINE",
"132 7 LINE"
);
}
);
};
layerId = "E81C9CF6-C278-46EE-B3DD-D93820CD8949";
paths = (
{
closed = 1;
nodes = (
"911 651 OFFCURVE",
"970 731 OFFCURVE",
"970 851 CURVE SMOOTH",
"970 1053 OFFCURVE",
"804 1152 OFFCURVE",
"517 1152 CURVE SMOOTH",
"50 1152 LINE",
"50 0 LINE",
"646 0 LINE SMOOTH",
"886 0 OFFCURVE",
"1050 116 OFFCURVE",
"1050 308 CURVE SMOOTH",
"1050 437 OFFCURVE",
"966 556 OFFCURVE",
"774 595 CURVE",
"774 599 LINE"
);
},
{
closed = 1;
nodes = (
"434 448 LINE",
"507 448 LINE SMOOTH",
"608 448 OFFCURVE",
"662 418 OFFCURVE",
"662 365 CURVE SMOOTH",
"662 303 OFFCURVE",
"602 280 OFFCURVE",
"530 280 CURVE SMOOTH",
"434 280 LINE"
);
},
{
closed = 1;
nodes = (
"434 872 LINE",
"457 872 LINE SMOOTH",
"552 872 OFFCURVE",
"608 851 OFFCURVE",
"608 783 CURVE SMOOTH",
"608 714 OFFCURVE",
"545 688 OFFCURVE",
"497 688 CURVE SMOOTH",
"434 688 LINE"
);
}
);
width = 1080;
},
{
anchors = (
{
name = bottom;
position = "{551, 0}";
},
{
name = top;
position = "{551, 1152}";
}
);
background = {
paths = (
{
closed = 1;
nodes = (
"764 0 LINE",
"768 62 LINE",
"461 62 LINE",
"461 316 LINE",
"684 316 LINE",
"688 374 LINE",
"461 374 LINE",
"461 599 LINE",
"730 599 LINE",
"734 660 LINE",
"377 660 LINE",
"377 0 LINE"
);
}
);
};
layerId = "07CFD988-7AB2-42E7-A00D-A2450F106178";
paths = (
{
closed = 1;
nodes = (
"810 598 OFFCURVE",
"882 733 OFFCURVE",
"882 867 CURVE SMOOTH",
"882 1063 OFFCURVE",
"731 1152 OFFCURVE",
"497 1152 CURVE SMOOTH",
"200 1152 LINE",
"200 0 LINE",
"597 0 LINE SMOOTH",
"801 0 OFFCURVE",
"950 96 OFFCURVE",
"950 287 CURVE SMOOTH",
"950 457 OFFCURVE",
"831 536 OFFCURVE",
"682 555 CURVE",
"682 557 LINE"
);
},
{
closed = 1;
nodes = (
"232 538 LINE",
"587 538 LINE SMOOTH",
"779 538 OFFCURVE",
"918 449 OFFCURVE",
"918 285 CURVE SMOOTH",
"918 109 OFFCURVE",
"764 30 OFFCURVE",
"602 30 CURVE SMOOTH",
"232 30 LINE"
);
},
{
closed = 1;
nodes = (
"232 1122 LINE",
"494 1122 LINE SMOOTH",
"710 1122 OFFCURVE",
"850 1047 OFFCURVE",
"850 864 CURVE SMOOTH",
"850 704 OFFCURVE",
"752 568 OFFCURVE",
"589 568 CURVE SMOOTH",
"232 568 LINE"
);
}
);
width = 1130;
},
{
anchors = (
{
name = bottom;
position = "{385, 0}";
},
{
name = top;
position = "{385, 1152}";
}
);
background = {
paths = (
{
closed = 1;
nodes = (
"598 0 LINE",
"602 62 LINE",
"295 62 LINE",
"295 316 LINE",
"518 316 LINE",
"522 374 LINE",
"295 374 LINE",
"295 599 LINE",
"564 599 LINE",
"568 660 LINE",
"211 660 LINE",
"211 0 LINE"
);
}
);
};
layerId = "8F4C15E6-FE25-4FE1-BA9A-20FEE9FEA92B";
paths = (
{
closed = 1;
nodes = (
"700 588 OFFCURVE",
"805 731 OFFCURVE",
"815 889 CURVE SMOOTH",
"827 1075 OFFCURVE",
"699 1173 OFFCURVE",
"427 1174 CURVE SMOOTH",
"341 1174 OFFCURVE",
"242 1164 OFFCURVE",
"154 1152 CURVE",
"84 -21 LINE",
"167 -21 LINE SMOOTH",
"488 -21 OFFCURVE",
"802 56 OFFCURVE",
"816 330 CURVE SMOOTH",
"826 517 OFFCURVE",
"693 674 OFFCURVE",
"430 607 CURVE",
"370 510 LINE"
);
},
{
closed = 1;
nodes = (
"290 1090 LINE",
"229 1022 LINE",
"289 1033 OFFCURVE",
"355 1040 OFFCURVE",
"424 1040 CURVE SMOOTH",
"585 1040 OFFCURVE",
"694 1002 OFFCURVE",
"685 887 CURVE SMOOTH",
"673 742 OFFCURVE",
"486 636 OFFCURVE",
"242 600 CURVE",
"242 479 LINE",
"327 500 LINE SMOOTH",
"543 553 OFFCURVE",
"698 477 OFFCURVE",
"686 329 CURVE SMOOTH",
"671 150 OFFCURVE",
"430 109 OFFCURVE",
"139 109 CURVE",
"224 -21 LINE"
);
}
);
width = 880;
},
{
anchors = (
{
name = bottom;
position = "{550, 0}";
},
{
name = top;
position = "{550, 1152}";
}
);
background = {
paths = (
{
closed = 1;
nodes = (
"871 7 LINE",
"881 191 LINE",
"397 191 LINE",
"397 522 LINE",
"784 522 LINE",
"792 700 LINE",
"397 700 LINE",
"397 970 LINE",
"812 970 LINE",
"822 1152 LINE",
"129 1152 LINE",
"129 7 LINE"
);
}
);
};
layerId = "59F31D40-6FCC-412D-85D2-AC9268FECF70";
paths = (
{
closed = 1;
nodes = (
"828 590 OFFCURVE",
"954 721 OFFCURVE",
"970 901 CURVE SMOOTH",
"994 1166 OFFCURVE",
"744 1192 OFFCURVE",
"595 1192 CURVE SMOOTH",
"481 1192 OFFCURVE",
"244 1172 OFFCURVE",
"151 1152 CURVE",
"86 -44 LINE",
"222 -36 LINE SMOOTH",
"642 -11 OFFCURVE",
"936 102 OFFCURVE",
"956 360 CURVE SMOOTH",
"975 607 OFFCURVE",
"721 698 OFFCURVE",
"410 637 CURVE",
"406 512 LINE"
);
},
{
closed = 1;
nodes = (
"381 1152 LINE",
"246 945 LINE",
"323 966 OFFCURVE",
"488 982 OFFCURVE",
"557 982 CURVE SMOOTH",
"663 982 OFFCURVE",
"742 947 OFFCURVE",
"732 858 CURVE SMOOTH",
"718 730 OFFCURVE",
"539 666 OFFCURVE",
"258 646 CURVE",
"248 454 LINE",
"268 460 LINE SMOOTH",
"466 520 OFFCURVE",
"738 511 OFFCURVE",
"726 377 CURVE SMOOTH",
"715 252 OFFCURVE",
"477 197 OFFCURVE",
"223 179 CURVE",
"315 0 LINE"
);
}
);
width = 1000;
},
{
anchors = (
{
name = bottom;
position = "{385, 0}";
},
{
name = top;
position = "{385, 1152}";
}
);
background = {
paths = (
{
closed = 1;
nodes = (
"598 0 LINE",
"602 62 LINE",
"295 62 LINE",
"295 316 LINE",
"518 316 LINE",
"522 374 LINE",
"295 374 LINE",
"295 599 LINE",
"564 599 LINE",
"568 660 LINE",
"211 660 LINE",
"211 0 LINE"
);
}
);
};
layerId = "A3C9B703-72F4-4F0D-9958-30991330B555";
paths = (
{
closed = 1;
nodes = (
"671 662 OFFCURVE",
"805 731 OFFCURVE",
"816 904 CURVE SMOOTH",
"827 1075 OFFCURVE",
"709 1173 OFFCURVE",
"437 1174 CURVE SMOOTH",
"351 1174 OFFCURVE",
"242 1164 OFFCURVE",
"154 1152 CURVE",
"84 -18 LINE",
"117 -18 LINE SMOOTH",
"488 -18 OFFCURVE",
"800 57 OFFCURVE",
"816 327 CURVE SMOOTH",
"829 558 OFFCURVE",
"604 661 OFFCURVE",
"320 589 CURVE",
"369 585 LINE"
);
},
{
closed = 1;
nodes = (
"184 1152 LINE",
"162 1122 LINE",
"223 1140 OFFCURVE",
"358 1147 OFFCURVE",
"427 1147 CURVE SMOOTH",
"652 1147 OFFCURVE",
"795 1066 OFFCURVE",
"786 904 CURVE SMOOTH",
"774 695 OFFCURVE",
"526 646 OFFCURVE",
"128 548 CURVE",
"128 521 LINE",
"327 570 LINE SMOOTH",
"562 628 OFFCURVE",
"803 546 OFFCURVE",
"785 323 CURVE SMOOTH",
"765 75 OFFCURVE",
"460 9 OFFCURVE",
"109 9 CURVE",
"114 -18 LINE"
);
}
);
width = 880;
}
);
leftMetricsKey = H;
unicode = 0042;
},
{
glyphname = C;
lastChange = "2018-11-30 00:17:29 +0000";
layers = (
{
anchors = (
{
name = bottom;
position = "{602, 0}";
},
{
name = top;
position = "{622, 1152}";
}
);
background = {
paths = (
{
closed = 1;
nodes = (
"813 1040 OFFCURVE",
"963 989 OFFCURVE",
"1034 939 CURVE",
"1034 1085 LINE",
"961 1129 OFFCURVE",
"827 1170 OFFCURVE",
"677 1170 CURVE SMOOTH",
"314 1170 OFFCURVE",
"100 931 OFFCURVE",
"100 576 CURVE SMOOTH",
"100 235 OFFCURVE",
"299 -18 OFFCURVE",
"663 -18 CURVE SMOOTH",
"824 -18 OFFCURVE",
"961 32 OFFCURVE",
"1034 76 CURVE",
"1034 216 LINE",
"970 163 OFFCURVE",
"823 112 OFFCURVE",
"682 112 CURVE SMOOTH",
"425 112 OFFCURVE",
"248 297 OFFCURVE",
"248 573 CURVE SMOOTH",
"248 844 OFFCURVE",
"423 1040 OFFCURVE",
"676 1040 CURVE SMOOTH"
);
}
);
};
layerId = "B520048A-B5B0-4F8C-90F0-FFAF6C62D524";
paths = (
{
closed = 1;
nodes = (
"832 1035 OFFCURVE",
"963 985 OFFCURVE",
"1034 935 CURVE",
"1034 1085 LINE",
"961 1129 OFFCURVE",
"847 1170 OFFCURVE",
"697 1170 CURVE SMOOTH",
"334 1170 OFFCURVE",
"100 931 OFFCURVE",
"100 576 CURVE SMOOTH",
"100 235 OFFCURVE",
"319 -18 OFFCURVE",
"683 -18 CURVE SMOOTH",
"844 -18 OFFCURVE",
"961 32 OFFCURVE",
"1034 76 CURVE",
"1034 220 LINE",
"970 167 OFFCURVE",
"842 117 OFFCURVE",
"700 117 CURVE SMOOTH",
"442 117 OFFCURVE",
"244 300 OFFCURVE",
"244 573 CURVE SMOOTH",
"244 841 OFFCURVE",
"440 1035 OFFCURVE",
"694 1035 CURVE SMOOTH"
);
}
);
width = 1106;
},
{
anchors = (
{
name = bottom;
position = "{635, 0}";
},
{
name = top;
position = "{645, 1152}";
}
);
layerId = "21D66A2E-3203-408D-B482-78BB09110413";
paths = (
{
closed = 1;
nodes = (
"815 950 OFFCURVE",
"970 899 OFFCURVE",
"1034 859 CURVE",
"1034 1085 LINE",
"961 1129 OFFCURVE",
"807 1170 OFFCURVE",
"657 1170 CURVE SMOOTH",
"294 1170 OFFCURVE",
"60 931 OFFCURVE",
"60 576 CURVE SMOOTH",
"60 235 OFFCURVE",
"279 -18 OFFCURVE",
"643 -18 CURVE SMOOTH",
"804 -18 OFFCURVE",
"961 32 OFFCURVE",
"1034 76 CURVE",
"1034 297 LINE",
"976 253 OFFCURVE",
"824 202 OFFCURVE",
"693 202 CURVE SMOOTH",
"467 202 OFFCURVE",
"288 351 OFFCURVE",
"288 574 CURVE SMOOTH",
"288 792 OFFCURVE",
"466 950 OFFCURVE",
"688 950 CURVE SMOOTH"
);
}
);
width = 1074;
},
{
anchors = (
{
name = bottom;
position = "{662, 0}";
},
{
name = top;
position = "{682, 1152}";
}
);
layerId = "4CECAF9F-8433-4C1D-B398-9C9ECB761FA2";
paths = (
{
closed = 1;
nodes = (
"877 1140 OFFCURVE",
"1014 1099 OFFCURVE",
"1094 1049 CURVE",
"1094 1085 LINE",
"1021 1129 OFFCURVE",
"887 1170 OFFCURVE",
"737 1170 CURVE SMOOTH",
"374 1170 OFFCURVE",
"160 931 OFFCURVE",
"160 576 CURVE SMOOTH",
"160 235 OFFCURVE",
"359 -18 OFFCURVE",
"723 -18 CURVE SMOOTH",
"884 -18 OFFCURVE",
"1021 32 OFFCURVE",
"1094 76 CURVE",
"1094 110 LINE",
"1018 64 OFFCURVE",
"883 12 OFFCURVE",
"724 12 CURVE SMOOTH",
"395 12 OFFCURVE",
"194 247 OFFCURVE",
"194 576 CURVE SMOOTH",
"194 900 OFFCURVE",
"397 1140 OFFCURVE",
"735 1140 CURVE SMOOTH"
);
}
);
width = 1254;
},
{
anchors = (
{
name = bottom;
position = "{621, 0}";
},
{
name = top;
position = "{631, 1152}";
}
);
layerId = "E81C9CF6-C278-46EE-B3DD-D93820CD8949";
paths = (
{
closed = 1;
nodes = (
"847 820 OFFCURVE",
"969 787 OFFCURVE",
"1020 761 CURVE",
"1020 1085 LINE",
"946 1129 OFFCURVE",
"779 1170 OFFCURVE",
"627 1170 CURVE SMOOTH",
"258 1170 OFFCURVE",
"30 931 OFFCURVE",
"30 576 CURVE SMOOTH",
"30 235 OFFCURVE",
"243 -18 OFFCURVE",
"613 -18 CURVE SMOOTH",
"776 -18 OFFCURVE",
"946 32 OFFCURVE",
"1020 76 CURVE",
"1020 394 LINE",
"974 365 OFFCURVE",
"854 332 OFFCURVE",
"750 332 CURVE SMOOTH",
"572 332 OFFCURVE",
"430 429 OFFCURVE",
"430 575 CURVE SMOOTH",
"430 717 OFFCURVE",
"571 820 OFFCURVE",
"746 820 CURVE SMOOTH"
);
}
);
width = 1050;
},
{
anchors = (
{
name = bottom;
position = "{662, 0}";
},
{
name = top;
position = "{682, 1152}";
}
);
layerId = "07CFD988-7AB2-42E7-A00D-A2450F106178";
paths = (
{
closed = 1;
nodes = (
"877 1140 OFFCURVE",
"1014 1099 OFFCURVE",
"1094 1049 CURVE",
"1094 1085 LINE",
"1021 1129 OFFCURVE",
"887 1170 OFFCURVE",
"737 1170 CURVE SMOOTH",
"374 1170 OFFCURVE",
"160 931 OFFCURVE",
"160 576 CURVE SMOOTH",
"160 235 OFFCURVE",
"359 -18 OFFCURVE",
"723 -18 CURVE SMOOTH",
"884 -18 OFFCURVE",
"1021 32 OFFCURVE",
"1094 76 CURVE",
"1094 110 LINE",
"1018 64 OFFCURVE",
"883 12 OFFCURVE",
"724 12 CURVE SMOOTH",
"395 12 OFFCURVE",
"194 247 OFFCURVE",
"194 576 CURVE SMOOTH",
"194 900 OFFCURVE",
"397 1140 OFFCURVE",
"735 1140 CURVE SMOOTH"
);
}
);
width = 1254;
},
{
anchors = (
{
name = bottom;
position = "{526, 0}";
},
{
name = top;
position = "{546, 1152}";
}
);
background = {
paths = (
{
closed = 1;
nodes = (
"737 1040 OFFCURVE",
"887 989 OFFCURVE",
"958 939 CURVE",
"958 1085 LINE",
"885 1129 OFFCURVE",
"751 1170 OFFCURVE",
"601 1170 CURVE SMOOTH",
"238 1170 OFFCURVE",
"24 931 OFFCURVE",
"24 576 CURVE SMOOTH",
"24 235 OFFCURVE",
"223 -18 OFFCURVE",
"587 -18 CURVE SMOOTH",
"748 -18 OFFCURVE",
"885 32 OFFCURVE",
"958 76 CURVE",
"958 216 LINE",
"894 163 OFFCURVE",
"747 112 OFFCURVE",
"606 112 CURVE SMOOTH",
"349 112 OFFCURVE",
"172 297 OFFCURVE",
"172 573 CURVE SMOOTH",
"172 844 OFFCURVE",
"347 1040 OFFCURVE",
"600 1040 CURVE SMOOTH"
);
}
);
};
layerId = "8F4C15E6-FE25-4FE1-BA9A-20FEE9FEA92B";
paths = (
{
closed = 1;
nodes = (
"248 109 OFFCURVE",
"174 280 OFFCURVE",
"188 493 CURVE SMOOTH",
"210 821 OFFCURVE",
"407 1035 OFFCURVE",
"641 1035 CURVE SMOOTH",
"769 1035 OFFCURVE",
"847 970 OFFCURVE",
"889 910 CURVE",
"974 1041 LINE",
"904 1117 OFFCURVE",
"792 1170 OFFCURVE",
"643 1170 CURVE SMOOTH",
"319 1170 OFFCURVE",
"85 911 OFFCURVE",
"58 496 CURVE SMOOTH",
"39 215 OFFCURVE",
"126 -26 OFFCURVE",
"427 -26 CURVE SMOOTH",
"693 -26 OFFCURVE",
"931 172 OFFCURVE",
"998 359 CURVE",
"924 487 LINE",
"865 313 OFFCURVE",
"668 109 OFFCURVE",
"448 109 CURVE SMOOTH"
);
}
);
width = 1020;
},
{
anchors = (
{
name = bottom;
position = "{612, 0}";
},
{
name = top;
position = "{682, 1152}";
}
);
layerId = "59F31D40-6FCC-412D-85D2-AC9268FECF70";
paths = (
{
closed = 1;
nodes = (
"344 204 OFFCURVE",
"281 336 OFFCURVE",
"291 511 CURVE SMOOTH",
"306 780 OFFCURVE",
"459 941 OFFCURVE",
"627 941 CURVE SMOOTH",
"719 941 OFFCURVE",
"776 888 OFFCURVE",
"806 839 CURVE",
"981 1041 LINE",
"916 1117 OFFCURVE",
"799 1170 OFFCURVE",
"650 1170 CURVE SMOOTH",
"326 1170 OFFCURVE",
"92 911 OFFCURVE",
"65 496 CURVE SMOOTH",
"46 215 OFFCURVE",
"133 -26 OFFCURVE",
"434 -26 CURVE SMOOTH",
"700 -26 OFFCURVE",
"937 172 OFFCURVE",
"974 339 CURVE",
"802 506 LINE",
"760 363 OFFCURVE",
"647 204 OFFCURVE",
"488 204 CURVE SMOOTH"
);
}
);
width = 1000;
},
{
anchors = (
{
name = bottom;
position = "{596, 0}";
},
{
name = top;
position = "{616, 1152}";
}
);
background = {
paths = (
{
closed = 1;
nodes = (
"807 1040 OFFCURVE",
"957 989 OFFCURVE",
"1028 939 CURVE",
"1028 1085 LINE",
"955 1129 OFFCURVE",
"821 1170 OFFCURVE",
"671 1170 CURVE SMOOTH",
"308 1170 OFFCURVE",
"94 931 OFFCURVE",
"94 576 CURVE SMOOTH",
"94 235 OFFCURVE",
"293 -18 OFFCURVE",
"657 -18 CURVE SMOOTH",
"818 -18 OFFCURVE",
"955 32 OFFCURVE",
"1028 76 CURVE",
"1028 216 LINE",
"964 163 OFFCURVE",
"817 112 OFFCURVE",
"676 112 CURVE SMOOTH",
"419 112 OFFCURVE",
"242 297 OFFCURVE",
"242 573 CURVE SMOOTH",
"242 844 OFFCURVE",
"417 1040 OFFCURVE",
"670 1040 CURVE SMOOTH"
);
}
);
};
layerId = "A3C9B703-72F4-4F0D-9958-30991330B555";
paths = (
{
closed = 1;
nodes = (
"230 1 OFFCURVE",
"143 228 OFFCURVE",
"160 475 CURVE SMOOTH",
"183 824 OFFCURVE",
"418 1143 OFFCURVE",
"712 1143 CURVE SMOOTH",
"840 1143 OFFCURVE",
"959 1087 OFFCURVE",
"1012 994 CURVE",
"1044 1020 LINE",
"984 1110 OFFCURVE",
"851 1170 OFFCURVE",
"713 1170 CURVE SMOOTH",
"389 1170 OFFCURVE",
"151 846 OFFCURVE",
"126 475 CURVE SMOOTH",
"109 215 OFFCURVE",
"196 -26 OFFCURVE",
"472 -26 CURVE SMOOTH",
"763 -26 OFFCURVE",
"975 246 OFFCURVE",
"1032 413 CURVE",
"992 432 LINE",
"953 268 OFFCURVE",
"731 1 OFFCURVE",
"473 1 CURVE SMOOTH"
);
}
);
width = 1100;
}
);
leftKerningGroup = O;
leftMetricsKey = O;
unicode = 0043;
},
{
glyphname = D;
lastChange = "2018-11-29 23:52:21 +0000";
layers = (
{
anchors = (
{
name = bottom;
position = "{549, 0}";
},
{
name = center;
position = "{309, 456}";
},
{
name = top;
position = "{549, 1152}";
}
);
background = {
paths = (
{
closed = 1;
nodes = (
"485 0 LINE SMOOTH",
"639 0 OFFCURVE",
"766 30 OFFCURVE",
"853 111 CURVE SMOOTH",
"964 213 OFFCURVE",
"1003 391 OFFCURVE",
"1003 576 CURVE SMOOTH",
"1003 761 OFFCURVE",
"964 939 OFFCURVE",
"853 1041 CURVE SMOOTH",
"766 1122 OFFCURVE",
"639 1152 OFFCURVE",
"485 1152 CURVE SMOOTH",
"166 1152 LINE",
"166 0 LINE"
);
},
{
closed = 1;
nodes = (
"314 1048 LINE",
"440 1048 LINE SMOOTH",
"585 1048 OFFCURVE",
"686 1019 OFFCURVE",
"749 948 CURVE SMOOTH",
"824 862 OFFCURVE",
"841 721 OFFCURVE",
"841 576 CURVE SMOOTH",
"841 431 OFFCURVE",
"824 290 OFFCURVE",
"749 204 CURVE SMOOTH",
"686 133 OFFCURVE",
"585 104 OFFCURVE",
"440 104 CURVE SMOOTH",
"314 104 LINE"
);
}
);
};
layerId = "B520048A-B5B0-4F8C-90F0-FFAF6C62D524";
paths = (
{
closed = 1;
nodes = (
"401 0 LINE SMOOTH",
"834 0 OFFCURVE",
"1068 221 OFFCURVE",
"1068 576 CURVE SMOOTH",
"1068 917 OFFCURVE",
"849 1152 OFFCURVE",
"415 1152 CURVE SMOOTH",
"144 1152 LINE",
"144 0 LINE"
);
},
{
closed = 1;
nodes = (
"284 1020 LINE",
"396 1020 LINE SMOOTH",
"733 1020 OFFCURVE",
"920 855 OFFCURVE",
"920 579 CURVE SMOOTH",
"920 308 OFFCURVE",
"725 136 OFFCURVE",
"392 136 CURVE SMOOTH",
"284 136 LINE"
);
}
);
width = 1168;
},
{
anchors = (
{
name = bottom;
position = "{561, 0}";
},
{
name = center;
position = "{294, 500}";
},
{
name = top;
position = "{561, 1152}";
}
);
layerId = "21D66A2E-3203-408D-B482-78BB09110413";
paths = (
{
closed = 1;
nodes = (
"417 0 LINE SMOOTH",
"850 0 OFFCURVE",
"1064 221 OFFCURVE",
"1064 576 CURVE SMOOTH",
"1064 917 OFFCURVE",
"865 1152 OFFCURVE",
"431 1152 CURVE SMOOTH",
"80 1152 LINE",
"80 0 LINE"
);
},
{
closed = 1;
nodes = (
"300 942 LINE",
"380 942 LINE SMOOTH",
"687 942 OFFCURVE",
"836 806 OFFCURVE",
"836 577 CURVE SMOOTH",
"836 353 OFFCURVE",
"680 210 OFFCURVE",
"377 210 CURVE SMOOTH",
"300 210 LINE"
);
}
);
width = 1114;
},
{
anchors = (
{
name = bottom;
position = "{605, 0}";
},
{
name = center;
position = "{365, 456}";
},
{
name = top;
position = "{605, 1152}";
}
);
background = {
paths = (
{
closed = 1;
nodes = (
"541 0 LINE SMOOTH",
"695 0 OFFCURVE",
"822 30 OFFCURVE",
"909 111 CURVE SMOOTH",
"1020 213 OFFCURVE",
"1059 391 OFFCURVE",
"1059 576 CURVE SMOOTH",
"1059 761 OFFCURVE",
"1020 939 OFFCURVE",
"909 1041 CURVE SMOOTH",
"822 1122 OFFCURVE",
"695 1152 OFFCURVE",
"541 1152 CURVE SMOOTH",
"222 1152 LINE",
"222 0 LINE"
);
},
{
closed = 1;
nodes = (
"370 1048 LINE",
"496 1048 LINE SMOOTH",
"641 1048 OFFCURVE",
"742 1019 OFFCURVE",
"805 948 CURVE SMOOTH",
"880 862 OFFCURVE",
"897 721 OFFCURVE",
"897 576 CURVE SMOOTH",
"897 431 OFFCURVE",
"880 290 OFFCURVE",
"805 204 CURVE SMOOTH",
"742 133 OFFCURVE",
"641 104 OFFCURVE",
"496 104 CURVE SMOOTH",
"370 104 LINE"
);
}
);
};
layerId = "4CECAF9F-8433-4C1D-B398-9C9ECB761FA2";
paths = (
{
closed = 1;
nodes = (
"457 0 LINE SMOOTH",
"890 0 OFFCURVE",
"1124 223 OFFCURVE",
"1124 578 CURVE SMOOTH",
"1124 919 OFFCURVE",
"905 1152 OFFCURVE",
"471 1152 CURVE SMOOTH",
"200 1152 LINE",
"200 0 LINE"
);
},
{
closed = 1;
nodes = (
"232 1122 LINE",
"457 1122 LINE SMOOTH",
"880 1122 OFFCURVE",
"1090 915 OFFCURVE",
"1090 576 CURVE SMOOTH",
"1090 244 OFFCURVE",
"870 30 OFFCURVE",
"452 30 CURVE SMOOTH",
"232 30 LINE"
);
}
);
width = 1284;
},
{
anchors = (
{
name = bottom;
position = "{631, 0}";
},
{
name = center;
position = "{364, 500}";
},
{
name = top;
position = "{631, 1152}";
}
);
layerId = "E81C9CF6-C278-46EE-B3DD-D93820CD8949";
paths = (
{
closed = 1;
nodes = (
"491 0 LINE SMOOTH",
"928 0 OFFCURVE",
"1144 221 OFFCURVE",
"1144 576 CURVE SMOOTH",
"1144 917 OFFCURVE",
"943 1152 OFFCURVE",
"505 1152 CURVE SMOOTH",
"50 1152 LINE",
"50 0 LINE"
);
},
{
closed = 1;
nodes = (
"434 802 LINE",
"483 802 LINE SMOOTH",
"669 802 OFFCURVE",
"760 718 OFFCURVE",
"760 577 CURVE SMOOTH",
"760 438 OFFCURVE",
"665 350 OFFCURVE",
"481 350 CURVE SMOOTH",
"434 350 LINE"
);
}
);
width = 1174;
},
{
anchors = (
{
name = bottom;
position = "{605, 0}";
},
{
name = center;
position = "{365, 456}";
},
{
name = top;
position = "{605, 1152}";
}
);
background = {
paths = (
{
closed = 1;
nodes = (
"541 0 LINE SMOOTH",
"695 0 OFFCURVE",
"822 30 OFFCURVE",
"909 111 CURVE SMOOTH",
"1020 213 OFFCURVE",
"1059 391 OFFCURVE",
"1059 576 CURVE SMOOTH",
"1059 761 OFFCURVE",
"1020 939 OFFCURVE",
"909 1041 CURVE SMOOTH",
"822 1122 OFFCURVE",
"695 1152 OFFCURVE",
"541 1152 CURVE SMOOTH",
"222 1152 LINE",
"222 0 LINE"
);
},
{
closed = 1;
nodes = (
"370 1048 LINE",
"496 1048 LINE SMOOTH",
"641 1048 OFFCURVE",
"742 1019 OFFCURVE",
"805 948 CURVE SMOOTH",
"880 862 OFFCURVE",
"897 721 OFFCURVE",
"897 576 CURVE SMOOTH",
"897 431 OFFCURVE",
"880 290 OFFCURVE",
"805 204 CURVE SMOOTH",
"742 133 OFFCURVE",
"641 104 OFFCURVE",
"496 104 CURVE SMOOTH",
"370 104 LINE"
);
}
);
};
layerId = "07CFD988-7AB2-42E7-A00D-A2450F106178";
paths = (
{
closed = 1;
nodes = (
"457 0 LINE SMOOTH",
"890 0 OFFCURVE",
"1124 223 OFFCURVE",
"1124 578 CURVE SMOOTH",
"1124 919 OFFCURVE",
"905 1152 OFFCURVE",
"471 1152 CURVE SMOOTH",
"200 1152 LINE",
"200 0 LINE"
);
},
{
closed = 1;
nodes = (
"232 1122 LINE",
"457 1122 LINE SMOOTH",
"880 1122 OFFCURVE",
"1090 915 OFFCURVE",
"1090 576 CURVE SMOOTH",
"1090 244 OFFCURVE",
"870 30 OFFCURVE",
"452 30 CURVE SMOOTH",
"232 30 LINE"
);
}
);
width = 1284;
},
{
anchors = (
{
name = bottom;
position = "{529, 0}";
},
{
name = center;
position = "{289, 456}";
},
{
name = top;
position = "{529, 1152}";
}
);
background = {
paths = (
{
closed = 1;
nodes = (
"465 0 LINE SMOOTH",
"619 0 OFFCURVE",
"746 30 OFFCURVE",
"833 111 CURVE SMOOTH",
"944 213 OFFCURVE",
"983 391 OFFCURVE",
"983 576 CURVE SMOOTH",
"983 761 OFFCURVE",
"944 939 OFFCURVE",
"833 1041 CURVE SMOOTH",
"746 1122 OFFCURVE",
"619 1152 OFFCURVE",
"465 1152 CURVE SMOOTH",
"146 1152 LINE",
"146 0 LINE"
);
},
{
closed = 1;
nodes = (
"294 1048 LINE",
"420 1048 LINE SMOOTH",
"565 1048 OFFCURVE",
"666 1019 OFFCURVE",
"729 948 CURVE SMOOTH",
"804 862 OFFCURVE",
"821 721 OFFCURVE",
"821 576 CURVE SMOOTH",
"821 431 OFFCURVE",
"804 290 OFFCURVE",
"729 204 CURVE SMOOTH",
"666 133 OFFCURVE",
"565 104 OFFCURVE",
"420 104 CURVE SMOOTH",
"294 104 LINE"
);
}
);
};
layerId = "8F4C15E6-FE25-4FE1-BA9A-20FEE9FEA92B";
paths = (
{
closed = 1;
nodes = (
"160 -20 LINE SMOOTH",
"583 -20 OFFCURVE",
"873 200 OFFCURVE",
"894 585 CURVE SMOOTH",
"911 896 OFFCURVE",
"738 1168 OFFCURVE",
"214 1154 CURVE SMOOTH",
"154 1152 LINE",
"94 -20 LINE"
);
},
{
closed = 1;
nodes = (
"290 1078 LINE",
"229 1022 LINE",
"584 1036 OFFCURVE",
"763 893 OFFCURVE",
"746 590 CURVE SMOOTH",
"729 287 OFFCURVE",
"521 116 OFFCURVE",
"168 116 CURVE",
"235 0 LINE"
);
}
);
width = 930;
},
{
anchors = (
{
name = bottom;
position = "{538, 0}";
},
{
name = center;
position = "{271, 500}";
},
{
name = top;
position = "{538, 1152}";
}
);
layerId = "59F31D40-6FCC-412D-85D2-AC9268FECF70";
paths = (
{
closed = 1;
nodes = (
"148 -36 LINE SMOOTH",
"635 -6 OFFCURVE",
"978 210 OFFCURVE",
"1002 595 CURVE SMOOTH",
"1021 906 OFFCURVE",
"824 1182 OFFCURVE",
"220 1164 CURVE SMOOTH",
"152 1162 LINE",
"82 -40 LINE"
);
},
{
closed = 1;
nodes = (
"378 1088 LINE",
"227 924 LINE",
"582 945 OFFCURVE",
"769 834 OFFCURVE",
"752 597 CURVE SMOOTH",
"735 360 OFFCURVE",
"509 230 OFFCURVE",
"156 200 CURVE",
"313 -20 LINE"
);
}
);
width = 1050;
},
{
anchors = (
{
name = bottom;
position = "{469, 0}";
},
{
name = center;
position = "{229, 456}";
},
{
name = top;
position = "{469, 1152}";
}
);
background = {
paths = (
{
closed = 1;
nodes = (
"405 0 LINE SMOOTH",
"559 0 OFFCURVE",
"686 30 OFFCURVE",
"773 111 CURVE SMOOTH",
"884 213 OFFCURVE",
"923 391 OFFCURVE",
"923 576 CURVE SMOOTH",
"923 761 OFFCURVE",
"884 939 OFFCURVE",
"773 1041 CURVE SMOOTH",
"686 1122 OFFCURVE",
"559 1152 OFFCURVE",
"405 1152 CURVE SMOOTH",
"86 1152 LINE",
"86 0 LINE"
);
},
{
closed = 1;
nodes = (
"234 1048 LINE",
"360 1048 LINE SMOOTH",
"505 1048 OFFCURVE",
"606 1019 OFFCURVE",
"669 948 CURVE SMOOTH",
"744 862 OFFCURVE",
"761 721 OFFCURVE",
"761 576 CURVE SMOOTH",
"761 431 OFFCURVE",
"744 290 OFFCURVE",
"669 204 CURVE SMOOTH",
"606 133 OFFCURVE",
"505 104 OFFCURVE",
"360 104 CURVE SMOOTH",
"234 104 LINE"
);
}
);
};
layerId = "A3C9B703-72F4-4F0D-9958-30991330B555";
paths = (
{
closed = 1;
nodes = (
"180 -20 LINE SMOOTH",
"633 -20 OFFCURVE",
"893 200 OFFCURVE",
"914 585 CURVE SMOOTH",
"931 896 OFFCURVE",
"758 1170 OFFCURVE",
"224 1153 CURVE SMOOTH",
"204 1152 LINE",
"144 -20 LINE"
);
},
{
closed = 1;
nodes = (
"231 1152 LINE",
"209 1124 LINE",
"738 1146 OFFCURVE",
"897 876 OFFCURVE",
"881 585 CURVE SMOOTH",
"860 211 OFFCURVE",
"623 10 OFFCURVE",
"164 7 CURVE",
"175 0 LINE"
);
}
);
width = 1020;
}
);
leftMetricsKey = H;
rightMetricsKey = O;
unicode = 0044;
},
{
glyphname = E;
lastChange = "2018-11-29 23:47:25 +0000";
layers = (
{
anchors = (
{
name = bottom;
position = "{445, 0}";
},
{
name = ogonek;
position = "{807, 0}";
},
{
name = top;
position = "{445, 1152}";
},
{
name = topleft;
position = "{12, 1152}";
}
);
background = {
paths = (
{
closed = 1;
nodes = (
"365 636 LINE",
"275 636 LINE",
"275 24 LINE",
"365 24 LINE"
);
},
{
closed = 1;
nodes = (
"620 620 LINE",
"675 660 LINE",
"207 660 LINE",
"207 620 LINE"
);
},
{
closed = 1;
nodes = (
"675 0 LINE",
"675 40 LINE",
"207 40 LINE",
"207 0 LINE"
);
},
{
closed = 1;
nodes = (
"555 365 LINE",
"355 365 LINE",
"355 325 LINE",
"555 325 LINE"
);
},
{
closed = 1;
nodes = (
"543 335 LINE",
"550 271 LINE",
"590 271 LINE",
"590 419 LINE",
"550 419 LINE",
"543 355 LINE"
);
},
{
closed = 1;
nodes = (
"685 157 LINE",
"651 160 LINE",
"617 40 LINE",
"675 0 LINE"
);
},
{
closed = 1;
nodes = (
"614 620 LINE",
"624 500 LINE",
"660 500 LINE",
"675 660 LINE"
);
}
);
};
layerId = "B520048A-B5B0-4F8C-90F0-FFAF6C62D524";
paths = (
{
closed = 1;
nodes = (
"144 1152 LINE",
"144 0 LINE",
"818 0 LINE",
"818 130 LINE",
"284 130 LINE",
"284 543 LINE",
"706 543 LINE",
"706 670 LINE",
"284 670 LINE",
"284 1025 LINE",
"739 1025 LINE",
"739 1152 LINE"
);
}
);
width = 908;
},
{
anchors = (
{
name = bottom;
position = "{435, 0}";
},
{
name = ogonek;
position = "{804, 10}";
},
{
name = top;
position = "{435, 1152}";
},
{
name = topleft;
position = "{6, 1152}";
}
);
background = {
paths = (
{
closed = 1;
nodes = (
"168 636 LINE",
"78 636 LINE",
"78 24 LINE",
"168 24 LINE"
);
},
{
closed = 1;
nodes = (
"423 620 LINE",
"478 660 LINE",
"10 660 LINE",
"10 620 LINE"
);
},
{
closed = 1;
nodes = (
"478 0 LINE",
"478 40 LINE",
"10 40 LINE",
"10 0 LINE"
);
},
{
closed = 1;
nodes = (
"358 365 LINE",
"158 365 LINE",
"158 325 LINE",
"358 325 LINE"
);
},
{
closed = 1;
nodes = (
"346 335 LINE",
"353 271 LINE",
"393 271 LINE",
"393 419 LINE",
"353 419 LINE",
"346 355 LINE"
);
},
{
closed = 1;
nodes = (
"488 157 LINE",
"454 160 LINE",
"420 40 LINE",
"478 0 LINE"
);
},
{
closed = 1;
nodes = (
"417 620 LINE",
"427 500 LINE",
"463 500 LINE",
"478 660 LINE"
);
}
);
};
layerId = "21D66A2E-3203-408D-B482-78BB09110413";
paths = (
{
closed = 1;
nodes = (
"80 1152 LINE",
"80 0 LINE",
"804 0 LINE",
"804 210 LINE",
"300 210 LINE",
"300 473 LINE",
"774 473 LINE",
"774 680 LINE",
"300 680 LINE",
"300 945 LINE",
"774 945 LINE",
"774 1152 LINE"
);
}
);
width = 854;
},
{
anchors = (
{
name = bottom;
position = "{501, 0}";
},
{
name = ogonek;
position = "{873, 10}";
},
{
name = top;
position = "{501, 1152}";
},
{
name = topleft;
position = "{68, 1152}";
}
);
background = {
paths = (
{
closed = 1;
nodes = (
"421 636 LINE",
"331 636 LINE",
"331 24 LINE",
"421 24 LINE"
);
},
{
closed = 1;
nodes = (
"676 620 LINE",
"731 660 LINE",
"263 660 LINE",
"263 620 LINE"
);
},
{
closed = 1;
nodes = (
"731 0 LINE",
"731 40 LINE",
"263 40 LINE",
"263 0 LINE"
);
},
{
closed = 1;
nodes = (
"611 365 LINE",
"411 365 LINE",
"411 325 LINE",
"611 325 LINE"
);
},
{
closed = 1;
nodes = (
"599 335 LINE",
"606 271 LINE",
"646 271 LINE",
"646 419 LINE",
"606 419 LINE",
"599 355 LINE"
);
},
{
closed = 1;
nodes = (
"741 157 LINE",
"707 160 LINE",
"673 40 LINE",
"731 0 LINE"
);
},
{
closed = 1;
nodes = (
"670 620 LINE",
"680 500 LINE",
"716 500 LINE",
"731 660 LINE"
);
}
);
};
layerId = "4CECAF9F-8433-4C1D-B398-9C9ECB761FA2";
paths = (
{
closed = 1;
nodes = (
"200 1152 LINE",
"200 0 LINE",
"874 0 LINE",
"874 30 LINE",
"232 30 LINE",
"232 592 LINE",
"762 592 LINE",
"762 622 LINE",
"232 622 LINE",
"232 1122 LINE",
"795 1122 LINE",
"795 1152 LINE"
);
}
);
width = 1004;
},
{
anchors = (
{
name = bottom;
position = "{505, 0}";
},
{
name = ogonek;
position = "{874, 10}";
},
{
name = top;
position = "{505, 1152}";
},
{
name = topleft;
position = "{76, 1152}";
}
);
background = {
paths = (
{
closed = 1;
nodes = (
"238 636 LINE",
"148 636 LINE",
"148 24 LINE",
"238 24 LINE"
);
},
{
closed = 1;
nodes = (
"493 620 LINE",
"548 660 LINE",
"80 660 LINE",
"80 620 LINE"
);
},
{
closed = 1;
nodes = (
"548 0 LINE",
"548 40 LINE",
"80 40 LINE",
"80 0 LINE"
);
},
{
closed = 1;
nodes = (
"428 365 LINE",
"228 365 LINE",
"228 325 LINE",
"428 325 LINE"
);
},
{
closed = 1;
nodes = (
"416 335 LINE",
"423 271 LINE",
"463 271 LINE",
"463 419 LINE",
"423 419 LINE",
"416 355 LINE"
);
},
{
closed = 1;
nodes = (
"558 157 LINE",
"524 160 LINE",
"490 40 LINE",
"548 0 LINE"
);
},
{
closed = 1;
nodes = (
"487 620 LINE",
"497 500 LINE",
"533 500 LINE",
"548 660 LINE"
);
}
);
};
layerId = "E81C9CF6-C278-46EE-B3DD-D93820CD8949";
paths = (
{
closed = 1;
nodes = (
"50 1152 LINE",
"50 0 LINE",
"874 0 LINE",
"874 350 LINE",
"434 350 LINE",
"434 440 LINE",
"854 440 LINE",
"854 715 LINE",
"434 715 LINE",
"434 805 LINE",
"854 805 LINE",
"854 1152 LINE"
);
}
);
width = 914;
},
{
anchors = (
{
name = bottom;
position = "{501, 0}";
},
{
name = ogonek;
position = "{873, 10}";
},
{
name = top;
position = "{501, 1152}";
},
{
name = topleft;
position = "{68, 1152}";
}
);
background = {
paths = (
{
closed = 1;
nodes = (
"421 636 LINE",
"331 636 LINE",
"331 24 LINE",
"421 24 LINE"
);
},
{
closed = 1;
nodes = (
"676 620 LINE",
"731 660 LINE",
"263 660 LINE",
"263 620 LINE"
);
},
{
closed = 1;
nodes = (
"731 0 LINE",
"731 40 LINE",
"263 40 LINE",
"263 0 LINE"
);
},
{
closed = 1;
nodes = (
"611 365 LINE",
"411 365 LINE",
"411 325 LINE",
"611 325 LINE"
);
},
{
closed = 1;
nodes = (
"599 335 LINE",
"606 271 LINE",
"646 271 LINE",
"646 419 LINE",
"606 419 LINE",
"599 355 LINE"
);
},
{
closed = 1;
nodes = (
"741 157 LINE",
"707 160 LINE",
"673 40 LINE",
"731 0 LINE"
);
},
{
closed = 1;
nodes = (
"670 620 LINE",
"680 500 LINE",
"716 500 LINE",
"731 660 LINE"
);
}
);
};
layerId = "07CFD988-7AB2-42E7-A00D-A2450F106178";
paths = (
{
closed = 1;
nodes = (
"200 1152 LINE",
"200 0 LINE",
"874 0 LINE",
"874 30 LINE",
"232 30 LINE",
"232 592 LINE",
"762 592 LINE",
"762 622 LINE",
"232 622 LINE",
"232 1122 LINE",
"795 1122 LINE",
"795 1152 LINE"
);
}
);
width = 1004;
},
{
anchors = (
{
name = bottom;
position = "{309, 0}";
},
{
name = ogonek;
position = "{671, 0}";
},
{
name = top;
position = "{349, 1152}";
},
{
name = topleft;
position = "{-84, 1152}";
}
);
background = {
paths = (
{
closed = 1;
nodes = (
"230 103 OFFCURVE",
"121 144 OFFCURVE",
"132 276 CURVE SMOOTH",
"145 430 OFFCURVE",
"315 512 OFFCURVE",
"452 532 CURVE SMOOTH",
"611 555 LINE",
"611 675 LINE",
"460 655 LINE SMOOTH",
"286 632 OFFCURVE",
"195 742 OFFCURVE",
"205 867 CURVE SMOOTH",
"215 995 OFFCURVE",
"325 1054 OFFCURVE",
"468 1054 CURVE SMOOTH",
"576 1054 OFFCURVE",
"651 1020 OFFCURVE",
"704 972 CURVE",
"788 1077 LINE",
"713 1145 OFFCURVE",
"595 1178 OFFCURVE",
"476 1178 CURVE SMOOTH",
"257 1178 OFFCURVE",
"95 1064 OFFCURVE",
"74 867 CURVE SMOOTH",
"60 735 OFFCURVE",
"111 592 OFFCURVE",
"297 558 CURVE",
"295 609 LINE",
"110 546 OFFCURVE",
"14 436 OFFCURVE",
"2 272 CURVE SMOOTH",
"-13 64 OFFCURVE",
"122 -27 OFFCURVE",
"313 -27 CURVE SMOOTH",
"494 -27 OFFCURVE",
"684 53 OFFCURVE",
"749 220 CURVE",
"665 329 LINE",
"613 193 OFFCURVE",
"504 103 OFFCURVE",
"343 103 CURVE SMOOTH"
);
}
);
};
layerId = "8F4C15E6-FE25-4FE1-BA9A-20FEE9FEA92B";
paths = (
{
closed = 1;
nodes = (
"236 543 LINE",
"683 543 LINE",
"683 670 LINE",
"245 670 LINE"
);
},
{
closed = 1;
nodes = (
"294 1152 LINE",
"227 1025 LINE",
"755 1025 LINE",
"755 1152 LINE",
"154 1152 LINE",
"74 0 LINE",
"683 0 LINE",
"683 130 LINE",
"165 130 LINE",
"214 0 LINE"
);
}
);
width = 810;
},
{
anchors = (
{
name = bottom;
position = "{522, 0}";
},
{
name = ogonek;
position = "{891, 10}";
},
{
name = top;
position = "{522, 1152}";
},
{
name = topleft;
position = "{93, 1152}";
}
);
background = {
paths = (
{
closed = 1;
nodes = (
"255 636 LINE",
"165 636 LINE",
"165 24 LINE",
"255 24 LINE"
);
},
{
closed = 1;
nodes = (
"510 620 LINE",
"565 660 LINE",
"97 660 LINE",
"97 620 LINE"
);
},
{
closed = 1;
nodes = (
"565 0 LINE",
"565 40 LINE",
"97 40 LINE",
"97 0 LINE"
);
},
{
closed = 1;
nodes = (
"445 365 LINE",
"245 365 LINE",
"245 325 LINE",
"445 325 LINE"
);
},
{
closed = 1;
nodes = (
"433 335 LINE",
"440 271 LINE",
"480 271 LINE",
"480 419 LINE",
"440 419 LINE",
"433 355 LINE"
);
},
{
closed = 1;
nodes = (
"575 157 LINE",
"541 160 LINE",
"507 40 LINE",
"565 0 LINE"
);
},
{
closed = 1;
nodes = (
"504 620 LINE",
"514 500 LINE",
"550 500 LINE",
"565 660 LINE"
);
}
);
};
layerId = "59F31D40-6FCC-412D-85D2-AC9268FECF70";
paths = (
{
closed = 1;
nodes = (
"313 502 LINE",
"791 502 LINE",
"791 712 LINE",
"322 712 LINE"
);
},
{
closed = 1;
nodes = (
"371 1152 LINE",
"304 945 LINE",
"857 945 LINE",
"857 1152 LINE",
"141 1152 LINE",
"61 0 LINE",
"791 0 LINE",
"791 210 LINE",
"242 210 LINE",
"291 0 LINE"
);
}
);
width = 890;
},
{
anchors = (
{
name = bottom;
position = "{359, 0}";
},
{
name = ogonek;
position = "{721, 0}";
},
{
name = top;
position = "{399, 1152}";
},
{
name = topleft;
position = "{-34, 1152}";
}
);
background = {
paths = (
{
closed = 1;
nodes = (
"280 103 OFFCURVE",
"171 144 OFFCURVE",
"182 276 CURVE SMOOTH",
"195 430 OFFCURVE",
"365 512 OFFCURVE",
"502 532 CURVE SMOOTH",
"661 555 LINE",
"661 675 LINE",
"510 655 LINE SMOOTH",
"336 632 OFFCURVE",
"245 742 OFFCURVE",
"255 867 CURVE SMOOTH",
"265 995 OFFCURVE",
"375 1054 OFFCURVE",
"518 1054 CURVE SMOOTH",
"626 1054 OFFCURVE",
"701 1020 OFFCURVE",
"754 972 CURVE",
"838 1077 LINE",
"763 1145 OFFCURVE",
"645 1178 OFFCURVE",
"526 1178 CURVE SMOOTH",
"307 1178 OFFCURVE",
"145 1064 OFFCURVE",
"124 867 CURVE SMOOTH",
"110 735 OFFCURVE",
"161 592 OFFCURVE",
"347 558 CURVE",
"345 609 LINE",
"160 546 OFFCURVE",
"64 436 OFFCURVE",
"52 272 CURVE SMOOTH",
"37 64 OFFCURVE",
"172 -27 OFFCURVE",
"363 -27 CURVE SMOOTH",
"544 -27 OFFCURVE",
"734 53 OFFCURVE",
"799 220 CURVE",
"715 329 LINE",
"663 193 OFFCURVE",
"554 103 OFFCURVE",
"393 103 CURVE SMOOTH"
);
}
);
};
layerId = "A3C9B703-72F4-4F0D-9958-30991330B555";
paths = (
{
closed = 1;
nodes = (
"186 593 LINE",
"733 593 LINE",
"733 620 LINE",
"195 620 LINE"
);
},
{
closed = 1;
nodes = (
"234 1152 LINE",
"207 1125 LINE",
"805 1125 LINE",
"805 1152 LINE",
"204 1152 LINE",
"124 0 LINE",
"733 0 LINE",
"733 28 LINE",
"135 28 LINE",
"164 0 LINE"
);
}
);
width = 880;
}
);
leftMetricsKey = H;
unicode = 0045;
},
{
glyphname = F;
lastChange = "2018-11-29 23:48:03 +0000";
layers = (
{
anchors = (
{
name = bottom;
position = "{401, 0}";
},
{
name = top;
position = "{401, 1152}";
}
);
background = {
paths = (
{
closed = 1;
nodes = (
"213 0 LINE",
"471 0 LINE",
"471 40 LINE",
"213 40 LINE"
);
},
{
closed = 1;
nodes = (
"671 660 LINE",
"213 660 LINE",
"213 620 LINE",
"666 620 LINE"
);
},
{
closed = 1;
nodes = (
"281 24 LINE",
"371 24 LINE",
"371 636 LINE",
"281 636 LINE"
);
},
{
closed = 1;
nodes = (
"550 320 LINE",
"557 256 LINE",
"597 256 LINE",
"597 404 LINE",
"557 404 LINE",
"550 340 LINE"
);
},
{
closed = 1;
nodes = (
"561 350 LINE",
"361 350 LINE",
"361 310 LINE",
"561 310 LINE"
);
},
{
closed = 1;
nodes = (
"610 620 LINE",
"620 500 LINE",
"656 500 LINE",
"671 660 LINE"
);
}
);
};
layerId = "B520048A-B5B0-4F8C-90F0-FFAF6C62D524";
paths = (
{
closed = 1;
nodes = (
"144 1152 LINE",
"144 0 LINE",
"284 0 LINE",
"284 511 LINE",
"745 511 LINE",
"745 641 LINE",
"284 641 LINE",
"284 1022 LINE",
"776 1022 LINE",
"776 1152 LINE"
);
}
);
width = 858;
},
{
anchors = (
{
name = bottom;
position = "{396, 0}";
},
{
name = top;
position = "{396, 1152}";
}
);
background = {
paths = (
{
closed = 1;
nodes = (
"-7 0 LINE",
"251 0 LINE",
"251 40 LINE",
"-7 40 LINE"
);
},
{
closed = 1;
nodes = (
"451 660 LINE",
"-7 660 LINE",
"-7 620 LINE",
"446 620 LINE"
);
},
{
closed = 1;
nodes = (
"61 24 LINE",
"151 24 LINE",
"151 636 LINE",
"61 636 LINE"
);
},
{
closed = 1;
nodes = (
"330 320 LINE",
"337 256 LINE",
"377 256 LINE",
"377 404 LINE",
"337 404 LINE",
"330 340 LINE"
);
},
{
closed = 1;
nodes = (
"341 350 LINE",
"141 350 LINE",
"141 310 LINE",
"341 310 LINE"
);
},
{
closed = 1;
nodes = (
"390 620 LINE",
"400 500 LINE",
"436 500 LINE",
"451 660 LINE"
);
}
);
};
layerId = "21D66A2E-3203-408D-B482-78BB09110413";
paths = (
{
closed = 1;
nodes = (
"80 1152 LINE",
"80 0 LINE",
"300 0 LINE",
"300 421 LINE",
"762 421 LINE",
"762 631 LINE",
"300 631 LINE",
"300 942 LINE",
"762 942 LINE",
"762 1152 LINE"
);
}
);
width = 812;
},
{
anchors = (
{
name = bottom;
position = "{457, 0}";
},
{
name = top;
position = "{457, 1152}";
}
);
background = {
paths = (
{
closed = 1;
nodes = (
"269 0 LINE",
"527 0 LINE",
"527 40 LINE",
"269 40 LINE"
);
},
{
closed = 1;
nodes = (
"727 660 LINE",
"269 660 LINE",
"269 620 LINE",
"722 620 LINE"
);
},
{
closed = 1;
nodes = (
"337 24 LINE",
"427 24 LINE",
"427 636 LINE",
"337 636 LINE"
);
},
{
closed = 1;
nodes = (
"606 320 LINE",
"613 256 LINE",
"653 256 LINE",
"653 404 LINE",
"613 404 LINE",
"606 340 LINE"
);
},
{
closed = 1;
nodes = (
"617 350 LINE",
"417 350 LINE",
"417 310 LINE",
"617 310 LINE"
);
},
{
closed = 1;
nodes = (
"666 620 LINE",
"676 500 LINE",
"712 500 LINE",
"727 660 LINE"
);
}
);
};
layerId = "4CECAF9F-8433-4C1D-B398-9C9ECB761FA2";
paths = (
{
closed = 1;
nodes = (
"200 1152 LINE",
"200 0 LINE",
"232 0 LINE",
"232 561 LINE",
"801 561 LINE",
"801 591 LINE",
"232 591 LINE",
"232 1122 LINE",
"832 1122 LINE",
"832 1152 LINE"
);
}
);
width = 912;
},
{
anchors = (
{
name = bottom;
position = "{430, 0}";
},
{
name = top;
position = "{430, 1152}";
}
);
background = {
paths = (
{
closed = 1;
nodes = (
"27 0 LINE",
"285 0 LINE",
"285 40 LINE",
"27 40 LINE"
);
},
{
closed = 1;
nodes = (
"485 660 LINE",
"27 660 LINE",
"27 620 LINE",
"480 620 LINE"
);
},
{
closed = 1;
nodes = (
"95 24 LINE",
"185 24 LINE",
"185 636 LINE",
"95 636 LINE"
);
},
{
closed = 1;
nodes = (
"364 320 LINE",
"371 256 LINE",
"411 256 LINE",
"411 404 LINE",
"371 404 LINE",
"364 340 LINE"
);
},
{
closed = 1;
nodes = (
"375 350 LINE",
"175 350 LINE",
"175 310 LINE",
"375 310 LINE"
);
},
{
closed = 1;
nodes = (
"424 620 LINE",
"434 500 LINE",
"470 500 LINE",
"485 660 LINE"
);
}
);
};
layerId = "E81C9CF6-C278-46EE-B3DD-D93820CD8949";
paths = (
{
closed = 1;
nodes = (
"50 1152 LINE",
"50 0 LINE",
"434 0 LINE",
"434 421 LINE",
"796 421 LINE",
"796 631 LINE",
"434 631 LINE",
"434 802 LINE",
"796 802 LINE",
"796 1152 LINE"
);
}
);
width = 846;
},
{
anchors = (
{
name = bottom;
position = "{457, 0}";
},
{
name = top;
position = "{457, 1152}";
}
);
background = {
paths = (
{
closed = 1;
nodes = (
"269 0 LINE",
"527 0 LINE",
"527 40 LINE",
"269 40 LINE"
);
},
{
closed = 1;
nodes = (
"727 660 LINE",
"269 660 LINE",
"269 620 LINE",
"722 620 LINE"
);
},
{
closed = 1;
nodes = (
"337 24 LINE",
"427 24 LINE",
"427 636 LINE",
"337 636 LINE"
);
},
{
closed = 1;
nodes = (
"606 320 LINE",
"613 256 LINE",
"653 256 LINE",
"653 404 LINE",
"613 404 LINE",
"606 340 LINE"
);
},
{
closed = 1;
nodes = (
"617 350 LINE",
"417 350 LINE",
"417 310 LINE",
"617 310 LINE"
);
},
{
closed = 1;
nodes = (
"666 620 LINE",
"676 500 LINE",
"712 500 LINE",
"727 660 LINE"
);
}
);
};
layerId = "07CFD988-7AB2-42E7-A00D-A2450F106178";
paths = (
{
closed = 1;
nodes = (
"200 1152 LINE",
"200 0 LINE",
"232 0 LINE",
"232 561 LINE",
"801 561 LINE",
"801 591 LINE",
"232 591 LINE",
"232 1122 LINE",
"832 1122 LINE",
"832 1152 LINE"
);
}
);
width = 912;
},
{
anchors = (
{
name = bottom;
position = "{371, 0}";
},
{
name = top;
position = "{371, 1152}";
}
);
layerId = "8F4C15E6-FE25-4FE1-BA9A-20FEE9FEA92B";
paths = (
{
closed = 1;
nodes = (
"233 511 LINE",
"688 511 LINE",
"688 641 LINE",
"243 641 LINE"
);
},
{
closed = 1;
nodes = (
"289 1080 LINE",
"227 1022 LINE",
"755 1022 LINE",
"755 1152 LINE",
"154 1152 LINE",
"74 0 LINE",
"214 0 LINE"
);
}
);
width = 730;
},
{
anchors = (
{
name = bottom;
position = "{396, 0}";
},
{
name = top;
position = "{396, 1152}";
}
);
background = {
paths = (
{
closed = 1;
nodes = (
"-7 0 LINE",
"251 0 LINE",
"251 40 LINE",
"-7 40 LINE"
);
},
{
closed = 1;
nodes = (
"451 660 LINE",
"-7 660 LINE",
"-7 620 LINE",
"446 620 LINE"
);
},
{
closed = 1;
nodes = (
"61 24 LINE",
"151 24 LINE",
"151 636 LINE",
"61 636 LINE"
);
},
{
closed = 1;
nodes = (
"330 320 LINE",
"337 256 LINE",
"377 256 LINE",
"377 404 LINE",
"337 404 LINE",
"330 340 LINE"
);
},
{
closed = 1;
nodes = (
"341 350 LINE",
"141 350 LINE",
"141 310 LINE",
"341 310 LINE"
);
},
{
closed = 1;
nodes = (
"390 620 LINE",
"400 500 LINE",
"436 500 LINE",
"451 660 LINE"
);
}
);
};
layerId = "59F31D40-6FCC-412D-85D2-AC9268FECF70";
paths = (
{
closed = 1;
nodes = (
"323 415 LINE",
"760 415 LINE",
"760 625 LINE",
"332 625 LINE"
);
},
{
closed = 1;
nodes = (
"381 1152 LINE",
"314 945 LINE",
"807 945 LINE",
"807 1152 LINE",
"151 1152 LINE",
"71 0 LINE",
"301 0 LINE"
);
}
);
width = 800;
},
{
anchors = (
{
name = bottom;
position = "{421, 0}";
},
{
name = top;
position = "{421, 1152}";
}
);
layerId = "A3C9B703-72F4-4F0D-9958-30991330B555";
paths = (
{
closed = 1;
nodes = (
"178 563 LINE",
"735 563 LINE",
"735 590 LINE",
"178 590 LINE"
);
},
{
closed = 1;
nodes = (
"229 1152 LINE",
"215 1122 LINE",
"802 1122 LINE",
"802 1152 LINE",
"204 1152 LINE",
"124 0 LINE",
"154 0 LINE"
);
}
);
width = 780;
}
);
leftMetricsKey = H;
unicode = 0046;
},
{
glyphname = G;
lastChange = "2018-11-30 01:20:21 +0000";
layers = (
{
anchors = (
{
name = bottom;
position = "{672, 0}";
},
{
name = top;
position = "{672, 1152}";
}
);
layerId = "B520048A-B5B0-4F8C-90F0-FFAF6C62D524";
paths = (
{
closed = 1;
nodes = (
"824 1036 OFFCURVE",
"953 995 OFFCURVE",
"1024 957 CURVE",
"1024 1107 LINE",
"951 1139 OFFCURVE",
"830 1170 OFFCURVE",
"697 1170 CURVE SMOOTH",
"324 1170 OFFCURVE",
"100 931 OFFCURVE",
"100 576 CURVE SMOOTH",
"100 235 OFFCURVE",
"309 -18 OFFCURVE",
"673 -18 CURVE SMOOTH",
"834 -18 OFFCURVE",
"991 31 OFFCURVE",
"1054 64 CURVE",
"1054 200 LINE",
"981 161 OFFCURVE",
"843 112 OFFCURVE",
"702 112 CURVE SMOOTH",
"425 112 OFFCURVE",
"254 297 OFFCURVE",
"254 573 CURVE SMOOTH",
"254 854 OFFCURVE",
"433 1036 OFFCURVE",
"698 1036 CURVE SMOOTH"
);
},
{
closed = 1;
nodes = (
"924 460 LINE",
"924 142 LINE",
"1054 142 LINE",
"1054 590 LINE",
"632 590 LINE",
"632 460 LINE"
);
}
);
width = 1198;
},
{
anchors = (
{
name = bottom;
position = "{607, 0}";
},
{
name = top;
position = "{607, 1152}";
}
);
layerId = "21D66A2E-3203-408D-B482-78BB09110413";
paths = (
{
closed = 1;
nodes = (
"805 950 OFFCURVE",
"952 923 OFFCURVE",
"1014 902 CURVE",
"1014 1107 LINE",
"947 1141 OFFCURVE",
"809 1170 OFFCURVE",
"674 1170 CURVE SMOOTH",
"286 1170 OFFCURVE",
"50 931 OFFCURVE",
"50 576 CURVE SMOOTH",
"50 235 OFFCURVE",
"271 -18 OFFCURVE",
"647 -18 CURVE SMOOTH",
"816 -18 OFFCURVE",
"981 32 OFFCURVE",
"1054 76 CURVE",
"1054 266 LINE",
"996 243 OFFCURVE",
"827 192 OFFCURVE",
"687 192 CURVE SMOOTH",
"449 192 OFFCURVE",
"278 345 OFFCURVE",
"278 574 CURVE SMOOTH",
"278 802 OFFCURVE",
"448 950 OFFCURVE",
"700 950 CURVE SMOOTH"
);
},
{
closed = 1;
nodes = (
"854 450 LINE",
"854 142 LINE",
"1054 142 LINE",
"1054 660 LINE",
"562 660 LINE",
"562 450 LINE"
);
}
);
width = 1134;
},
{
anchors = (
{
name = bottom;
position = "{712, 0}";
},
{
name = top;
position = "{712, 1152}";
}
);
layerId = "4CECAF9F-8433-4C1D-B398-9C9ECB761FA2";
paths = (
{
closed = 1;
nodes = (
"877 1140 OFFCURVE",
"1014 1099 OFFCURVE",
"1094 1049 CURVE",
"1094 1085 LINE",
"1021 1129 OFFCURVE",
"887 1170 OFFCURVE",
"737 1170 CURVE SMOOTH",
"374 1170 OFFCURVE",
"160 931 OFFCURVE",
"160 576 CURVE SMOOTH",
"160 235 OFFCURVE",
"359 -18 OFFCURVE",
"723 -18 CURVE SMOOTH",
"884 -18 OFFCURVE",
"1021 32 OFFCURVE",
"1094 76 CURVE",
"1094 110 LINE",
"1018 64 OFFCURVE",
"883 12 OFFCURVE",
"724 12 CURVE SMOOTH",
"395 12 OFFCURVE",
"194 247 OFFCURVE",
"194 576 CURVE SMOOTH",
"194 900 OFFCURVE",
"397 1140 OFFCURVE",
"735 1140 CURVE SMOOTH"
);
},
{
closed = 1;
nodes = (
"1062 560 LINE",
"1062 82 LINE",
"1094 82 LINE",
"1094 590 LINE",
"672 590 LINE",
"672 560 LINE"
);
}
);
width = 1294;
},
{
anchors = (
{
name = bottom;
position = "{623, 0}";
},
{
name = top;
position = "{623, 1152}";
}
);
layerId = "E81C9CF6-C278-46EE-B3DD-D93820CD8949";
paths = (
{
closed = 1;
nodes = (
"860 820 OFFCURVE",
"984 802 OFFCURVE",
"1036 788 CURVE",
"1036 1137 LINE",
"966 1151 OFFCURVE",
"846 1170 OFFCURVE",
"726 1170 CURVE SMOOTH",
"304 1170 OFFCURVE",
"30 931 OFFCURVE",
"30 576 CURVE SMOOTH",
"30 235 OFFCURVE",
"289 -18 OFFCURVE",
"678 -18 CURVE SMOOTH",
"853 -18 OFFCURVE",
"994 32 OFFCURVE",
"1070 76 CURVE",
"1070 341 LINE",
"1001 336 OFFCURVE",
"818 322 OFFCURVE",
"730 322 CURVE",
"499 322 OFFCURVE",
"414 432 OFFCURVE",
"414 562 CURVE SMOOTH",
"414 723 OFFCURVE",
"558 820 OFFCURVE",
"771 820 CURVE SMOOTH"
);
},
{
closed = 1;
nodes = (
"770 466 LINE",
"770 142 LINE",
"1070 142 LINE",
"1070 676 LINE",
"578 676 LINE",
"578 466 LINE"
);
}
);
width = 1120;
},
{
anchors = (
{
name = bottom;
position = "{712, 0}";
},
{
name = top;
position = "{712, 1152}";
}
);
layerId = "07CFD988-7AB2-42E7-A00D-A2450F106178";
paths = (
{
closed = 1;
nodes = (
"877 1140 OFFCURVE",
"1014 1099 OFFCURVE",
"1094 1049 CURVE",
"1094 1085 LINE",
"1021 1129 OFFCURVE",
"887 1170 OFFCURVE",
"737 1170 CURVE SMOOTH",
"374 1170 OFFCURVE",
"160 931 OFFCURVE",
"160 576 CURVE SMOOTH",
"160 235 OFFCURVE",
"359 -18 OFFCURVE",
"723 -18 CURVE SMOOTH",
"884 -18 OFFCURVE",
"1021 32 OFFCURVE",
"1094 76 CURVE",
"1094 110 LINE",
"1018 64 OFFCURVE",
"883 12 OFFCURVE",
"724 12 CURVE SMOOTH",
"395 12 OFFCURVE",
"194 247 OFFCURVE",
"194 576 CURVE SMOOTH",
"194 900 OFFCURVE",
"397 1140 OFFCURVE",
"735 1140 CURVE SMOOTH"
);
},
{
closed = 1;
nodes = (
"1062 560 LINE",
"1062 82 LINE",
"1094 82 LINE",
"1094 590 LINE",
"672 590 LINE",
"672 560 LINE"
);
}
);
width = 1294;
},
{
anchors = (
{
name = bottom;
position = "{730, 0}";
},
{
name = top;
position = "{730, 1152}";
}
);
layerId = "8F4C15E6-FE25-4FE1-BA9A-20FEE9FEA92B";
paths = (
{
closed = 1;
nodes = (
"700 -30 OFFCURVE",
"907 124 OFFCURVE",
"919 339 CURVE SMOOTH",
"925 434 OFFCURVE",
"891 527 OFFCURVE",
"744 520 CURVE",
"744 505 LINE",
"887 506 OFFCURVE",
"1011 542 OFFCURVE",
"1043 580 CURVE",
"1007 709 LINE",
"968 646 OFFCURVE",
"865 618 OFFCURVE",
"712 602 CURVE SMOOTH",
"569 587 OFFCURVE",
"463 590 OFFCURVE",
"367 561 CURVE",
"383 434 LINE",
"460 462 OFFCURVE",
"552 475 OFFCURVE",
"619 475 CURVE SMOOTH",
"721 475 OFFCURVE",
"805 444 OFFCURVE",
"800 345 CURVE SMOOTH",
"792 209 OFFCURVE",
"624 105 OFFCURVE",
"460 105 CURVE SMOOTH",
"250 105 OFFCURVE",
"174 280 OFFCURVE",
"188 500 CURVE SMOOTH",
"209 831 OFFCURVE",
"417 1035 OFFCURVE",
"641 1035 CURVE SMOOTH",
"767 1035 OFFCURVE",
"847 970 OFFCURVE",
"889 910 CURVE",
"954 1036 LINE",
"904 1112 OFFCURVE",
"792 1170 OFFCURVE",
"643 1170 CURVE SMOOTH",
"329 1170 OFFCURVE",
"84 921 OFFCURVE",
"58 503 CURVE SMOOTH",
"40 215 OFFCURVE",
"132 -30 OFFCURVE",
"451 -30 CURVE SMOOTH"
);
}
);
width = 1030;
},
{
anchors = (
{
name = bottom;
position = "{615, 0}";
},
{
name = top;
position = "{615, 1152}";
}
);
layerId = "59F31D40-6FCC-412D-85D2-AC9268FECF70";
paths = (
{
closed = 1;
nodes = (
"767 -30 OFFCURVE",
"967 124 OFFCURVE",
"980 339 CURVE SMOOTH",
"987 464 OFFCURVE",
"920 567 OFFCURVE",
"764 560 CURVE",
"764 505 LINE",
"916 506 OFFCURVE",
"1077 542 OFFCURVE",
"1111 580 CURVE",
"1073 792 LINE",
"1032 729 OFFCURVE",
"897 701 OFFCURVE",
"735 685 CURVE SMOOTH",
"603 670 OFFCURVE",
"506 673 OFFCURVE",
"418 644 CURVE",
"432 434 LINE",
"492 462 OFFCURVE",
"564 475 OFFCURVE",
"616 475 CURVE SMOOTH",
"695 475 OFFCURVE",
"774 447 OFFCURVE",
"770 350 CURVE SMOOTH",
"767 273 OFFCURVE",
"713 180 OFFCURVE",
"546 180 CURVE SMOOTH",
"343 180 OFFCURVE",
"273 317 OFFCURVE",
"286 511 CURVE SMOOTH",
"305 789 OFFCURVE",
"481 960 OFFCURVE",
"679 960 CURVE SMOOTH",
"790 960 OFFCURVE",
"861 905 OFFCURVE",
"898 855 CURVE",
"1017 1036 LINE",
"964 1112 OFFCURVE",
"865 1170 OFFCURVE",
"707 1170 CURVE SMOOTH",
"374 1170 OFFCURVE",
"94 921 OFFCURVE",
"66 503 CURVE SMOOTH",
"47 215 OFFCURVE",
"166 -30 OFFCURVE",
"504 -30 CURVE SMOOTH"
);
}
);
width = 1100;
},
{
anchors = (
{
name = bottom;
position = "{730, 0}";
},
{
name = top;
position = "{730, 1152}";
}
);
layerId = "A3C9B703-72F4-4F0D-9958-30991330B555";
paths = (
{
closed = 1;
nodes = (
"700 -30 OFFCURVE",
"909 124 OFFCURVE",
"919 325 CURVE SMOOTH",
"925 441 OFFCURVE",
"862 506 OFFCURVE",
"619 495 CURVE",
"619 477 LINE",
"872 490 OFFCURVE",
"991 522 OFFCURVE",
"1033 590 CURVE",
"1017 616 LINE",
"978 553 OFFCURVE",
"875 525 OFFCURVE",
"722 509 CURVE SMOOTH",
"579 494 OFFCURVE",
"473 497 OFFCURVE",
"377 466 CURVE",
"383 434 LINE",
"469 465 OFFCURVE",
"552 471 OFFCURVE",
"619 475 CURVE SMOOTH",
"823 487 OFFCURVE",
"889 420 OFFCURVE",
"889 323 CURVE SMOOTH",
"889 152 OFFCURVE",
"681 -3 OFFCURVE",
"451 -3 CURVE SMOOTH",
"170 -3 OFFCURVE",
"72 247 OFFCURVE",
"88 503 CURVE SMOOTH",
"113 891 OFFCURVE",
"351 1143 OFFCURVE",
"643 1143 CURVE SMOOTH",
"769 1143 OFFCURVE",
"882 1088 OFFCURVE",
"924 1016 CURVE",
"954 1036 LINE",
"904 1112 OFFCURVE",
"792 1170 OFFCURVE",
"643 1170 CURVE SMOOTH",
"329 1170 OFFCURVE",
"84 921 OFFCURVE",
"58 503 CURVE SMOOTH",
"40 215 OFFCURVE",
"132 -30 OFFCURVE",
"451 -30 CURVE SMOOTH"
);
}
);
width = 1030;
}
);
leftKerningGroup = O;
leftMetricsKey = O;
unicode = 0047;
},
{
glyphname = H;
lastChange = "2018-11-29 23:27:37 +0000";
layers = (
{
anchors = (
{
name = bottom;
position = "{611, 0}";
},
{
name = center;
position = "{611, 876}";
},
{
name = top;
position = "{611, 1152}";
},
{
name = topleft;
position = "{46, 1152}";
}
);
layerId = "B520048A-B5B0-4F8C-90F0-FFAF6C62D524";
paths = (
{
closed = 1;
nodes = (
"284 0 LINE",
"284 511 LINE",
"938 511 LINE",
"938 0 LINE",
"1078 0 LINE",
"1078 1152 LINE",
"938 1152 LINE",
"938 641 LINE",
"284 641 LINE",
"284 1152 LINE",
"144 1152 LINE",
"144 0 LINE"
);
}
);
width = 1222;
},
{
anchors = (
{
name = bottom;
position = "{597, 0}";
},
{
name = center;
position = "{597, 876}";
},
{
name = top;
position = "{597, 1152}";
},
{
name = topleft;
position = "{-26, 1152}";
}
);
layerId = "21D66A2E-3203-408D-B482-78BB09110413";
paths = (
{
closed = 1;
nodes = (
"300 0 LINE",
"300 466 LINE",
"894 466 LINE",
"894 0 LINE",
"1114 0 LINE",
"1114 1152 LINE",
"894 1152 LINE",
"894 686 LINE",
"300 686 LINE",
"300 1152 LINE",
"80 1152 LINE",
"80 0 LINE"
);
}
);
width = 1194;
},
{
anchors = (
{
name = bottom;
position = "{663, 0}";
},
{
name = center;
position = "{663, 876}";
},
{
name = top;
position = "{663, 1152}";
},
{
name = topleft;
position = "{98, 1152}";
}
);
layerId = "4CECAF9F-8433-4C1D-B398-9C9ECB761FA2";
paths = (
{
closed = 1;
nodes = (
"232 0 LINE",
"232 561 LINE",
"1094 561 LINE",
"1094 0 LINE",
"1126 0 LINE",
"1126 1152 LINE",
"1094 1152 LINE",
"1094 591 LINE",
"232 591 LINE",
"232 1152 LINE",
"200 1152 LINE",
"200 0 LINE"
);
}
);
width = 1326;
},
{
anchors = (
{
name = bottom;
position = "{567, 0}";
},
{
name = center;
position = "{567, 876}";
},
{
name = top;
position = "{567, 1152}";
},
{
name = topleft;
position = "{-56, 1152}";
}
);
layerId = "E81C9CF6-C278-46EE-B3DD-D93820CD8949";
paths = (
{
closed = 1;
nodes = (
"434 0 LINE",
"434 401 LINE",
"684 401 LINE",
"684 0 LINE",
"1068 0 LINE",
"1068 1152 LINE",
"684 1152 LINE",
"684 751 LINE",
"434 751 LINE",
"434 1152 LINE",
"50 1152 LINE",
"50 0 LINE"
);
}
);
width = 1118;
},
{
anchors = (
{
name = bottom;
position = "{663, 0}";
},
{
name = center;
position = "{663, 876}";
},
{
name = top;
position = "{663, 1152}";
},
{
name = topleft;
position = "{98, 1152}";
}
);
layerId = "07CFD988-7AB2-42E7-A00D-A2450F106178";
paths = (
{
closed = 1;
nodes = (
"232 0 LINE",
"232 561 LINE",
"1094 561 LINE",
"1094 0 LINE",
"1126 0 LINE",
"1126 1152 LINE",
"1094 1152 LINE",
"1094 591 LINE",
"232 591 LINE",
"232 1152 LINE",
"200 1152 LINE",
"200 0 LINE"
);
}
);
width = 1326;
},
{
anchors = (
{
name = bottom;
position = "{496, 0}";
},
{
name = center;
position = "{496, 876}";
},
{
name = top;
position = "{496, 1152}";
},
{
name = topleft;
position = "{-69, 1152}";
}
);
background = {
paths = (
{
closed = 1;
nodes = (
"395 1165 LINE",
"353 1172 LINE SMOOTH",
"110 1212 OFFCURVE",
"-223 1192 OFFCURVE",
"-245 842 CURVE",
"-115 816 LINE",
"-145 1053 OFFCURVE",
"85 1069 OFFCURVE",
"195 1056 CURVE",
"195 1038 LINE",
"184 1031 LINE SMOOTH",
"97 979 OFFCURVE",
"100 870 OFFCURVE",
"89 563 CURVE SMOOTH",
"69 -3 LINE",
"199 -3 LINE",
"219 593 LINE SMOOTH",
"229 879 OFFCURVE",
"230 1044 OFFCURVE",
"395 1044 CURVE"
);
}
);
};
layerId = "8F4C15E6-FE25-4FE1-BA9A-20FEE9FEA92B";
paths = (
{
closed = 1;
nodes = (
"743 0 LINE",
"873 0 LINE",
"933 1152 LINE",
"803 1152 LINE"
);
},
{
closed = 1;
nodes = (
"787 646 LINE",
"183 646 LINE",
"176 526 LINE",
"780 526 LINE"
);
},
{
closed = 1;
nodes = (
"94 0 LINE",
"224 0 LINE",
"284 1152 LINE",
"154 1152 LINE"
);
}
);
width = 1000;
},
{
anchors = (
{
name = bottom;
position = "{597, 0}";
},
{
name = center;
position = "{597, 876}";
},
{
name = top;
position = "{597, 1152}";
},
{
name = topleft;
position = "{-26, 1152}";
}
);
layerId = "59F31D40-6FCC-412D-85D2-AC9268FECF70";
paths = (
{
closed = 1;
nodes = (
"751 0 LINE",
"981 0 LINE",
"1041 1152 LINE",
"811 1152 LINE"
);
},
{
closed = 1;
nodes = (
"892 691 LINE",
"267 691 LINE",
"267 481 LINE",
"892 481 LINE"
);
},
{
closed = 1;
nodes = (
"81 0 LINE",
"311 0 LINE",
"371 1152 LINE",
"141 1152 LINE"
);
}
);
width = 1100;
},
{
anchors = (
{
name = bottom;
position = "{546, 0}";
},
{
name = center;
position = "{546, 876}";
},
{
name = top;
position = "{546, 1152}";
},
{
name = topleft;
position = "{-19, 1152}";
}
);
background = {
paths = (
{
closed = 1;
nodes = (
"445 1165 LINE",
"403 1172 LINE SMOOTH",
"160 1212 OFFCURVE",
"-173 1192 OFFCURVE",
"-195 842 CURVE",
"-65 816 LINE",
"-95 1053 OFFCURVE",
"135 1069 OFFCURVE",
"245 1056 CURVE",
"245 1038 LINE",
"234 1031 LINE SMOOTH",
"147 979 OFFCURVE",
"150 870 OFFCURVE",
"139 563 CURVE SMOOTH",
"119 -3 LINE",
"249 -3 LINE",
"269 593 LINE SMOOTH",
"279 879 OFFCURVE",
"280 1044 OFFCURVE",
"445 1044 CURVE"
);
}
);
};
layerId = "A3C9B703-72F4-4F0D-9958-30991330B555";
paths = (
{
closed = 1;
nodes = (
"893 0 LINE",
"923 0 LINE",
"983 1152 LINE",
"953 1152 LINE"
);
},
{
closed = 1;
nodes = (
"937 600 LINE",
"190 600 LINE",
"190 573 LINE",
"930 573 LINE"
);
},
{
closed = 1;
nodes = (
"144 0 LINE",
"174 0 LINE",
"234 1152 LINE",
"204 1152 LINE"
);
}
);
width = 1100;
}
);
leftKerningGroup = H;
rightKerningGroup = H;
unicode = 0048;
},
{
glyphname = Hbar;
lastChange = "2019-03-05 22:33:28 +0000";
layers = (
{
layerId = "B520048A-B5B0-4F8C-90F0-FFAF6C62D524";
paths = (
{
closed = 1;
nodes = (
"144 0 LINE",
"284 0 LINE",
"284 381 LINE",
"938 381 LINE",
"938 0 LINE",
"1078 0 LINE",
"1078 1152 LINE",
"938 1152 LINE",
"938 821 LINE",
"284 821 LINE",
"284 1152 LINE",
"144 1152 LINE"
);
},
{
closed = 1;
nodes = (
"938 691 LINE",
"938 511 LINE",
"284 511 LINE",
"284 691 LINE"
);
}
);
width = 1222;
},
{
layerId = "21D66A2E-3203-408D-B482-78BB09110413";
paths = (
{
closed = 1;
nodes = (
"80 0 LINE",
"320 0 LINE",
"320 301 LINE",
"874 301 LINE",
"874 0 LINE",
"1114 0 LINE",
"1114 1152 LINE",
"874 1152 LINE",
"874 931 LINE",
"320 931 LINE",
"320 1152 LINE",
"80 1152 LINE"
);
},
{
closed = 1;
nodes = (
"874 701 LINE",
"874 531 LINE",
"320 531 LINE",
"320 701 LINE"
);
}
);
width = 1194;
},
{
layerId = "4CECAF9F-8433-4C1D-B398-9C9ECB761FA2";
paths = (
{
closed = 1;
nodes = (
"200 0 LINE",
"232 0 LINE",
"232 405 LINE",
"1094 405 LINE",
"1094 0 LINE",
"1126 0 LINE",
"1126 1152 LINE",
"1094 1152 LINE",
"1094 768 LINE",
"232 768 LINE",
"232 1152 LINE",
"200 1152 LINE"
);
},
{
closed = 1;
nodes = (
"1094 738 LINE",
"1094 435 LINE",
"232 435 LINE",
"232 738 LINE"
);
}
);
width = 1326;
},
{
layerId = "E81C9CF6-C278-46EE-B3DD-D93820CD8949";
paths = (
{
closed = 1;
nodes = (
"80 0 LINE",
"320 0 LINE",
"320 301 LINE",
"874 301 LINE",
"874 0 LINE",
"1114 0 LINE",
"1114 1152 LINE",
"874 1152 LINE",
"874 931 LINE",
"320 931 LINE",
"320 1152 LINE",
"80 1152 LINE"
);
},
{
closed = 1;
nodes = (
"874 701 LINE",
"874 531 LINE",
"320 531 LINE",
"320 701 LINE"
);
}
);
width = 1194;
},
{
layerId = "07CFD988-7AB2-42E7-A00D-A2450F106178";
paths = (
{
closed = 1;
nodes = (
"200 0 LINE",
"232 0 LINE",
"232 405 LINE",
"1094 405 LINE",
"1094 0 LINE",
"1126 0 LINE",
"1126 1152 LINE",
"1094 1152 LINE",
"1094 768 LINE",
"232 768 LINE",
"232 1152 LINE",
"200 1152 LINE"
);
},
{
closed = 1;
nodes = (
"1094 738 LINE",
"1094 435 LINE",
"232 435 LINE",
"232 738 LINE"
);
}
);
width = 1326;
},
{
layerId = "8F4C15E6-FE25-4FE1-BA9A-20FEE9FEA92B";
paths = (
{
closed = 1;
nodes = (
"144 0 LINE",
"284 0 LINE",
"284 381 LINE",
"938 381 LINE",
"938 0 LINE",
"1078 0 LINE",
"1078 1152 LINE",
"938 1152 LINE",
"938 821 LINE",
"284 821 LINE",
"284 1152 LINE",
"144 1152 LINE"
);
},
{
closed = 1;
nodes = (
"938 691 LINE",
"938 511 LINE",
"284 511 LINE",
"284 691 LINE"
);
}
);
width = 1222;
},
{
layerId = "59F31D40-6FCC-412D-85D2-AC9268FECF70";
paths = (
{
closed = 1;
nodes = (
"80 0 LINE",
"320 0 LINE",
"320 301 LINE",
"874 301 LINE",
"874 0 LINE",
"1114 0 LINE",
"1114 1152 LINE",
"874 1152 LINE",
"874 931 LINE",
"320 931 LINE",
"320 1152 LINE",
"80 1152 LINE"
);
},
{
closed = 1;
nodes = (
"874 701 LINE",
"874 531 LINE",
"320 531 LINE",
"320 701 LINE"
);
}
);
width = 1194;
},
{
layerId = "A3C9B703-72F4-4F0D-9958-30991330B555";
paths = (
{
closed = 1;
nodes = (
"893 0 LINE",
"923 0 LINE",
"983 1152 LINE",
"953 1152 LINE"
);
},
{
closed = 1;
nodes = (
"937 800 LINE",
"190 800 LINE",
"190 773 LINE",
"930 773 LINE"
);
},
{
closed = 1;
nodes = (
"144 0 LINE",
"174 0 LINE",
"234 1152 LINE",
"204 1152 LINE"
);
},
{
closed = 1;
nodes = (
"937 400 LINE",
"190 400 LINE",
"190 373 LINE",
"930 373 LINE"
);
}
);
width = 1222;
}
);
leftMetricsKey = H;
rightMetricsKey = H;
unicode = 0126;
},
{
glyphname = I;
lastChange = "2018-11-29 23:46:26 +0000";
layers = (
{
anchors = (
{
name = bottom;
position = "{216, 0}";
},
{
name = ogonek;
position = "{502, 0}";
},
{
name = top;
position = "{216, 1152}";
},
{
name = topleft;
position = "{-96, 1152}";
}
);
layerId = "B520048A-B5B0-4F8C-90F0-FFAF6C62D524";
paths = (
{
closed = 1;
nodes = (
"144 1152 LINE",
"144 0 LINE",
"284 0 LINE",
"284 1152 LINE"
);
}
);
width = 428;
},
{
anchors = (
{
name = bottom;
position = "{98, 0}";
},
{
name = ogonek;
position = "{383, 10}";
},
{
name = top;
position = "{190, 1152}";
},
{
name = topleft;
position = "{-238, 1152}";
}
);
layerId = "21D66A2E-3203-408D-B482-78BB09110413";
paths = (
{
closed = 1;
nodes = (
"80 1152 LINE",
"80 0 LINE",
"300 0 LINE",
"300 1152 LINE"
);
}
);
width = 380;
},
{
anchors = (
{
name = bottom;
position = "{218, 0}";
},
{
name = ogonek;
position = "{242, 0}";
},
{
name = top;
position = "{218, 1152}";
},
{
name = topleft;
position = "{-94, 1152}";
}
);
layerId = "4CECAF9F-8433-4C1D-B398-9C9ECB761FA2";
paths = (
{
closed = 1;
nodes = (
"200 1152 LINE",
"200 0 LINE",
"232 0 LINE",
"232 1152 LINE"
);
}
);
width = 432;
},
{
anchors = (
{
name = bottom;
position = "{232, 0}";
},
{
name = ogonek;
position = "{517, 10}";
},
{
name = top;
position = "{232, 1152}";
},
{
name = topleft;
position = "{-104, 1152}";
}
);
layerId = "E81C9CF6-C278-46EE-B3DD-D93820CD8949";
paths = (
{
closed = 1;
nodes = (
"50 1152 LINE",
"50 0 LINE",
"434 0 LINE",
"434 1152 LINE"
);
}
);
width = 484;
},
{
anchors = (
{
name = bottom;
position = "{218, 0}";
},
{
name = ogonek;
position = "{242, 0}";
},
{
name = top;
position = "{218, 1152}";
},
{
name = topleft;
position = "{-94, 1152}";
}
);
layerId = "07CFD988-7AB2-42E7-A00D-A2450F106178";
paths = (
{
closed = 1;
nodes = (
"200 1152 LINE",
"200 0 LINE",
"232 0 LINE",
"232 1152 LINE"
);
}
);
width = 432;
},
{
anchors = (
{
name = bottom;
position = "{215, 0}";
},
{
name = ogonek;
position = "{501, 0}";
},
{
name = top;
position = "{215, 1152}";
},
{
name = topleft;
position = "{-97, 1152}";
}
);
layerId = "8F4C15E6-FE25-4FE1-BA9A-20FEE9FEA92B";
paths = (
{
closed = 1;
nodes = (
"173 1152 LINE",
"113 0 LINE",
"253 0 LINE",
"313 1152 LINE"
);
}
);
width = 400;
},
{
anchors = (
{
name = bottom;
position = "{98, 0}";
},
{
name = ogonek;
position = "{383, 10}";
},
{
name = top;
position = "{190, 1152}";
},
{
name = topleft;
position = "{-238, 1152}";
}
);
layerId = "59F31D40-6FCC-412D-85D2-AC9268FECF70";
paths = (
{
closed = 1;
nodes = (
"151 1152 LINE",
"91 0 LINE",
"321 0 LINE",
"381 1152 LINE"
);
}
);
width = 450;
},
{
anchors = (
{
name = bottom;
position = "{245, 0}";
},
{
name = ogonek;
position = "{531, 0}";
},
{
name = top;
position = "{245, 1152}";
},
{
name = topleft;
position = "{-67, 1152}";
}
);
layerId = "A3C9B703-72F4-4F0D-9958-30991330B555";
paths = (
{
closed = 1;
nodes = (
"204 1152 LINE",
"143 0 LINE",
"173 0 LINE",
"234 1152 LINE"
);
}
);
width = 350;
}
);
leftKerningGroup = H;
leftMetricsKey = H;
rightKerningGroup = H;
rightMetricsKey = H;
unicode = 0049;
},
{
glyphname = J;
lastChange = "2020-11-21 19:39:35 +0000";
layers = (
{
anchors = (
{
name = bottom;
position = "{387, 0}";
},
{
name = top;
position = "{592, 1152}";
}
);
background = {
paths = (
{
closed = 1;
nodes = (
"358 636 LINE",
"358 201 LINE SMOOTH",
"358 46 OFFCURVE",
"313 12 OFFCURVE",
"220 16 CURVE",
"220 -34 LINE",
"339 -34 OFFCURVE",
"448 -21 OFFCURVE",
"448 185 CURVE SMOOTH",
"448 636 LINE"
);
},
{
closed = 1;
nodes = (
"526 620 LINE",
"526 660 LINE",
"270 660 LINE",
"270 620 LINE"
);
}
);
};
layerId = "B520048A-B5B0-4F8C-90F0-FFAF6C62D524";
paths = (
{
closed = 1;
nodes = (
"662 1152 LINE",
"522 1152 LINE",
"522 294 LINE SMOOTH",
"522 159 OFFCURVE",
"443 114 OFFCURVE",
"340 114 CURVE SMOOTH",
"237 114 OFFCURVE",
"147 158 OFFCURVE",
"72 205 CURVE",
"72 46 LINE",
"138 13 OFFCURVE",
"225 -20 OFFCURVE",
"334 -20 CURVE SMOOTH",
"519 -20 OFFCURVE",
"662 74 OFFCURVE",
"662 294 CURVE SMOOTH"
);
}
);
width = 806;
},
{
anchors = (
{
name = bottom;
position = "{442, 0}";
},
{
name = top;
position = "{582, 1152}";
}
);
background = {
paths = (
{
closed = 1;
nodes = (
"252 636 LINE",
"252 201 LINE SMOOTH",
"252 46 OFFCURVE",
"207 12 OFFCURVE",
"114 16 CURVE",
"114 -34 LINE",
"233 -34 OFFCURVE",
"342 -21 OFFCURVE",
"342 185 CURVE SMOOTH",
"342 636 LINE"
);
},
{
closed = 1;
nodes = (
"420 620 LINE",
"420 660 LINE",
"164 660 LINE",
"164 620 LINE"
);
}
);
};
layerId = "21D66A2E-3203-408D-B482-78BB09110413";
paths = (
{
closed = 1;
nodes = (
"702 1152 LINE",
"482 1152 LINE",
"482 381 LINE SMOOTH",
"482 260 OFFCURVE",
"427 204 OFFCURVE",
"329 204 CURVE SMOOTH",
"243 204 OFFCURVE",
"143 245 OFFCURVE",
"72 285 CURVE",
"72 36 LINE",
"145 3 OFFCURVE",
"260 -20 OFFCURVE",
"355 -20 CURVE SMOOTH",
"572 -20 OFFCURVE",
"702 98 OFFCURVE",
"702 340 CURVE SMOOTH"
);
}
);
width = 782;
},
{
anchors = (
{
name = bottom;
position = "{387, 0}";
},
{
name = top;
position = "{646, 1152}";
}
);
background = {
paths = (
{
closed = 1;
nodes = (
"358 636 LINE",
"358 201 LINE SMOOTH",
"358 46 OFFCURVE",
"313 12 OFFCURVE",
"220 16 CURVE",
"220 -34 LINE",
"339 -34 OFFCURVE",
"448 -21 OFFCURVE",
"448 185 CURVE SMOOTH",
"448 636 LINE"
);
},
{
closed = 1;
nodes = (
"526 620 LINE",
"526 660 LINE",
"270 660 LINE",
"270 620 LINE"
);
}
);
};
layerId = "4CECAF9F-8433-4C1D-B398-9C9ECB761FA2";
paths = (
{
closed = 1;
nodes = (
"662 1152 LINE",
"630 1152 LINE",
"630 279 LINE SMOOTH",
"630 97 OFFCURVE",
"551 8 OFFCURVE",
"374 8 CURVE SMOOTH",
"270 8 OFFCURVE",
"151 39 OFFCURVE",
"72 80 CURVE",
"72 46 LINE",
"140 13 OFFCURVE",
"262 -20 OFFCURVE",
"372 -20 CURVE SMOOTH",
"559 -20 OFFCURVE",
"662 72 OFFCURVE",
"662 280 CURVE SMOOTH"
);
}
);
width = 862;
},
{
anchors = (
{
name = bottom;
position = "{412, 0}";
},
{
name = top;
position = "{552, 1152}";
}
);
background = {
paths = (
{
closed = 1;
nodes = (
"222 636 LINE",
"222 201 LINE SMOOTH",
"222 46 OFFCURVE",
"177 12 OFFCURVE",
"84 16 CURVE",
"84 -34 LINE",
"203 -34 OFFCURVE",
"312 -21 OFFCURVE",
"312 185 CURVE SMOOTH",
"312 636 LINE"
);
},
{
closed = 1;
nodes = (
"390 620 LINE",
"390 660 LINE",
"134 660 LINE",
"134 620 LINE"
);
}
);
};
layerId = "E81C9CF6-C278-46EE-B3DD-D93820CD8949";
paths = (
{
closed = 1;
nodes = (
"756 1152 LINE",
"372 1152 LINE",
"372 460 LINE SMOOTH",
"372 371 OFFCURVE",
"328 330 OFFCURVE",
"249 330 CURVE SMOOTH",
"180 330 OFFCURVE",
"99 360 OFFCURVE",
"42 389 CURVE",
"42 36 LINE",
"125 3 OFFCURVE",
"255 -20 OFFCURVE",
"363 -20 CURVE SMOOTH",
"609 -20 OFFCURVE",
"756 98 OFFCURVE",
"756 340 CURVE SMOOTH"
);
}
);
width = 806;
},
{
anchors = (
{
name = bottom;
position = "{387, 0}";
},
{
name = top;
position = "{646, 1152}";
}
);
background = {
paths = (
{
closed = 1;
nodes = (
"358 636 LINE",
"358 201 LINE SMOOTH",
"358 46 OFFCURVE",
"313 12 OFFCURVE",
"220 16 CURVE",
"220 -34 LINE",
"339 -34 OFFCURVE",
"448 -21 OFFCURVE",
"448 185 CURVE SMOOTH",
"448 636 LINE"
);
},
{
closed = 1;
nodes = (
"526 620 LINE",
"526 660 LINE",
"270 660 LINE",
"270 620 LINE"
);
}
);
};
layerId = "07CFD988-7AB2-42E7-A00D-A2450F106178";
paths = (
{
closed = 1;
nodes = (
"662 1152 LINE",
"630 1152 LINE",
"630 279 LINE SMOOTH",
"630 97 OFFCURVE",
"551 8 OFFCURVE",
"374 8 CURVE SMOOTH",
"270 8 OFFCURVE",
"151 39 OFFCURVE",
"72 80 CURVE",
"72 46 LINE",
"140 13 OFFCURVE",
"262 -20 OFFCURVE",
"372 -20 CURVE SMOOTH",
"559 -20 OFFCURVE",
"662 72 OFFCURVE",
"662 280 CURVE SMOOTH"
);
}
);
width = 862;
},
{
anchors = (
{
name = bottom;
position = "{387, 0}";
},
{
name = top;
position = "{592, 1152}";
}
);
background = {
paths = (
{
closed = 1;
nodes = (
"358 636 LINE",
"358 201 LINE SMOOTH",
"358 46 OFFCURVE",
"313 12 OFFCURVE",
"220 16 CURVE",
"220 -34 LINE",
"339 -34 OFFCURVE",
"448 -21 OFFCURVE",
"448 185 CURVE SMOOTH",
"448 636 LINE"
);
},
{
closed = 1;
nodes = (
"526 620 LINE",
"526 660 LINE",
"270 660 LINE",
"270 620 LINE"
);
}
);
};
layerId = "8F4C15E6-FE25-4FE1-BA9A-20FEE9FEA92B";
paths = (
{
closed = 1;
nodes = (
"693 1152 LINE",
"553 1152 LINE",
"506 264 LINE SMOOTH",
"501 159 OFFCURVE",
"419 114 OFFCURVE",
"316 114 CURVE SMOOTH",
"213 114 OFFCURVE",
"126 158 OFFCURVE",
"73 215 CURVE",
"15 66 LINE",
"109 13 OFFCURVE",
"194 -20 OFFCURVE",
"303 -20 CURVE SMOOTH",
"488 -20 OFFCURVE",
"636 74 OFFCURVE",
"646 264 CURVE SMOOTH"
);
}
);
width = 754;
},
{
anchors = (
{
name = bottom;
position = "{416, 0}";
},
{
name = top;
position = "{556, 1152}";
}
);
background = {
paths = (
{
closed = 1;
nodes = (
"226 636 LINE",
"226 201 LINE SMOOTH",
"226 46 OFFCURVE",
"181 12 OFFCURVE",
"88 16 CURVE",
"88 -34 LINE",
"207 -34 OFFCURVE",
"316 -21 OFFCURVE",
"316 185 CURVE SMOOTH",
"316 636 LINE"
);
},
{
closed = 1;
nodes = (
"394 620 LINE",
"394 660 LINE",
"138 660 LINE",
"138 620 LINE"
);
}
);
};
layerId = "59F31D40-6FCC-412D-85D2-AC9268FECF70";
paths = (
{
closed = 1;
nodes = (
"707 1152 LINE",
"483 1152 LINE",
"434 340 LINE SMOOTH",
"427 225 OFFCURVE",
"361 190 OFFCURVE",
"288 190 CURVE SMOOTH",
"185 190 OFFCURVE",
"84 258 OFFCURVE",
"31 315 CURVE",
"-15 56 LINE",
"69 3 OFFCURVE",
"167 -20 OFFCURVE",
"264 -20 CURVE SMOOTH",
"461 -20 OFFCURVE",
"650 74 OFFCURVE",
"664 340 CURVE SMOOTH"
);
}
);
width = 760;
},
{
anchors = (
{
name = bottom;
position = "{403, 0}";
},
{
name = top;
position = "{608, 1152}";
}
);
background = {
paths = (
{
closed = 1;
nodes = (
"374 636 LINE",
"374 201 LINE SMOOTH",
"374 46 OFFCURVE",
"329 12 OFFCURVE",
"236 16 CURVE",
"236 -34 LINE",
"355 -34 OFFCURVE",
"464 -21 OFFCURVE",
"464 185 CURVE SMOOTH",
"464 636 LINE"
);
},
{
closed = 1;
nodes = (
"542 620 LINE",
"542 660 LINE",
"286 660 LINE",
"286 620 LINE"
);
}
);
};
layerId = "A3C9B703-72F4-4F0D-9958-30991330B555";
paths = (
{
closed = 1;
nodes = (
"709 1152 LINE",
"679 1152 LINE",
"632 264 LINE SMOOTH",
"623 86 OFFCURVE",
"483 7 OFFCURVE",
"318 7 CURVE SMOOTH",
"213 7 OFFCURVE",
"133 39 OFFCURVE",
"40 96 CURVE",
"28 66 LINE",
"122 13 OFFCURVE",
"207 -20 OFFCURVE",
"316 -20 CURVE SMOOTH",
"501 -20 OFFCURVE",
"652 74 OFFCURVE",
"662 264 CURVE SMOOTH"
);
}
);
width = 820;
}
);
rightMetricsKey = H;
unicode = 004A;
},
{
glyphname = K;
lastChange = "2019-03-05 22:34:47 +0000";
layers = (
{
anchors = (
{
name = bottom;
position = "{534, 0}";
},
{
name = top;
position = "{534, 1152}";
}
);
layerId = "B520048A-B5B0-4F8C-90F0-FFAF6C62D524";
paths = (
{
closed = 1;
nodes = (
"144 0 LINE",
"284 0 LINE",
"284 1152 LINE",
"144 1152 LINE"
);
},
{
closed = 1;
nodes = (
"754 0 LINE",
"938 0 LINE",
"440 588 LINE",
"926 1152 LINE",
"746 1152 LINE",
"262 588 LINE"
);
}
);
width = 996;
},
{
anchors = (
{
name = bottom;
position = "{531, 0}";
},
{
name = top;
position = "{531, 1152}";
}
);
layerId = "21D66A2E-3203-408D-B482-78BB09110413";
paths = (
{
closed = 1;
nodes = (
"80 0 LINE",
"310 0 LINE",
"310 1152 LINE",
"80 1152 LINE"
);
},
{
closed = 1;
nodes = (
"796 0 LINE",
"1096 0 LINE",
"580 588 LINE",
"1084 1152 LINE",
"788 1152 LINE",
"292 588 LINE"
);
}
);
width = 1120;
},
{
anchors = (
{
name = bottom;
position = "{534, 0}";
},
{
name = top;
position = "{534, 1152}";
}
);
layerId = "4CECAF9F-8433-4C1D-B398-9C9ECB761FA2";
paths = (
{
closed = 1;
nodes = (
"200 0 LINE",
"232 0 LINE",
"232 1152 LINE",
"200 1152 LINE"
);
},
{
closed = 1;
nodes = (
"896 0 LINE",
"950 0 LINE",
"246 588 LINE",
"938 1152 LINE",
"886 1152 LINE",
"202 588 LINE"
);
}
);
width = 1070;
},
{
anchors = (
{
name = bottom;
position = "{531, 0}";
},
{
name = top;
position = "{531, 1152}";
}
);
layerId = "E81C9CF6-C278-46EE-B3DD-D93820CD8949";
paths = (
{
closed = 1;
nodes = (
"50 0 LINE",
"434 0 LINE",
"434 1152 LINE",
"50 1152 LINE"
);
},
{
closed = 1;
nodes = (
"656 0 LINE",
"1156 0 LINE",
"740 588 LINE",
"1144 1152 LINE",
"648 1152 LINE",
"312 588 LINE"
);
}
);
width = 1156;
},
{
anchors = (
{
name = bottom;
position = "{534, 0}";
},
{
name = top;
position = "{534, 1152}";
}
);
layerId = "07CFD988-7AB2-42E7-A00D-A2450F106178";
paths = (
{
closed = 1;
nodes = (
"200 0 LINE",
"232 0 LINE",
"232 1152 LINE",
"200 1152 LINE"
);
},
{
closed = 1;
nodes = (
"896 0 LINE",
"950 0 LINE",
"246 588 LINE",
"938 1152 LINE",
"886 1152 LINE",
"202 588 LINE"
);
}
);
width = 1070;
},
{
anchors = (
{
name = bottom;
position = "{505, 0}";
},
{
name = top;
position = "{505, 1152}";
}
);
layerId = "8F4C15E6-FE25-4FE1-BA9A-20FEE9FEA92B";
paths = (
{
closed = 1;
nodes = (
"144 1152 LINE",
"84 0 LINE",
"224 0 LINE",
"284 1152 LINE"
);
},
{
closed = 1;
nodes = (
"773 0 LINE",
"973 0 LINE",
"413 608 LINE",
"347 516 LINE",
"657 653 OFFCURVE",
"922 925 OFFCURVE",
"1000 1152 CURVE",
"840 1152 LINE",
"786 963 OFFCURVE",
"452 683 OFFCURVE",
"230 584 CURVE"
);
}
);
width = 970;
},
{
anchors = (
{
name = bottom;
position = "{531, 0}";
},
{
name = top;
position = "{531, 1152}";
}
);
layerId = "59F31D40-6FCC-412D-85D2-AC9268FECF70";
paths = (
{
closed = 1;
nodes = (
"151 1152 LINE",
"91 0 LINE",
"321 0 LINE",
"381 1152 LINE"
);
},
{
closed = 1;
nodes = (
"753 0 LINE",
"1071 0 LINE",
"511 608 LINE",
"445 506 LINE",
"755 643 OFFCURVE",
"1020 925 OFFCURVE",
"1098 1152 CURVE",
"820 1152 LINE",
"766 963 OFFCURVE",
"432 683 OFFCURVE",
"210 584 CURVE"
);
}
);
width = 1100;
},
{
anchors = (
{
name = bottom;
position = "{425, 0}";
},
{
name = top;
position = "{505, 1152}";
}
);
layerId = "A3C9B703-72F4-4F0D-9958-30991330B555";
paths = (
{
closed = 1;
nodes = (
"204 1152 LINE",
"143 0 LINE",
"173 0 LINE",
"234 1152 LINE"
);
},
{
closed = 1;
nodes = (
"663 0 LINE",
"713 0 LINE",
"250 388 LINE",
"232 372 LINE",
"377 428 OFFCURVE",
"872 1011 OFFCURVE",
"914 1152 CURVE",
"882 1152 LINE",
"843 1026 OFFCURVE",
"348 454 OFFCURVE",
"200 388 CURVE"
);
}
);
width = 970;
}
);
leftMetricsKey = H;
unicode = 004B;
},
{
glyphname = L;
lastChange = "2018-11-30 00:21:55 +0000";
layers = (
{
anchors = (
{
name = bottom;
position = "{414, 0}";
},
{
name = center;
position = "{394, 476}";
},
{
name = top;
position = "{414, 1152}";
},
{
name = topright;
position = "{405, 728}";
}
);
background = {
paths = (
{
closed = 1;
nodes = (
"449 620 LINE",
"449 660 LINE",
"191 660 LINE",
"191 620 LINE"
);
},
{
closed = 1;
nodes = (
"191 40 LINE",
"191 0 LINE",
"651 0 LINE",
"651 40 LINE"
);
},
{
closed = 1;
nodes = (
"259 636 LINE",
"259 24 LINE",
"349 24 LINE",
"349 636 LINE"
);
},
{
closed = 1;
nodes = (
"661 157 LINE",
"627 160 LINE",
"593 40 LINE",
"651 0 LINE"
);
}
);
};
layerId = "B520048A-B5B0-4F8C-90F0-FFAF6C62D524";
paths = (
{
closed = 1;
nodes = (
"804 0 LINE",
"804 130 LINE",
"284 130 LINE",
"284 1152 LINE",
"144 1152 LINE",
"144 0 LINE"
);
}
);
width = 832;
},
{
anchors = (
{
name = bottom;
position = "{335, 0}";
},
{
name = center;
position = "{335, 576}";
},
{
name = top;
position = "{335, 1152}";
},
{
name = topright;
position = "{724, 1152}";
}
);
background = {
paths = (
{
closed = 1;
nodes = (
"148 620 LINE",
"148 660 LINE",
"-110 660 LINE",
"-110 620 LINE"
);
},
{
closed = 1;
nodes = (
"-110 40 LINE",
"-110 0 LINE",
"350 0 LINE",
"350 40 LINE"
);
},
{
closed = 1;
nodes = (
"-42 636 LINE",
"-42 24 LINE",
"48 24 LINE",
"48 636 LINE"
);
},
{
closed = 1;
nodes = (
"360 157 LINE",
"326 160 LINE",
"292 40 LINE",
"350 0 LINE"
);
}
);
};
layerId = "21D66A2E-3203-408D-B482-78BB09110413";
paths = (
{
closed = 1;
nodes = (
"790 0 LINE",
"790 210 LINE",
"300 210 LINE",
"300 1152 LINE",
"80 1152 LINE",
"80 0 LINE"
);
}
);
width = 810;
},
{
anchors = (
{
name = bottom;
position = "{470, 0}";
},
{
name = center;
position = "{450, 476}";
},
{
name = top;
position = "{470, 1152}";
},
{
name = topright;
position = "{461, 728}";
}
);
background = {
paths = (
{
closed = 1;
nodes = (
"505 620 LINE",
"505 660 LINE",
"247 660 LINE",
"247 620 LINE"
);
},
{
closed = 1;
nodes = (
"247 40 LINE",
"247 0 LINE",
"707 0 LINE",
"707 40 LINE"
);
},
{
closed = 1;
nodes = (
"315 636 LINE",
"315 24 LINE",
"405 24 LINE",
"405 636 LINE"
);
},
{
closed = 1;
nodes = (
"717 157 LINE",
"683 160 LINE",
"649 40 LINE",
"707 0 LINE"
);
}
);
};
layerId = "4CECAF9F-8433-4C1D-B398-9C9ECB761FA2";
paths = (
{
closed = 1;
nodes = (
"860 0 LINE",
"860 30 LINE",
"232 30 LINE",
"232 1152 LINE",
"200 1152 LINE",
"200 0 LINE"
);
}
);
width = 888;
},
{
anchors = (
{
name = bottom;
position = "{355, 0}";
},
{
name = center;
position = "{355, 576}";
},
{
name = top;
position = "{355, 1152}";
},
{
name = topright;
position = "{744, 1152}";
}
);
background = {
paths = (
{
closed = 1;
nodes = (
"168 620 LINE",
"168 660 LINE",
"-90 660 LINE",
"-90 620 LINE"
);
},
{
closed = 1;
nodes = (
"-90 40 LINE",
"-90 0 LINE",
"370 0 LINE",
"370 40 LINE"
);
},
{
closed = 1;
nodes = (
"-22 636 LINE",
"-22 24 LINE",
"68 24 LINE",
"68 636 LINE"
);
},
{
closed = 1;
nodes = (
"380 157 LINE",
"346 160 LINE",
"312 40 LINE",
"370 0 LINE"
);
}
);
};
layerId = "E81C9CF6-C278-46EE-B3DD-D93820CD8949";
paths = (
{
closed = 1;
nodes = (
"810 0 LINE",
"810 350 LINE",
"434 350 LINE",
"434 1152 LINE",
"50 1152 LINE",
"50 0 LINE"
);
}
);
width = 830;
},
{
anchors = (
{
name = bottom;
position = "{470, 0}";
},
{
name = center;
position = "{450, 476}";
},
{
name = top;
position = "{470, 1152}";
},
{
name = topright;
position = "{461, 728}";
}
);
background = {
paths = (
{
closed = 1;
nodes = (
"505 620 LINE",
"505 660 LINE",
"247 660 LINE",
"247 620 LINE"
);
},
{
closed = 1;
nodes = (
"247 40 LINE",
"247 0 LINE",
"707 0 LINE",
"707 40 LINE"
);
},
{
closed = 1;
nodes = (
"315 636 LINE",
"315 24 LINE",
"405 24 LINE",
"405 636 LINE"
);
},
{
closed = 1;
nodes = (
"717 157 LINE",
"683 160 LINE",
"649 40 LINE",
"707 0 LINE"
);
}
);
};
layerId = "07CFD988-7AB2-42E7-A00D-A2450F106178";
paths = (
{
closed = 1;
nodes = (
"860 0 LINE",
"860 30 LINE",
"232 30 LINE",
"232 1152 LINE",
"200 1152 LINE",
"200 0 LINE"
);
}
);
width = 888;
},
{
anchors = (
{
name = bottom;
position = "{364, 0}";
},
{
name = center;
position = "{369, 476}";
},
{
name = top;
position = "{424, 1152}";
},
{
name = topright;
position = "{393, 728}";
}
);
background = {
paths = (
{
closed = 1;
nodes = (
"429 620 LINE",
"429 660 LINE",
"171 660 LINE",
"171 620 LINE"
);
},
{
closed = 1;
nodes = (
"171 40 LINE",
"171 0 LINE",
"631 0 LINE",
"631 40 LINE"
);
},
{
closed = 1;
nodes = (
"239 636 LINE",
"239 24 LINE",
"329 24 LINE",
"329 636 LINE"
);
},
{
closed = 1;
nodes = (
"641 157 LINE",
"607 160 LINE",
"573 40 LINE",
"631 0 LINE"
);
}
);
};
layerId = "8F4C15E6-FE25-4FE1-BA9A-20FEE9FEA92B";
paths = (
{
closed = 1;
nodes = (
"94 0 LINE",
"763 0 LINE",
"763 130 LINE",
"183 130 LINE",
"238 72 LINE",
"294 1152 LINE",
"154 1152 LINE"
);
}
);
width = 810;
},
{
anchors = (
{
name = bottom;
position = "{335, 0}";
},
{
name = center;
position = "{335, 576}";
},
{
name = top;
position = "{335, 1152}";
},
{
name = topright;
position = "{724, 1152}";
}
);
background = {
paths = (
{
closed = 1;
nodes = (
"148 620 LINE",
"148 660 LINE",
"-110 660 LINE",
"-110 620 LINE"
);
},
{
closed = 1;
nodes = (
"-110 40 LINE",
"-110 0 LINE",
"350 0 LINE",
"350 40 LINE"
);
},
{
closed = 1;
nodes = (
"-42 636 LINE",
"-42 24 LINE",
"48 24 LINE",
"48 636 LINE"
);
},
{
closed = 1;
nodes = (
"360 157 LINE",
"326 160 LINE",
"292 40 LINE",
"350 0 LINE"
);
}
);
};
layerId = "59F31D40-6FCC-412D-85D2-AC9268FECF70";
paths = (
{
closed = 1;
nodes = (
"71 0 LINE",
"751 0 LINE",
"751 210 LINE",
"252 210 LINE",
"301 0 LINE",
"381 1152 LINE",
"151 1152 LINE"
);
}
);
width = 810;
},
{
anchors = (
{
name = bottom;
position = "{414, 0}";
},
{
name = center;
position = "{419, 476}";
},
{
name = top;
position = "{474, 1152}";
},
{
name = topright;
position = "{443, 728}";
}
);
background = {
paths = (
{
closed = 1;
nodes = (
"479 620 LINE",
"479 660 LINE",
"221 660 LINE",
"221 620 LINE"
);
},
{
closed = 1;
nodes = (
"221 40 LINE",
"221 0 LINE",
"681 0 LINE",
"681 40 LINE"
);
},
{
closed = 1;
nodes = (
"289 636 LINE",
"289 24 LINE",
"379 24 LINE",
"379 636 LINE"
);
},
{
closed = 1;
nodes = (
"691 157 LINE",
"657 160 LINE",
"623 40 LINE",
"681 0 LINE"
);
}
);
};
layerId = "A3C9B703-72F4-4F0D-9958-30991330B555";
paths = (
{
closed = 1;
nodes = (
"144 0 LINE",
"813 0 LINE",
"813 27 LINE",
"153 27 LINE",
"174 0 LINE",
"234 1152 LINE",
"204 1152 LINE"
);
}
);
width = 900;
}
);
leftMetricsKey = H;
unicode = 004C;
},
{
glyphname = M;
lastChange = "2018-12-17 12:34:24 +0000";
layers = (
{
anchors = (
{
name = bottom;
position = "{706, 0}";
},
{
name = top;
position = "{706, 1152}";
}
);
background = {
paths = (
{
closed = 1;
nodes = (
"1026 0 LINE",
"996 660 LINE",
"920 660 LINE",
"712 135 LINE",
"710 118 LINE",
"704 118 LINE",
"702 135 LINE",
"512 660 LINE",
"414 660 LINE",
"394 0 LINE",
"436 0 LINE",
"456 501 LINE",
"446 601 LINE",
"437 597 LINE",
"666 0 LINE SMOOTH",
"706 0 LINE",
"930 574 LINE",
"921 578 LINE",
"911 478 LINE",
"941 0 LINE"
);
},
{
closed = 1;
nodes = (
"324 40 LINE",
"324 0 LINE",
"504 0 LINE",
"504 40 LINE"
);
},
{
closed = 1;
nodes = (
"863 40 LINE",
"863 0 LINE",
"1099 0 LINE",
"1099 40 LINE"
);
},
{
closed = 1;
nodes = (
"921 660 LINE",
"921 620 LINE",
"1084 620 LINE",
"1084 660 LINE"
);
},
{
closed = 1;
nodes = (
"332 660 LINE",
"332 620 LINE",
"504 620 LINE",
"504 660 LINE"
);
}
);
};
layerId = "B520048A-B5B0-4F8C-90F0-FFAF6C62D524";
paths = (
{
closed = 1;
nodes = (
"144 0 LINE",
"284 0 LINE",
"284 806 LINE",
"288 806 LINE",
"727 318 LINE",
"1138 806 LINE",
"1142 806 LINE",
"1142 0 LINE",
"1282 0 LINE",
"1282 1182 LINE",
"727 545 LINE",
"723 545 LINE",
"144 1182 LINE"
);
}
);
width = 1426;
},
{
associatedMasterId = "B520048A-B5B0-4F8C-90F0-FFAF6C62D524";
layerId = "CA16F679-756A-4971-BF83-8464B86A50F2";
leftMetricsKey = "=N";
rightMetricsKey = "=H";
name = Condensed;
paths = (
{
closed = 1;
nodes = (
"540 0 LINE",
"540 660 LINE",
"474 660 LINE",
"288 92 LINE",
"323 91 LINE",
"164 660 LINE",
"70 660 LINE",
"70 0 LINE",
"130 0 LINE",
"130 526 LINE",
"276 0 LINE SMOOTH",
"314 0 LINE",
"470 503 LINE",
"470 0 LINE"
);
}
);
width = 620;
},
{
anchors = (
{
name = bottom;
position = "{667, 0}";
},
{
name = top;
position = "{667, 1152}";
}
);
layerId = "21D66A2E-3203-408D-B482-78BB09110413";
paths = (
{
closed = 1;
nodes = (
"80 0 LINE",
"290 0 LINE",
"290 636 LINE",
"294 636 LINE",
"651 288 LINE",
"994 636 LINE",
"998 636 LINE",
"998 0 LINE",
"1218 0 LINE",
"1218 1182 LINE",
"651 595 LINE",
"647 595 LINE",
"80 1182 LINE"
);
}
);
width = 1298;
},
{
associatedMasterId = "B520048A-B5B0-4F8C-90F0-FFAF6C62D524";
layerId = "42D56AB1-0B5D-47C2-BE0D-0AD7AA734D41";
leftMetricsKey = "=N";
rightMetricsKey = "=H";
name = Condensed;
paths = (
{
closed = 1;
nodes = (
"540 0 LINE",
"540 660 LINE",
"474 660 LINE",
"288 92 LINE",
"323 91 LINE",
"164 660 LINE",
"70 660 LINE",
"70 0 LINE",
"130 0 LINE",
"130 526 LINE",
"276 0 LINE SMOOTH",
"314 0 LINE",
"470 503 LINE",
"470 0 LINE"
);
}
);
width = 620;
},
{
anchors = (
{
name = bottom;
position = "{762, 0}";
},
{
name = top;
position = "{762, 1152}";
}
);
background = {
paths = (
{
closed = 1;
nodes = (
"1082 0 LINE",
"1052 660 LINE",
"976 660 LINE",
"768 135 LINE",
"766 118 LINE",
"760 118 LINE",
"758 135 LINE",
"568 660 LINE",
"470 660 LINE",
"450 0 LINE",
"492 0 LINE",
"512 501 LINE",
"502 601 LINE",
"493 597 LINE",
"722 0 LINE SMOOTH",
"762 0 LINE",
"986 574 LINE",
"977 578 LINE",
"967 478 LINE",
"997 0 LINE"
);
},
{
closed = 1;
nodes = (
"380 40 LINE",
"380 0 LINE",
"560 0 LINE",
"560 40 LINE"
);
},
{
closed = 1;
nodes = (
"919 40 LINE",
"919 0 LINE",
"1155 0 LINE",
"1155 40 LINE"
);
},
{
closed = 1;
nodes = (
"977 660 LINE",
"977 620 LINE",
"1140 620 LINE",
"1140 660 LINE"
);
},
{
closed = 1;
nodes = (
"388 660 LINE",
"388 620 LINE",
"560 620 LINE",
"560 660 LINE"
);
}
);
};
layerId = "4CECAF9F-8433-4C1D-B398-9C9ECB761FA2";
paths = (
{
closed = 1;
nodes = (
"200 0 LINE",
"232 0 LINE",
"232 1094 LINE",
"236 1094 LINE",
"783 492 LINE",
"1302 1094 LINE",
"1306 1094 LINE",
"1306 0 LINE",
"1338 0 LINE",
"1338 1182 LINE",
"783 545 LINE",
"779 545 LINE",
"200 1182 LINE"
);
}
);
width = 1538;
},
{
associatedMasterId = "4CECAF9F-8433-4C1D-B398-9C9ECB761FA2";
layerId = "848076A3-A01B-415A-A732-5165040FD588";
leftMetricsKey = "=N";
rightMetricsKey = "=H";
name = Condensed;
paths = (
{
closed = 1;
nodes = (
"540 0 LINE",
"540 660 LINE",
"474 660 LINE",
"288 92 LINE",
"323 91 LINE",
"164 660 LINE",
"70 660 LINE",
"70 0 LINE",
"130 0 LINE",
"130 526 LINE",
"276 0 LINE SMOOTH",
"314 0 LINE",
"470 503 LINE",
"470 0 LINE"
);
}
);
width = 620;
},
{
associatedMasterId = "4CECAF9F-8433-4C1D-B398-9C9ECB761FA2";
layerId = "7D823C18-BEB4-4BDB-A309-97CC6834354E";
leftMetricsKey = "=N";
rightMetricsKey = "=H";
name = Condensed;
paths = (
{
closed = 1;
nodes = (
"540 0 LINE",
"540 660 LINE",
"474 660 LINE",
"288 92 LINE",
"323 91 LINE",
"164 660 LINE",
"70 660 LINE",
"70 0 LINE",
"130 0 LINE",
"130 526 LINE",
"276 0 LINE SMOOTH",
"314 0 LINE",
"470 503 LINE",
"470 0 LINE"
);
}
);
width = 620;
},
{
anchors = (
{
name = bottom;
position = "{681, 0}";
},
{
name = top;
position = "{681, 1152}";
}
);
layerId = "E81C9CF6-C278-46EE-B3DD-D93820CD8949";
paths = (
{
closed = 1;
nodes = (
"50 0 LINE",
"434 0 LINE",
"434 466 LINE",
"438 466 LINE",
"665 258 LINE",
"888 466 LINE",
"892 466 LINE",
"892 0 LINE",
"1276 0 LINE",
"1276 1202 LINE",
"665 715 LINE",
"661 715 LINE",
"50 1202 LINE"
);
}
);
width = 1326;
},
{
anchors = (
{
name = bottom;
position = "{762, 0}";
},
{
name = top;
position = "{762, 1152}";
}
);
background = {
paths = (
{
closed = 1;
nodes = (
"1082 0 LINE",
"1052 660 LINE",
"976 660 LINE",
"768 135 LINE",
"766 118 LINE",
"760 118 LINE",
"758 135 LINE",
"568 660 LINE",
"470 660 LINE",
"450 0 LINE",
"492 0 LINE",
"512 501 LINE",
"502 601 LINE",
"493 597 LINE",
"722 0 LINE SMOOTH",
"762 0 LINE",
"986 574 LINE",
"977 578 LINE",
"967 478 LINE",
"997 0 LINE"
);
},
{
closed = 1;
nodes = (
"380 40 LINE",
"380 0 LINE",
"560 0 LINE",
"560 40 LINE"
);
},
{
closed = 1;
nodes = (
"919 40 LINE",
"919 0 LINE",
"1155 0 LINE",
"1155 40 LINE"
);
},
{
closed = 1;
nodes = (
"977 660 LINE",
"977 620 LINE",
"1140 620 LINE",
"1140 660 LINE"
);
},
{
closed = 1;
nodes = (
"388 660 LINE",
"388 620 LINE",
"560 620 LINE",
"560 660 LINE"
);
}
);
};
layerId = "07CFD988-7AB2-42E7-A00D-A2450F106178";
paths = (
{
closed = 1;
nodes = (
"200 0 LINE",
"232 0 LINE",
"232 1094 LINE",
"236 1094 LINE",
"783 492 LINE",
"1302 1094 LINE",
"1306 1094 LINE",
"1306 0 LINE",
"1338 0 LINE",
"1338 1182 LINE",
"783 545 LINE",
"779 545 LINE",
"200 1182 LINE"
);
}
);
width = 1538;
},
{
associatedMasterId = "07CFD988-7AB2-42E7-A00D-A2450F106178";
layerId = "A57DE7E3-C026-4C2E-9C1B-00831C70928A";
leftMetricsKey = "=N";
rightMetricsKey = "=H";
name = Condensed;
paths = (
{
closed = 1;
nodes = (
"540 0 LINE",
"540 660 LINE",
"474 660 LINE",
"288 92 LINE",
"323 91 LINE",
"164 660 LINE",
"70 660 LINE",
"70 0 LINE",
"130 0 LINE",
"130 526 LINE",
"276 0 LINE SMOOTH",
"314 0 LINE",
"470 503 LINE",
"470 0 LINE"
);
}
);
width = 620;
},
{
associatedMasterId = "07CFD988-7AB2-42E7-A00D-A2450F106178";
layerId = "77F7A10A-6013-46BC-BE0A-53D1C4C3C484";
leftMetricsKey = "=N";
rightMetricsKey = "=H";
name = Condensed;
paths = (
{
closed = 1;
nodes = (
"540 0 LINE",
"540 660 LINE",
"474 660 LINE",
"288 92 LINE",
"323 91 LINE",
"164 660 LINE",
"70 660 LINE",
"70 0 LINE",
"130 0 LINE",
"130 526 LINE",
"276 0 LINE SMOOTH",
"314 0 LINE",
"470 503 LINE",
"470 0 LINE"
);
}
);
width = 620;
},
{
background = {
paths = (
{
closed = 1;
nodes = (
"877 0 LINE",
"847 660 LINE",
"771 660 LINE",
"563 135 LINE",
"561 118 LINE",
"555 118 LINE",
"553 135 LINE",
"363 660 LINE",
"265 660 LINE",
"245 0 LINE",
"287 0 LINE",
"307 501 LINE",
"297 601 LINE",
"288 597 LINE",
"517 0 LINE SMOOTH",
"557 0 LINE",
"781 574 LINE",
"772 578 LINE",
"762 478 LINE",
"792 0 LINE"
);
},
{
closed = 1;
nodes = (
"175 40 LINE",
"175 0 LINE",
"355 0 LINE",
"355 40 LINE"
);
},
{
closed = 1;
nodes = (
"714 40 LINE",
"714 0 LINE",
"950 0 LINE",
"950 40 LINE"
);
},
{
closed = 1;
nodes = (
"772 660 LINE",
"772 620 LINE",
"935 620 LINE",
"935 660 LINE"
);
},
{
closed = 1;
nodes = (
"183 660 LINE",
"183 620 LINE",
"355 620 LINE",
"355 660 LINE"
);
}
);
};
layerId = "8F4C15E6-FE25-4FE1-BA9A-20FEE9FEA92B";
paths = (
{
closed = 1;
nodes = (
"202 998 OFFCURVE",
"102 175 OFFCURVE",
"73 0 CURVE",
"205 0 LINE",
"227 169 OFFCURVE",
"297 786 OFFCURVE",
"311 896 CURVE",
"247 896 LINE",
"565 228 LINE",
"1004 896 LINE",
"952 896 LINE",
"938 747 OFFCURVE",
"931 229 OFFCURVE",
"941 0 CURVE",
"1073 0 LINE",
"1064 254 OFFCURVE",
"1065 868 OFFCURVE",
"1063 1182 CURVE",
"1043 1182 LINE",
"541 425 LINE",
"625 425 LINE",
"268 1182 LINE",
"248 1182 LINE"
);
}
);
width = 1200;
},
{
associatedMasterId = "8F4C15E6-FE25-4FE1-BA9A-20FEE9FEA92B";
layerId = "6DFA3A45-8BC5-4D74-9335-286B79DD1904";
leftMetricsKey = "=N";
rightMetricsKey = "=H";
name = Condensed;
paths = (
{
closed = 1;
nodes = (
"540 0 LINE",
"540 660 LINE",
"474 660 LINE",
"288 92 LINE",
"323 91 LINE",
"164 660 LINE",
"70 660 LINE",
"70 0 LINE",
"130 0 LINE",
"130 526 LINE",
"276 0 LINE SMOOTH",
"314 0 LINE",
"470 503 LINE",
"470 0 LINE"
);
}
);
width = 620;
},
{
associatedMasterId = "8F4C15E6-FE25-4FE1-BA9A-20FEE9FEA92B";
layerId = "08503886-5050-470B-8CEB-C3E9EB0BAB6E";
leftMetricsKey = "=N";
rightMetricsKey = "=H";
name = Condensed;
paths = (
{
closed = 1;
nodes = (
"540 0 LINE",
"540 660 LINE",
"474 660 LINE",
"288 92 LINE",
"323 91 LINE",
"164 660 LINE",
"70 660 LINE",
"70 0 LINE",
"130 0 LINE",
"130 526 LINE",
"276 0 LINE SMOOTH",
"314 0 LINE",
"470 503 LINE",
"470 0 LINE"
);
}
);
width = 620;
},
{
layerId = "59F31D40-6FCC-412D-85D2-AC9268FECF70";
paths = (
{
closed = 1;
nodes = (
"191 988 OFFCURVE",
"103 175 OFFCURVE",
"71 0 CURVE",
"288 0 LINE",
"323 169 OFFCURVE",
"405 996 OFFCURVE",
"411 1106 CURVE",
"333 1106 LINE",
"648 208 LINE",
"1147 1106 LINE",
"1052 1106 LINE",
"1046 957 OFFCURVE",
"1025 149 OFFCURVE",
"1032 0 CURVE",
"1271 0 LINE",
"1265 174 OFFCURVE",
"1279 938 OFFCURVE",
"1281 1152 CURVE",
"922 1152 LINE",
"589 525 LINE",
"773 525 LINE",
"575 1152 LINE",
"200 1152 LINE"
);
}
);
width = 1400;
},
{
background = {
paths = (
{
closed = 1;
nodes = (
"877 0 LINE",
"847 660 LINE",
"771 660 LINE",
"563 135 LINE",
"561 118 LINE",
"555 118 LINE",
"553 135 LINE",
"363 660 LINE",
"265 660 LINE",
"245 0 LINE",
"287 0 LINE",
"307 501 LINE",
"297 601 LINE",
"288 597 LINE",
"517 0 LINE SMOOTH",
"557 0 LINE",
"781 574 LINE",
"772 578 LINE",
"762 478 LINE",
"792 0 LINE"
);
},
{
closed = 1;
nodes = (
"175 40 LINE",
"175 0 LINE",
"355 0 LINE",
"355 40 LINE"
);
},
{
closed = 1;
nodes = (
"714 40 LINE",
"714 0 LINE",
"950 0 LINE",
"950 40 LINE"
);
},
{
closed = 1;
nodes = (
"772 660 LINE",
"772 620 LINE",
"935 620 LINE",
"935 660 LINE"
);
},
{
closed = 1;
nodes = (
"183 660 LINE",
"183 620 LINE",
"355 620 LINE",
"355 660 LINE"
);
}
);
};
layerId = "A3C9B703-72F4-4F0D-9958-30991330B555";
paths = (
{
closed = 1;
nodes = (
"202 998 OFFCURVE",
"102 175 OFFCURVE",
"73 0 CURVE",
"105 0 LINE",
"127 169 OFFCURVE",
"254 1012 OFFCURVE",
"268 1122 CURVE",
"250 1122 LINE",
"575 299 LINE",
"1031 1110 LINE",
"1032 1110 LINE",
"1018 961 OFFCURVE",
"1031 129 OFFCURVE",
"1041 0 CURVE",
"1073 0 LINE",
"1064 154 OFFCURVE",
"1065 868 OFFCURVE",
"1063 1182 CURVE",
"1033 1182 LINE",
"569 357 LINE",
"589 357 LINE",
"268 1182 LINE",
"248 1182 LINE"
);
}
);
width = 1200;
},
{
associatedMasterId = "A3C9B703-72F4-4F0D-9958-30991330B555";
layerId = "E19F6B82-DB5D-4CDC-AB1B-83BCB0A988DA";
leftMetricsKey = "=N";
rightMetricsKey = "=H";
name = Condensed;
paths = (
{
closed = 1;
nodes = (
"540 0 LINE",
"540 660 LINE",
"474 660 LINE",
"288 92 LINE",
"323 91 LINE",
"164 660 LINE",
"70 660 LINE",
"70 0 LINE",
"130 0 LINE",
"130 526 LINE",
"276 0 LINE SMOOTH",
"314 0 LINE",
"470 503 LINE",
"470 0 LINE"
);
}
);
width = 620;
},
{
associatedMasterId = "A3C9B703-72F4-4F0D-9958-30991330B555";
layerId = "78CC6F31-E4E2-4699-9149-2EE2A1FF2B74";
leftMetricsKey = "=N";
rightMetricsKey = "=H";
name = Condensed;
paths = (
{
closed = 1;
nodes = (
"540 0 LINE",
"540 660 LINE",
"474 660 LINE",
"288 92 LINE",
"323 91 LINE",
"164 660 LINE",
"70 660 LINE",
"70 0 LINE",
"130 0 LINE",
"130 526 LINE",
"276 0 LINE SMOOTH",
"314 0 LINE",
"470 503 LINE",
"470 0 LINE"
);
}
);
width = 620;
}
);
unicode = 004D;
},
{
glyphname = N;
lastChange = "2020-11-21 19:50:12 +0000";
layers = (
{
anchors = (
{
name = bottom;
position = "{594, 0}";
},
{
name = top;
position = "{594, 1152}";
}
);
background = {
paths = (
{
closed = 1;
nodes = (
"882 620 LINE SMOOTH",
"882 660 LINE SMOOTH",
"701 660 LINE",
"701 620 LINE"
);
},
{
closed = 1;
nodes = (
"271 40 LINE",
"271 0 LINE",
"452 0 LINE",
"452 40 LINE"
);
},
{
closed = 1;
nodes = (
"384 29 LINE",
"384 556 LINE",
"339 621 LINE",
"339 29 LINE"
);
},
{
closed = 1;
nodes = (
"769 631 LINE",
"769 75 LINE",
"814 98 LINE",
"399 660 LINE",
"271 660 LINE",
"271 620 LINE",
"318 620 LINE",
"774 0 LINE",
"814 0 LINE",
"814 631 LINE"
);
}
);
};
layerId = "B520048A-B5B0-4F8C-90F0-FFAF6C62D524";
paths = (
{
closed = 1;
nodes = (
"288 845 LINE",
"1180 -30 LINE",
"1180 1152 LINE",
"1040 1152 LINE",
"1040 307 LINE",
"1036 307 LINE",
"144 1182 LINE",
"144 0 LINE",
"284 0 LINE",
"284 845 LINE"
);
}
);
width = 1324;
},
{
anchors = (
{
name = bottom;
position = "{493, 0}";
},
{
name = top;
position = "{493, 1152}";
}
);
background = {
paths = (
{
closed = 1;
nodes = (
"496 620 LINE SMOOTH",
"496 660 LINE SMOOTH",
"315 660 LINE",
"315 620 LINE"
);
},
{
closed = 1;
nodes = (
"-115 40 LINE",
"-115 0 LINE",
"66 0 LINE",
"66 40 LINE"
);
},
{
closed = 1;
nodes = (
"-2 29 LINE",
"-2 556 LINE",
"-47 621 LINE",
"-47 29 LINE"
);
},
{
closed = 1;
nodes = (
"383 631 LINE",
"383 75 LINE",
"428 98 LINE",
"13 660 LINE",
"-115 660 LINE",
"-115 620 LINE",
"-68 620 LINE",
"388 0 LINE",
"428 0 LINE",
"428 631 LINE"
);
}
);
};
layerId = "21D66A2E-3203-408D-B482-78BB09110413";
paths = (
{
closed = 1;
nodes = (
"304 659 LINE",
"1116 -70 LINE",
"1116 1152 LINE",
"896 1142 LINE",
"896 453 LINE",
"892 453 LINE",
"80 1182 LINE",
"80 0 LINE",
"300 0 LINE",
"300 659 LINE"
);
}
);
width = 1196;
},
{
anchors = (
{
name = bottom;
position = "{650, 0}";
},
{
name = top;
position = "{650, 1152}";
}
);
background = {
paths = (
{
closed = 1;
nodes = (
"938 620 LINE SMOOTH",
"938 660 LINE SMOOTH",
"757 660 LINE",
"757 620 LINE"
);
},
{
closed = 1;
nodes = (
"327 40 LINE",
"327 0 LINE",
"508 0 LINE",
"508 40 LINE"
);
},
{
closed = 1;
nodes = (
"440 29 LINE",
"440 556 LINE",
"395 621 LINE",
"395 29 LINE"
);
},
{
closed = 1;
nodes = (
"825 631 LINE",
"825 75 LINE",
"870 98 LINE",
"455 660 LINE",
"327 660 LINE",
"327 620 LINE",
"374 620 LINE",
"830 0 LINE",
"870 0 LINE",
"870 631 LINE"
);
}
);
};
layerId = "4CECAF9F-8433-4C1D-B398-9C9ECB761FA2";
paths = (
{
closed = 1;
nodes = (
"236 1093 LINE",
"1236 -30 LINE",
"1236 1152 LINE",
"1204 1152 LINE",
"1204 59 LINE",
"1200 59 LINE",
"200 1182 LINE",
"200 0 LINE",
"232 0 LINE",
"232 1093 LINE"
);
}
);
width = 1436;
},
{
anchors = (
{
name = bottom;
position = "{463, 0}";
},
{
name = top;
position = "{463, 1152}";
}
);
background = {
paths = (
{
closed = 1;
nodes = (
"466 620 LINE SMOOTH",
"466 660 LINE SMOOTH",
"285 660 LINE",
"285 620 LINE"
);
},
{
closed = 1;
nodes = (
"-145 40 LINE",
"-145 0 LINE",
"36 0 LINE",
"36 40 LINE"
);
},
{
closed = 1;
nodes = (
"-32 29 LINE",
"-32 556 LINE",
"-77 621 LINE",
"-77 29 LINE"
);
},
{
closed = 1;
nodes = (
"353 631 LINE",
"353 75 LINE",
"398 98 LINE",
"-17 660 LINE",
"-145 660 LINE",
"-145 620 LINE",
"-98 620 LINE",
"358 0 LINE",
"398 0 LINE",
"398 631 LINE"
);
}
);
};
layerId = "E81C9CF6-C278-46EE-B3DD-D93820CD8949";
paths = (
{
closed = 1;
nodes = (
"374 459 LINE",
"1086 -70 LINE",
"1086 1152 LINE",
"766 1142 LINE",
"766 653 LINE",
"762 653 LINE",
"50 1182 LINE",
"50 0 LINE",
"370 0 LINE",
"370 459 LINE"
);
}
);
width = 1136;
},
{
anchors = (
{
name = bottom;
position = "{650, 0}";
},
{
name = top;
position = "{650, 1152}";
}
);
background = {
paths = (
{
closed = 1;
nodes = (
"938 620 LINE SMOOTH",
"938 660 LINE SMOOTH",
"757 660 LINE",
"757 620 LINE"
);
},
{
closed = 1;
nodes = (
"327 40 LINE",
"327 0 LINE",
"508 0 LINE",
"508 40 LINE"
);
},
{
closed = 1;
nodes = (
"440 29 LINE",
"440 556 LINE",
"395 621 LINE",
"395 29 LINE"
);
},
{
closed = 1;
nodes = (
"825 631 LINE",
"825 75 LINE",
"870 98 LINE",
"455 660 LINE",
"327 660 LINE",
"327 620 LINE",
"374 620 LINE",
"830 0 LINE",
"870 0 LINE",
"870 631 LINE"
);
}
);
};
layerId = "07CFD988-7AB2-42E7-A00D-A2450F106178";
paths = (
{
closed = 1;
nodes = (
"236 1093 LINE",
"1236 -30 LINE",
"1236 1152 LINE",
"1204 1152 LINE",
"1204 59 LINE",
"1200 59 LINE",
"200 1182 LINE",
"200 0 LINE",
"232 0 LINE",
"232 1093 LINE"
);
}
);
width = 1436;
},
{
anchors = (
{
name = bottom;
position = "{484, 0}";
},
{
name = top;
position = "{484, 1152}";
}
);
background = {
paths = (
{
closed = 1;
nodes = (
"241 1152 LINE",
"181 0 LINE",
"311 0 LINE",
"364 1032 LINE",
"567 1032 LINE",
"490 1152 LINE",
"468 634 OFFCURVE",
"613 -30 OFFCURVE",
"892 -30 CURVE SMOOTH",
"1050 -30 OFFCURVE",
"1108 173 OFFCURVE",
"1137 1152 CURVE",
"1007 1152 LINE",
"996 934 OFFCURVE",
"995 114 OFFCURVE",
"864 114 CURVE SMOOTH",
"754 114 OFFCURVE",
"581 693 OFFCURVE",
"608 1152 CURVE"
);
}
);
};
layerId = "8F4C15E6-FE25-4FE1-BA9A-20FEE9FEA92B";
paths = (
{
closed = 1;
nodes = (
"280 755 LINE",
"926 -100 LINE",
"995 1152 LINE",
"855 1152 LINE",
"807 327 LINE",
"803 327 LINE",
"157 1202 LINE",
"115 0 LINE",
"255 0 LINE",
"276 755 LINE"
);
}
);
width = 1060;
},
{
anchors = (
{
name = bottom;
position = "{469, 0}";
},
{
name = top;
position = "{569, 1152}";
}
);
background = {
paths = (
{
closed = 1;
nodes = (
"56 1152 LINE",
"-4 0 LINE",
"206 0 LINE",
"253 952 LINE",
"475 952 LINE",
"373 1152 LINE",
"337 772 OFFCURVE",
"487 -30 OFFCURVE",
"804 -30 CURVE SMOOTH",
"1085 -30 OFFCURVE",
"1069 621 OFFCURVE",
"1088 1152 CURVE",
"878 1152 LINE",
"877 934 OFFCURVE",
"849 234 OFFCURVE",
"779 234 CURVE SMOOTH",
"716 234 OFFCURVE",
"535 793 OFFCURVE",
"553 1152 CURVE"
);
}
);
};
layerId = "59F31D40-6FCC-412D-85D2-AC9268FECF70";
paths = (
{
closed = 1;
nodes = (
"340 670 LINE",
"1014 -88 LINE",
"1080 1152 LINE",
"860 1152 LINE",
"825 482 LINE",
"821 482 LINE",
"147 1240 LINE",
"81 0 LINE",
"301 0 LINE",
"336 670 LINE"
);
}
);
width = 1140;
},
{
anchors = (
{
name = bottom;
position = "{534, 0}";
},
{
name = top;
position = "{534, 1152}";
}
);
background = {
paths = (
{
closed = 1;
nodes = (
"291 1152 LINE",
"231 0 LINE",
"361 0 LINE",
"414 1032 LINE",
"617 1032 LINE",
"540 1152 LINE",
"518 634 OFFCURVE",
"663 -30 OFFCURVE",
"942 -30 CURVE SMOOTH",
"1100 -30 OFFCURVE",
"1158 173 OFFCURVE",
"1187 1152 CURVE",
"1057 1152 LINE",
"1046 934 OFFCURVE",
"1045 114 OFFCURVE",
"914 114 CURVE SMOOTH",
"804 114 OFFCURVE",
"631 693 OFFCURVE",
"658 1152 CURVE"
);
}
);
};
layerId = "A3C9B703-72F4-4F0D-9958-30991330B555";
paths = (
{
closed = 1;
nodes = (
"240 1065 LINE",
"996 -100 LINE",
"1045 1152 LINE",
"1015 1152 LINE",
"967 7 LINE",
"963 7 LINE",
"207 1202 LINE",
"165 0 LINE",
"195 0 LINE",
"236 1065 LINE"
);
}
);
width = 1180;
}
);
leftMetricsKey = H;
rightMetricsKey = H;
unicode = 004E;
},
{
glyphname = Nhookleft;
lastChange = "2019-03-05 22:49:19 +0000";
layers = (
{
layerId = "B520048A-B5B0-4F8C-90F0-FFAF6C62D524";
paths = (
{
closed = 1;
nodes = (
"144 -100 LINE SMOOTH",
"144 -193 OFFCURVE",
"104 -220 OFFCURVE",
"46 -220 CURVE SMOOTH",
"2 -220 OFFCURVE",
"-67 -205 OFFCURVE",
"-116 -185 CURVE",
"-116 -309 LINE",
"-68 -328 OFFCURVE",
"-1 -340 OFFCURVE",
"54 -340 CURVE SMOOTH",
"201 -340 OFFCURVE",
"284 -252 OFFCURVE",
"284 -100 CURVE SMOOTH",
"284 845 LINE",
"288 845 LINE",
"1180 -30 LINE",
"1180 1152 LINE",
"1040 1152 LINE",
"1040 307 LINE",
"1036 307 LINE",
"144 1182 LINE"
);
}
);
width = 1324;
},
{
layerId = "8F4C15E6-FE25-4FE1-BA9A-20FEE9FEA92B";
width = 600;
},
{
layerId = "07CFD988-7AB2-42E7-A00D-A2450F106178";
width = 600;
},
{
layerId = "E81C9CF6-C278-46EE-B3DD-D93820CD8949";
width = 600;
},
{
layerId = "4CECAF9F-8433-4C1D-B398-9C9ECB761FA2";
paths = (
{
closed = 1;
nodes = (
"200 -99 LINE SMOOTH",
"200 -233 OFFCURVE",
"161 -310 OFFCURVE",
"49 -310 CURVE SMOOTH",
"5 -310 OFFCURVE",
"-52 -298 OFFCURVE",
"-90 -276 CURVE",
"-90 -309 LINE",
"-51 -328 OFFCURVE",
"1 -340 OFFCURVE",
"49 -340 CURVE SMOOTH",
"178 -340 OFFCURVE",
"232 -251 OFFCURVE",
"232 -99 CURVE SMOOTH",
"232 1093 LINE",
"236 1093 LINE",
"1236 -30 LINE",
"1236 1152 LINE",
"1204 1152 LINE",
"1204 59 LINE",
"1200 59 LINE",
"200 1182 LINE"
);
}
);
width = 1436;
},
{
layerId = "21D66A2E-3203-408D-B482-78BB09110413";
paths = (
{
closed = 1;
nodes = (
"80 0 LINE SMOOTH",
"80 -93 OFFCURVE",
"40 -120 OFFCURVE",
"-18 -120 CURVE SMOOTH",
"-62 -120 OFFCURVE",
"-131 -105 OFFCURVE",
"-180 -95 CURVE",
"-180 -319 LINE",
"-132 -328 OFFCURVE",
"-65 -340 OFFCURVE",
"20 -340 CURVE SMOOTH",
"237 -340 OFFCURVE",
"300 -252 OFFCURVE",
"300 -100 CURVE SMOOTH",
"300 659 LINE",
"304 659 LINE",
"1116 -70 LINE",
"1116 1152 LINE",
"896 1152 LINE",
"896 453 LINE",
"892 453 LINE",
"80 1182 LINE"
);
}
);
width = 1196;
},
{
layerId = "59F31D40-6FCC-412D-85D2-AC9268FECF70";
width = 1196;
},
{
layerId = "A3C9B703-72F4-4F0D-9958-30991330B555";
paths = (
{
closed = 1;
nodes = (
"240 1065 LINE",
"996 -100 LINE",
"1045 1152 LINE",
"1015 1152 LINE",
"967 7 LINE",
"963 7 LINE",
"207 1202 LINE",
"165 0 LINE",
"195 0 LINE",
"236 1065 LINE"
);
},
{
closed = 1;
nodes = (
"226 799 LINE",
"196 799 LINE",
"161 -89 LINE SMOOTH",
"154 -267 OFFCURVE",
"82 -346 OFFCURVE",
"-73 -346 CURVE SMOOTH",
"-168 -346 OFFCURVE",
"-228 -314 OFFCURVE",
"-281 -257 CURVE",
"-293 -287 LINE",
"-239 -340 OFFCURVE",
"-174 -373 OFFCURVE",
"-75 -373 CURVE SMOOTH",
"100 -373 OFFCURVE",
"184 -279 OFFCURVE",
"191 -89 CURVE SMOOTH"
);
}
);
width = 1180;
}
);
rightMetricsKey = N;
unicode = 019D;
},
{
glyphname = Eng;
lastChange = "2019-03-05 22:38:18 +0000";
layers = (
{
layerId = "B520048A-B5B0-4F8C-90F0-FFAF6C62D524";
paths = (
{
closed = 1;
nodes = (
"284 0 LINE",
"284 845 LINE",
"288 845 LINE",
"1040 98 LINE",
"1040 0 LINE SMOOTH",
"1040 -144 OFFCURVE",
"960 -194 OFFCURVE",
"851 -194 CURVE SMOOTH",
"758 -194 OFFCURVE",
"659 -150 OFFCURVE",
"590 -93 CURVE",
"590 -253 LINE",
"658 -293 OFFCURVE",
"755 -326 OFFCURVE",
"861 -326 CURVE SMOOTH",
"1057 -326 OFFCURVE",
"1180 -211 OFFCURVE",
"1180 0 CURVE SMOOTH",
"1180 1152 LINE",
"1040 1152 LINE",
"1040 307 LINE",
"1036 307 LINE",
"144 1182 LINE",
"144 0 LINE"
);
}
);
width = 1324;
},
{
layerId = "21D66A2E-3203-408D-B482-78BB09110413";
paths = (
{
closed = 1;
nodes = (
"320 0 LINE",
"320 649 LINE",
"324 649 LINE",
"876 175.758 LINE",
"876 21 LINE SMOOTH",
"876 -133 OFFCURVE",
"812 -170 OFFCURVE",
"713 -170 CURVE SMOOTH",
"611 -170 OFFCURVE",
"491 -131 OFFCURVE",
"416 -75 CURVE",
"416 -332 LINE",
"493 -364 OFFCURVE",
"612 -390 OFFCURVE",
"730 -390 CURVE SMOOTH",
"957 -390 OFFCURVE",
"1116 -292 OFFCURVE",
"1116 0 CURVE SMOOTH",
"1116 1152 LINE",
"876 1152 LINE",
"876 503 LINE",
"872 503 LINE",
"80 1182 LINE",
"80 0 LINE"
);
}
);
width = 1196;
},
{
layerId = "4CECAF9F-8433-4C1D-B398-9C9ECB761FA2";
paths = (
{
closed = 1;
nodes = (
"232 0 LINE",
"232 1093 LINE",
"236 1093 LINE",
"1204 4 LINE",
"1204 0 LINE SMOOTH",
"1204 -235 OFFCURVE",
"1103 -336 OFFCURVE",
"931 -336 CURVE SMOOTH",
"831 -336 OFFCURVE",
"720 -301 OFFCURVE",
"646 -254 CURVE",
"646 -291 LINE",
"714 -333 OFFCURVE",
"821 -366 OFFCURVE",
"927 -366 CURVE SMOOTH",
"1123 -366 OFFCURVE",
"1236 -251 OFFCURVE",
"1236 0 CURVE SMOOTH",
"1236 1152 LINE",
"1204 1152 LINE",
"1204 59 LINE",
"1200 59 LINE",
"200 1182 LINE",
"200 0 LINE"
);
}
);
width = 1436;
},
{
layerId = "E81C9CF6-C278-46EE-B3DD-D93820CD8949";
paths = (
{
closed = 1;
nodes = (
"320 0 LINE",
"320 649 LINE",
"324 649 LINE",
"876 175.758 LINE",
"876 21 LINE SMOOTH",
"876 -133 OFFCURVE",
"812 -170 OFFCURVE",
"713 -170 CURVE SMOOTH",
"611 -170 OFFCURVE",
"491 -131 OFFCURVE",
"416 -75 CURVE",
"416 -332 LINE",
"493 -364 OFFCURVE",
"612 -390 OFFCURVE",
"730 -390 CURVE SMOOTH",
"957 -390 OFFCURVE",
"1116 -292 OFFCURVE",
"1116 0 CURVE SMOOTH",
"1116 1152 LINE",
"876 1152 LINE",
"876 503 LINE",
"872 503 LINE",
"80 1182 LINE",
"80 0 LINE"
);
}
);
width = 1196;
},
{
layerId = "07CFD988-7AB2-42E7-A00D-A2450F106178";
paths = (
{
closed = 1;
nodes = (
"232 0 LINE",
"232 1093 LINE",
"236 1093 LINE",
"1204 4 LINE",
"1204 0 LINE SMOOTH",
"1204 -235 OFFCURVE",
"1103 -336 OFFCURVE",
"931 -336 CURVE SMOOTH",
"831 -336 OFFCURVE",
"720 -301 OFFCURVE",
"646 -254 CURVE",
"646 -291 LINE",
"714 -333 OFFCURVE",
"821 -366 OFFCURVE",
"927 -366 CURVE SMOOTH",
"1123 -366 OFFCURVE",
"1236 -251 OFFCURVE",
"1236 0 CURVE SMOOTH",
"1236 1152 LINE",
"1204 1152 LINE",
"1204 59 LINE",
"1200 59 LINE",
"200 1182 LINE",
"200 0 LINE"
);
}
);
width = 1436;
},
{
layerId = "8F4C15E6-FE25-4FE1-BA9A-20FEE9FEA92B";
paths = (
{
closed = 1;
nodes = (
"284 0 LINE",
"284 845 LINE",
"288 845 LINE",
"1040 98 LINE",
"1040 0 LINE SMOOTH",
"1040 -144 OFFCURVE",
"960 -194 OFFCURVE",
"851 -194 CURVE SMOOTH",
"758 -194 OFFCURVE",
"659 -150 OFFCURVE",
"590 -93 CURVE",
"590 -253 LINE",
"658 -293 OFFCURVE",
"755 -326 OFFCURVE",
"861 -326 CURVE SMOOTH",
"1057 -326 OFFCURVE",
"1180 -211 OFFCURVE",
"1180 0 CURVE SMOOTH",
"1180 1152 LINE",
"1040 1152 LINE",
"1040 307 LINE",
"1036 307 LINE",
"144 1182 LINE",
"144 0 LINE"
);
}
);
width = 1324;
},
{
layerId = "59F31D40-6FCC-412D-85D2-AC9268FECF70";
paths = (
{
closed = 1;
nodes = (
"320 0 LINE",
"320 649 LINE",
"324 649 LINE",
"876 175.758 LINE",
"876 21 LINE SMOOTH",
"876 -133 OFFCURVE",
"812 -170 OFFCURVE",
"713 -170 CURVE SMOOTH",
"611 -170 OFFCURVE",
"491 -131 OFFCURVE",
"416 -75 CURVE",
"416 -332 LINE",
"493 -364 OFFCURVE",
"612 -390 OFFCURVE",
"730 -390 CURVE SMOOTH",
"957 -390 OFFCURVE",
"1116 -292 OFFCURVE",
"1116 0 CURVE SMOOTH",
"1116 1152 LINE",
"876 1152 LINE",
"876 503 LINE",
"872 503 LINE",
"80 1182 LINE",
"80 0 LINE"
);
}
);
width = 1196;
},
{
layerId = "A3C9B703-72F4-4F0D-9958-30991330B555";
paths = (
{
closed = 1;
nodes = (
"240 1065 LINE",
"996 -100 LINE",
"1045 1152 LINE",
"1015 1152 LINE",
"967 7 LINE",
"963 7 LINE",
"207 1202 LINE",
"165 0 LINE",
"195 0 LINE",
"236 1065 LINE"
);
},
{
closed = 1;
nodes = (
"1031 799 LINE",
"1001 799 LINE",
"966 -89 LINE SMOOTH",
"959 -267 OFFCURVE",
"887 -346 OFFCURVE",
"732 -346 CURVE SMOOTH",
"637 -346 OFFCURVE",
"577 -314 OFFCURVE",
"524 -257 CURVE",
"512 -287 LINE",
"566 -340 OFFCURVE",
"631 -373 OFFCURVE",
"730 -373 CURVE SMOOTH",
"905 -373 OFFCURVE",
"989 -279 OFFCURVE",
"996 -89 CURVE SMOOTH"
);
}
);
width = 1180;
}
);
leftMetricsKey = N;
rightMetricsKey = N;
unicode = 014A;
},
{
glyphname = O;
lastChange = "2019-03-05 22:38:42 +0000";
layers = (
{
anchors = (
{
name = bottom;
position = "{657, 0}";
},
{
name = center;
position = "{657, 576}";
},
{
name = ogonek;
position = "{923, 10}";
},
{
name = top;
position = "{657, 1152}";
},
{
name = topleft;
position = "{102, 1152}";
},
{
name = topright;
position = "{1130, 900}";
}
);
background = {
paths = (
{
closed = 1;
nodes = (
"822 674 OFFCURVE",
"652 674 CURVE SMOOTH",
"482 674 OFFCURVE",
"362 532 OFFCURVE",
"362 330 CURVE SMOOTH",
"362 128 OFFCURVE",
"482 -14 OFFCURVE",
"652 -14 CURVE SMOOTH",
"822 -14 OFFCURVE",
"942 128 OFFCURVE",
"942 330 CURVE SMOOTH",
"942 532 OFFCURVE"
);
},
{
closed = 1;
nodes = (
"784 34 OFFCURVE",
"652 34 CURVE SMOOTH",
"520 34 OFFCURVE",
"464 150 OFFCURVE",
"464 330 CURVE SMOOTH",
"464 510 OFFCURVE",
"520 626 OFFCURVE",
"652 626 CURVE SMOOTH",
"784 626 OFFCURVE",
"840 510 OFFCURVE",
"840 330 CURVE SMOOTH",
"840 150 OFFCURVE"
);
}
);
};
layerId = "B520048A-B5B0-4F8C-90F0-FFAF6C62D524";
paths = (
{
closed = 1;
nodes = (
"1065 -30 OFFCURVE",
"1274 235 OFFCURVE",
"1274 576 CURVE SMOOTH",
"1274 931 OFFCURVE",
"1050 1182 OFFCURVE",
"687 1182 CURVE SMOOTH",
"324 1182 OFFCURVE",
"100 931 OFFCURVE",
"100 576 CURVE SMOOTH",
"100 235 OFFCURVE",
"309 -30 OFFCURVE",
"687 -30 CURVE SMOOTH"
);
},
{
closed = 1;
nodes = (
"946 1056 OFFCURVE",
"1132 850 OFFCURVE",
"1132 573 CURVE SMOOTH",
"1132 291 OFFCURVE",
"945 100 OFFCURVE",
"687 100 CURVE SMOOTH",
"429 100 OFFCURVE",
"242 291 OFFCURVE",
"242 573 CURVE SMOOTH",
"242 850 OFFCURVE",
"426 1056 OFFCURVE",
"687 1056 CURVE SMOOTH"
);
}
);
width = 1374;
},
{
anchors = (
{
name = bottom;
position = "{650, 0}";
},
{
name = center;
position = "{650, 576}";
},
{
name = ogonek;
position = "{854, 10}";
},
{
name = top;
position = "{650, 1152}";
},
{
name = topleft;
position = "{-7, 1152}";
},
{
name = topright;
position = "{994, 1020}";
}
);
background = {
paths = (
{
closed = 1;
nodes = (
"459 674 OFFCURVE",
"289 674 CURVE SMOOTH",
"119 674 OFFCURVE",
"-1 532 OFFCURVE",
"-1 330 CURVE SMOOTH",
"-1 128 OFFCURVE",
"119 -14 OFFCURVE",
"289 -14 CURVE SMOOTH",
"459 -14 OFFCURVE",
"579 128 OFFCURVE",
"579 330 CURVE SMOOTH",
"579 532 OFFCURVE"
);
},
{
closed = 1;
nodes = (
"421 34 OFFCURVE",
"289 34 CURVE SMOOTH",
"157 34 OFFCURVE",
"101 150 OFFCURVE",
"101 330 CURVE SMOOTH",
"101 510 OFFCURVE",
"157 626 OFFCURVE",
"289 626 CURVE SMOOTH",
"421 626 OFFCURVE",
"477 510 OFFCURVE",
"477 330 CURVE SMOOTH",
"477 150 OFFCURVE"
);
}
);
};
layerId = "21D66A2E-3203-408D-B482-78BB09110413";
paths = (
{
closed = 1;
nodes = (
"1037 -30 OFFCURVE",
"1250 235 OFFCURVE",
"1250 576 CURVE SMOOTH",
"1250 931 OFFCURVE",
"1021 1182 OFFCURVE",
"650 1182 CURVE SMOOTH",
"279 1182 OFFCURVE",
"50 931 OFFCURVE",
"50 576 CURVE SMOOTH",
"50 235 OFFCURVE",
"263 -30 OFFCURVE",
"650 -30 CURVE SMOOTH"
);
},
{
closed = 1;
nodes = (
"863 976 OFFCURVE",
"1019 804 OFFCURVE",
"1019 574 CURVE SMOOTH",
"1019 341 OFFCURVE",
"863 180 OFFCURVE",
"650 180 CURVE SMOOTH",
"437 180 OFFCURVE",
"281 343 OFFCURVE",
"281 576 CURVE SMOOTH",
"281 806 OFFCURVE",
"435 976 OFFCURVE",
"650 976 CURVE SMOOTH"
);
}
);
width = 1300;
},
{
anchors = (
{
name = bottom;
position = "{707, 0}";
},
{
name = center;
position = "{707, 576}";
},
{
name = ogonek;
position = "{897, 10}";
},
{
name = top;
position = "{707, 1152}";
},
{
name = topleft;
position = "{152, 1152}";
},
{
name = topright;
position = "{1251, 860}";
}
);
background = {
paths = (
{
closed = 1;
nodes = (
"872 674 OFFCURVE",
"702 674 CURVE SMOOTH",
"532 674 OFFCURVE",
"412 532 OFFCURVE",
"412 330 CURVE SMOOTH",
"412 128 OFFCURVE",
"532 -14 OFFCURVE",
"702 -14 CURVE SMOOTH",
"872 -14 OFFCURVE",
"992 128 OFFCURVE",
"992 330 CURVE SMOOTH",
"992 532 OFFCURVE"
);
},
{
closed = 1;
nodes = (
"834 34 OFFCURVE",
"702 34 CURVE SMOOTH",
"570 34 OFFCURVE",
"514 150 OFFCURVE",
"514 330 CURVE SMOOTH",
"514 510 OFFCURVE",
"570 626 OFFCURVE",
"702 626 CURVE SMOOTH",
"834 626 OFFCURVE",
"890 510 OFFCURVE",
"890 330 CURVE SMOOTH",
"890 150 OFFCURVE"
);
}
);
};
layerId = "4CECAF9F-8433-4C1D-B398-9C9ECB761FA2";
paths = (
{
closed = 1;
nodes = (
"1115 -18 OFFCURVE",
"1314 235 OFFCURVE",
"1314 576 CURVE SMOOTH",
"1314 931 OFFCURVE",
"1100 1170 OFFCURVE",
"737 1170 CURVE SMOOTH",
"374 1170 OFFCURVE",
"160 931 OFFCURVE",
"160 576 CURVE SMOOTH",
"160 235 OFFCURVE",
"359 -18 OFFCURVE",
"737 -18 CURVE SMOOTH"
);
},
{
closed = 1;
nodes = (
"1076 1144 OFFCURVE",
"1282 908 OFFCURVE",
"1282 572 CURVE SMOOTH",
"1282 229 OFFCURVE",
"1084 12 OFFCURVE",
"737 12 CURVE SMOOTH",
"390 12 OFFCURVE",
"192 229 OFFCURVE",
"192 572 CURVE SMOOTH",
"192 908 OFFCURVE",
"386 1144 OFFCURVE",
"737 1144 CURVE SMOOTH"
);
}
);
width = 1474;
},
{
anchors = (
{
name = bottom;
position = "{643, 0}";
},
{
name = center;
position = "{643, 576}";
},
{
name = ogonek;
position = "{847, 10}";
},
{
name = top;
position = "{643, 1152}";
},
{
name = topleft;
position = "{-14, 1152}";
},
{
name = topright;
position = "{987, 1020}";
}
);
background = {
paths = (
{
closed = 1;
nodes = (
"452 674 OFFCURVE",
"282 674 CURVE SMOOTH",
"112 674 OFFCURVE",
"-8 532 OFFCURVE",
"-8 330 CURVE SMOOTH",
"-8 128 OFFCURVE",
"112 -14 OFFCURVE",
"282 -14 CURVE SMOOTH",
"452 -14 OFFCURVE",
"572 128 OFFCURVE",
"572 330 CURVE SMOOTH",
"572 532 OFFCURVE"
);
},
{
closed = 1;
nodes = (
"414 34 OFFCURVE",
"282 34 CURVE SMOOTH",
"150 34 OFFCURVE",
"94 150 OFFCURVE",
"94 330 CURVE SMOOTH",
"94 510 OFFCURVE",
"150 626 OFFCURVE",
"282 626 CURVE SMOOTH",
"414 626 OFFCURVE",
"470 510 OFFCURVE",
"470 330 CURVE SMOOTH",
"470 150 OFFCURVE"
);
}
);
};
layerId = "E81C9CF6-C278-46EE-B3DD-D93820CD8949";
paths = (
{
closed = 1;
nodes = (
"1038 -18 OFFCURVE",
"1256 235 OFFCURVE",
"1256 576 CURVE SMOOTH",
"1256 931 OFFCURVE",
"1022 1170 OFFCURVE",
"643 1170 CURVE SMOOTH",
"264 1170 OFFCURVE",
"30 931 OFFCURVE",
"30 576 CURVE SMOOTH",
"30 235 OFFCURVE",
"248 -18 OFFCURVE",
"643 -18 CURVE SMOOTH"
);
},
{
closed = 1;
nodes = (
"766 820 OFFCURVE",
"856 719 OFFCURVE",
"856 573 CURVE SMOOTH",
"856 423 OFFCURVE",
"766 332 OFFCURVE",
"643 332 CURVE SMOOTH",
"520 332 OFFCURVE",
"430 426 OFFCURVE",
"430 573 CURVE SMOOTH",
"430 719 OFFCURVE",
"519 820 OFFCURVE",
"643 820 CURVE SMOOTH"
);
}
);
width = 1286;
},
{
anchors = (
{
name = bottom;
position = "{707, 0}";
},
{
name = center;
position = "{707, 576}";
},
{
name = ogonek;
position = "{1167, 10}";
},
{
name = top;
position = "{707, 1152}";
},
{
name = topleft;
position = "{152, 1152}";
},
{
name = topright;
position = "{1251, 860}";
}
);
background = {
paths = (
{
closed = 1;
nodes = (
"872 674 OFFCURVE",
"702 674 CURVE SMOOTH",
"532 674 OFFCURVE",
"412 532 OFFCURVE",
"412 330 CURVE SMOOTH",
"412 128 OFFCURVE",
"532 -14 OFFCURVE",
"702 -14 CURVE SMOOTH",
"872 -14 OFFCURVE",
"992 128 OFFCURVE",
"992 330 CURVE SMOOTH",
"992 532 OFFCURVE"
);
},
{
closed = 1;
nodes = (
"834 34 OFFCURVE",
"702 34 CURVE SMOOTH",
"570 34 OFFCURVE",
"514 150 OFFCURVE",
"514 330 CURVE SMOOTH",
"514 510 OFFCURVE",
"570 626 OFFCURVE",
"702 626 CURVE SMOOTH",
"834 626 OFFCURVE",
"890 510 OFFCURVE",
"890 330 CURVE SMOOTH",
"890 150 OFFCURVE"
);
}
);
};
layerId = "07CFD988-7AB2-42E7-A00D-A2450F106178";
paths = (
{
closed = 1;
nodes = (
"1115 -18 OFFCURVE",
"1314 235 OFFCURVE",
"1314 576 CURVE SMOOTH",
"1314 931 OFFCURVE",
"1100 1170 OFFCURVE",
"737 1170 CURVE SMOOTH",
"374 1170 OFFCURVE",
"160 931 OFFCURVE",
"160 576 CURVE SMOOTH",
"160 235 OFFCURVE",
"359 -18 OFFCURVE",
"737 -18 CURVE SMOOTH"
);
},
{
closed = 1;
nodes = (
"1076 1144 OFFCURVE",
"1282 908 OFFCURVE",
"1282 572 CURVE SMOOTH",
"1282 229 OFFCURVE",
"1084 12 OFFCURVE",
"737 12 CURVE SMOOTH",
"390 12 OFFCURVE",
"192 229 OFFCURVE",
"192 572 CURVE SMOOTH",
"192 908 OFFCURVE",
"386 1144 OFFCURVE",
"737 1144 CURVE SMOOTH"
);
}
);
width = 1474;
},
{
anchors = (
{
name = bottom;
position = "{377, 0}";
},
{
name = center;
position = "{477, 576}";
},
{
name = ogonek;
position = "{937, 10}";
},
{
name = top;
position = "{477, 1152}";
},
{
name = topleft;
position = "{-78, 1152}";
},
{
name = topright;
position = "{950, 900}";
}
);
background = {
paths = (
{
closed = 1;
nodes = (
"692 674 OFFCURVE",
"522 674 CURVE SMOOTH",
"352 674 OFFCURVE",
"232 532 OFFCURVE",
"232 330 CURVE SMOOTH",
"232 128 OFFCURVE",
"352 -14 OFFCURVE",
"522 -14 CURVE SMOOTH",
"692 -14 OFFCURVE",
"812 128 OFFCURVE",
"812 330 CURVE SMOOTH",
"812 532 OFFCURVE"
);
},
{
closed = 1;
nodes = (
"654 34 OFFCURVE",
"522 34 CURVE SMOOTH",
"390 34 OFFCURVE",
"334 150 OFFCURVE",
"334 330 CURVE SMOOTH",
"334 510 OFFCURVE",
"390 626 OFFCURVE",
"522 626 CURVE SMOOTH",
"654 626 OFFCURVE",
"710 510 OFFCURVE",
"710 330 CURVE SMOOTH",
"710 150 OFFCURVE"
);
}
);
};
layerId = "8F4C15E6-FE25-4FE1-BA9A-20FEE9FEA92B";
paths = (
{
closed = 1;
nodes = (
"726 -30 OFFCURVE",
"931 195 OFFCURVE",
"963 578 CURVE SMOOTH",
"996 971 OFFCURVE",
"822 1182 OFFCURVE",
"563 1182 CURVE SMOOTH",
"309 1182 OFFCURVE",
"98 971 OFFCURVE",
"64 576 CURVE SMOOTH",
"31 195 OFFCURVE",
"193 -30 OFFCURVE",
"459 -30 CURVE SMOOTH"
);
},
{
closed = 1;
nodes = (
"741 1043 OFFCURVE",
"849 850 OFFCURVE",
"827 575 CURVE SMOOTH",
"805 291 OFFCURVE",
"647 110 OFFCURVE",
"469 110 CURVE SMOOTH",
"291 110 OFFCURVE",
"174 291 OFFCURVE",
"200 573 CURVE SMOOTH",
"226 850 OFFCURVE",
"371 1043 OFFCURVE",
"556 1043 CURVE SMOOTH"
);
}
);
width = 1000;
},
{
anchors = (
{
name = bottom;
position = "{701, 0}";
},
{
name = center;
position = "{701, 576}";
},
{
name = ogonek;
position = "{905, 10}";
},
{
name = top;
position = "{701, 1152}";
},
{
name = topleft;
position = "{44, 1152}";
},
{
name = topright;
position = "{1045, 1020}";
}
);
background = {
paths = (
{
closed = 1;
nodes = (
"510 674 OFFCURVE",
"340 674 CURVE SMOOTH",
"170 674 OFFCURVE",
"50 532 OFFCURVE",
"50 330 CURVE SMOOTH",
"50 128 OFFCURVE",
"170 -14 OFFCURVE",
"340 -14 CURVE SMOOTH",
"510 -14 OFFCURVE",
"630 128 OFFCURVE",
"630 330 CURVE SMOOTH",
"630 532 OFFCURVE"
);
},
{
closed = 1;
nodes = (
"472 34 OFFCURVE",
"340 34 CURVE SMOOTH",
"208 34 OFFCURVE",
"152 150 OFFCURVE",
"152 330 CURVE SMOOTH",
"152 510 OFFCURVE",
"208 626 OFFCURVE",
"340 626 CURVE SMOOTH",
"472 626 OFFCURVE",
"528 510 OFFCURVE",
"528 330 CURVE SMOOTH",
"528 150 OFFCURVE"
);
}
);
};
layerId = "59F31D40-6FCC-412D-85D2-AC9268FECF70";
paths = (
{
closed = 1;
nodes = (
"839 -30 OFFCURVE",
"1015 195 OFFCURVE",
"1051 578 CURVE SMOOTH",
"1087 971 OFFCURVE",
"945 1182 OFFCURVE",
"619 1182 CURVE SMOOTH",
"299 1182 OFFCURVE",
"109 971 OFFCURVE",
"71 576 CURVE SMOOTH",
"35 195 OFFCURVE",
"171 -30 OFFCURVE",
"504 -30 CURVE SMOOTH"
);
},
{
closed = 1;
nodes = (
"781 972 OFFCURVE",
"829 808 OFFCURVE",
"801 575 CURVE SMOOTH",
"773 334 OFFCURVE",
"671 180 OFFCURVE",
"511 180 CURVE SMOOTH",
"351 180 OFFCURVE",
"289 334 OFFCURVE",
"321 574 CURVE SMOOTH",
"352 808 OFFCURVE",
"450 972 OFFCURVE",
"615 972 CURVE SMOOTH"
);
}
);
width = 1100;
},
{
anchors = (
{
name = bottom;
position = "{447, 0}";
},
{
name = center;
position = "{547, 576}";
},
{
name = ogonek;
position = "{1007, 10}";
},
{
name = top;
position = "{547, 1152}";
},
{
name = topleft;
position = "{-8, 1152}";
},
{
name = topright;
position = "{1000, 900}";
}
);
background = {
paths = (
{
closed = 1;
nodes = (
"762 674 OFFCURVE",
"592 674 CURVE SMOOTH",
"422 674 OFFCURVE",
"302 532 OFFCURVE",
"302 330 CURVE SMOOTH",
"302 128 OFFCURVE",
"422 -14 OFFCURVE",
"592 -14 CURVE SMOOTH",
"762 -14 OFFCURVE",
"882 128 OFFCURVE",
"882 330 CURVE SMOOTH",
"882 532 OFFCURVE"
);
},
{
closed = 1;
nodes = (
"724 34 OFFCURVE",
"592 34 CURVE SMOOTH",
"460 34 OFFCURVE",
"404 150 OFFCURVE",
"404 330 CURVE SMOOTH",
"404 510 OFFCURVE",
"460 626 OFFCURVE",
"592 626 CURVE SMOOTH",
"724 626 OFFCURVE",
"780 510 OFFCURVE",
"780 330 CURVE SMOOTH",
"780 150 OFFCURVE"
);
}
);
};
layerId = "A3C9B703-72F4-4F0D-9958-30991330B555";
paths = (
{
closed = 1;
nodes = (
"796 -30 OFFCURVE",
"1001 195 OFFCURVE",
"1033 578 CURVE SMOOTH",
"1066 971 OFFCURVE",
"892 1182 OFFCURVE",
"633 1182 CURVE SMOOTH",
"379 1182 OFFCURVE",
"168 971 OFFCURVE",
"134 576 CURVE SMOOTH",
"101 195 OFFCURVE",
"263 -30 OFFCURVE",
"529 -30 CURVE SMOOTH"
);
},
{
closed = 1;
nodes = (
"873 1155 OFFCURVE",
"1030 958 OFFCURVE",
"1000 578 CURVE SMOOTH",
"972 223 OFFCURVE",
"779 -8 OFFCURVE",
"529 -3 CURVE SMOOTH",
"286 2 OFFCURVE",
"134 202 OFFCURVE",
"167 576 CURVE SMOOTH",
"201 958 OFFCURVE",
"395 1155 OFFCURVE",
"632 1155 CURVE SMOOTH"
);
}
);
width = 1140;
}
);
leftKerningGroup = O;
rightKerningGroup = O;
unicode = 004F;
},
{
glyphname = Oslash;
lastChange = "2019-03-03 02:15:04 +0000";
layers = (
{
anchors = (
{
name = top;
position = "{695, 1152}";
}
);
layerId = "B520048A-B5B0-4F8C-90F0-FFAF6C62D524";
paths = (
{
closed = 1;
nodes = (
"1065 -30 OFFCURVE",
"1274 235 OFFCURVE",
"1274 576 CURVE SMOOTH",
"1274 931 OFFCURVE",
"1050 1182 OFFCURVE",
"687 1182 CURVE SMOOTH",
"324 1182 OFFCURVE",
"100 931 OFFCURVE",
"100 576 CURVE SMOOTH",
"100 235 OFFCURVE",
"309 -30 OFFCURVE",
"687 -30 CURVE SMOOTH"
);
},
{
closed = 1;
nodes = (
"956 1060 OFFCURVE",
"1142 850 OFFCURVE",
"1142 573 CURVE SMOOTH",
"1142 291 OFFCURVE",
"955 96 OFFCURVE",
"687 96 CURVE SMOOTH",
"419 96 OFFCURVE",
"232 291 OFFCURVE",
"232 573 CURVE SMOOTH",
"232 850 OFFCURVE",
"416 1060 OFFCURVE",
"687 1060 CURVE SMOOTH"
);
},
{
closed = 1;
nodes = (
"-6 -94 LINE",
"173 -94 LINE",
"1380 1246 LINE",
"1191 1246 LINE"
);
}
);
width = 1374;
},
{
anchors = (
{
name = top;
position = "{645, 1152}";
}
);
layerId = "21D66A2E-3203-408D-B482-78BB09110413";
paths = (
{
closed = 1;
nodes = (
"1037 -30 OFFCURVE",
"1250 235 OFFCURVE",
"1250 576 CURVE SMOOTH",
"1250 931 OFFCURVE",
"1021 1182 OFFCURVE",
"650 1182 CURVE SMOOTH",
"279 1182 OFFCURVE",
"50 931 OFFCURVE",
"50 576 CURVE SMOOTH",
"50 235 OFFCURVE",
"263 -30 OFFCURVE",
"650 -30 CURVE SMOOTH"
);
},
{
closed = 1;
nodes = (
"869 976 OFFCURVE",
"1029 804 OFFCURVE",
"1029 574 CURVE SMOOTH",
"1029 341 OFFCURVE",
"869 180 OFFCURVE",
"650 180 CURVE SMOOTH",
"431 180 OFFCURVE",
"271 343 OFFCURVE",
"271 576 CURVE SMOOTH",
"271 806 OFFCURVE",
"429 976 OFFCURVE",
"650 976 CURVE SMOOTH"
);
},
{
closed = 1;
nodes = (
"-60 -83 LINE",
"198 -83 LINE",
"1360 1235 LINE",
"1102 1235 LINE"
);
}
);
width = 1300;
},
{
anchors = (
{
name = top;
position = "{735, 1152}";
}
);
layerId = "4CECAF9F-8433-4C1D-B398-9C9ECB761FA2";
paths = (
{
closed = 1;
nodes = (
"1115 -18 OFFCURVE",
"1314 235 OFFCURVE",
"1314 576 CURVE SMOOTH",
"1314 931 OFFCURVE",
"1100 1170 OFFCURVE",
"737 1170 CURVE SMOOTH",
"374 1170 OFFCURVE",
"160 931 OFFCURVE",
"160 576 CURVE SMOOTH",
"160 235 OFFCURVE",
"359 -18 OFFCURVE",
"737 -18 CURVE SMOOTH"
);
},
{
closed = 1;
nodes = (
"1076 1144 OFFCURVE",
"1282 908 OFFCURVE",
"1282 572 CURVE SMOOTH",
"1282 229 OFFCURVE",
"1084 12 OFFCURVE",
"737 12 CURVE SMOOTH",
"390 12 OFFCURVE",
"192 229 OFFCURVE",
"192 572 CURVE SMOOTH",
"192 908 OFFCURVE",
"386 1144 OFFCURVE",
"737 1144 CURVE SMOOTH"
);
},
{
closed = 1;
nodes = (
"165 -14 LINE",
"209 -14 LINE",
"1313 1174 LINE",
"1269 1174 LINE"
);
}
);
width = 1474;
},
{
anchors = (
{
name = bottom;
position = "{615, 0}";
},
{
name = top;
position = "{615, 1152}";
}
);
components = (
{
name = O;
},
{
name = slashlongcomb;
transform = "{1, 0, 0, 1, 308, 55}";
}
);
layerId = "E81C9CF6-C278-46EE-B3DD-D93820CD8949";
width = 1286;
},
{
anchors = (
{
name = bottom;
position = "{351, 0}";
},
{
name = top;
position = "{605, 1152}";
}
);
components = (
{
name = O;
},
{
name = slashlongcomb;
transform = "{1, 0, 0, 1, 304, 126}";
}
);
layerId = "07CFD988-7AB2-42E7-A00D-A2450F106178";
width = 1474;
},
{
anchors = (
{
name = bottom;
position = "{351, 0}";
},
{
name = top;
position = "{605, 1152}";
}
);
components = (
{
name = O;
},
{
name = slashlongcomb;
transform = "{1, 0, 0, 1, 74, 126}";
}
);
layerId = "8F4C15E6-FE25-4FE1-BA9A-20FEE9FEA92B";
width = 1000;
},
{
anchors = (
{
name = top;
position = "{645, 1152}";
}
);
components = (
{
name = O;
},
{
name = slashlongcomb;
transform = "{1, 0, 0, 1, 366, 55}";
}
);
layerId = "59F31D40-6FCC-412D-85D2-AC9268FECF70";
width = 1100;
},
{
anchors = (
{
name = bottom;
position = "{351, 0}";
},
{
name = top;
position = "{605, 1152}";
}
);
components = (
{
name = O;
},
{
name = slashlongcomb;
transform = "{1, 0, 0, 1, 144, 126}";
}
);
layerId = "A3C9B703-72F4-4F0D-9958-30991330B555";
width = 1140;
}
);
unicode = 00D8;
},
{
glyphname = OE;
lastChange = "2019-03-05 23:43:48 +0000";
layers = (
{
layerId = "B520048A-B5B0-4F8C-90F0-FFAF6C62D524";
paths = (
{
closed = 1;
nodes = (
"834 543 LINE",
"1506 543 LINE",
"1506 670 LINE",
"834 670 LINE"
);
},
{
closed = 1;
nodes = (
"834 0 LINE",
"1618 0 LINE",
"1618 130 LINE",
"834 130 LINE"
);
},
{
closed = 1;
nodes = (
"834 1025 LINE",
"1539 1025 LINE",
"1539 1152 LINE",
"834 1152 LINE"
);
},
{
closed = 1;
nodes = (
"1055 -18 OFFCURVE",
"1254 235 OFFCURVE",
"1254 576 CURVE SMOOTH",
"1254 931 OFFCURVE",
"1040 1170 OFFCURVE",
"677 1170 CURVE SMOOTH",
"314 1170 OFFCURVE",
"100 931 OFFCURVE",
"100 576 CURVE SMOOTH",
"100 235 OFFCURVE",
"299 -18 OFFCURVE",
"677 -18 CURVE SMOOTH"
);
},
{
closed = 1;
nodes = (
"936 1044 OFFCURVE",
"1112 850 OFFCURVE",
"1112 573 CURVE SMOOTH",
"1112 291 OFFCURVE",
"935 112 OFFCURVE",
"677 112 CURVE SMOOTH",
"419 112 OFFCURVE",
"242 291 OFFCURVE",
"242 573 CURVE SMOOTH",
"242 850 OFFCURVE",
"416 1044 OFFCURVE",
"677 1044 CURVE SMOOTH"
);
}
);
width = 1708;
},
{
layerId = "21D66A2E-3203-408D-B482-78BB09110413";
paths = (
{
closed = 1;
nodes = (
"1040 443 LINE",
"1582 443 LINE",
"1582 670 LINE",
"1040 670 LINE"
);
},
{
closed = 1;
nodes = (
"1040 0 LINE",
"1694 0 LINE",
"1694 230 LINE",
"1040 230 LINE"
);
},
{
closed = 1;
nodes = (
"1040 925 LINE",
"1615 925 LINE",
"1615 1152 LINE",
"1040 1152 LINE"
);
},
{
closed = 1;
nodes = (
"1022 -18 OFFCURVE",
"1204 235 OFFCURVE",
"1204 576 CURVE SMOOTH",
"1204 931 OFFCURVE",
"1006 1170 OFFCURVE",
"637 1170 CURVE SMOOTH",
"268 1170 OFFCURVE",
"50 931 OFFCURVE",
"50 576 CURVE SMOOTH",
"50 235 OFFCURVE",
"252 -18 OFFCURVE",
"637 -18 CURVE SMOOTH"
);
},
{
closed = 1;
nodes = (
"836 944 OFFCURVE",
"972 792 OFFCURVE",
"972 574 CURVE SMOOTH",
"972 353 OFFCURVE",
"836 212 OFFCURVE",
"637 212 CURVE SMOOTH",
"438 212 OFFCURVE",
"302 353 OFFCURVE",
"302 574 CURVE SMOOTH",
"302 792 OFFCURVE",
"436 944 OFFCURVE",
"637 944 CURVE SMOOTH"
);
}
);
width = 1744;
},
{
layerId = "4CECAF9F-8433-4C1D-B398-9C9ECB761FA2";
paths = (
{
closed = 1;
nodes = (
"1022 594 LINE",
"1666 594 LINE",
"1666 621 LINE",
"1022 621 LINE"
);
},
{
closed = 1;
nodes = (
"902 3 LINE",
"1686 3 LINE",
"1686 30 LINE",
"902 30 LINE"
);
},
{
closed = 1;
nodes = (
"902 1128 LINE",
"1666 1128 LINE",
"1666 1155 LINE",
"902 1155 LINE"
);
},
{
closed = 1;
nodes = (
"1115 -15 OFFCURVE",
"1314 238 OFFCURVE",
"1314 579 CURVE SMOOTH",
"1314 934 OFFCURVE",
"1100 1173 OFFCURVE",
"737 1173 CURVE SMOOTH",
"374 1173 OFFCURVE",
"160 934 OFFCURVE",
"160 579 CURVE SMOOTH",
"160 238 OFFCURVE",
"359 -15 OFFCURVE",
"737 -15 CURVE SMOOTH"
);
},
{
closed = 1;
nodes = (
"1076 1144 OFFCURVE",
"1282 908 OFFCURVE",
"1282 572 CURVE SMOOTH",
"1282 229 OFFCURVE",
"1084 12 OFFCURVE",
"737 12 CURVE SMOOTH",
"390 12 OFFCURVE",
"192 229 OFFCURVE",
"192 572 CURVE SMOOTH",
"192 908 OFFCURVE",
"386 1144 OFFCURVE",
"737 1144 CURVE SMOOTH"
);
}
);
width = 1816;
},
{
layerId = "E81C9CF6-C278-46EE-B3DD-D93820CD8949";
paths = (
{
closed = 1;
nodes = (
"1020 443 LINE",
"1562 443 LINE",
"1562 670 LINE",
"1020 670 LINE"
);
},
{
closed = 1;
nodes = (
"1020 0 LINE",
"1674 0 LINE",
"1674 230 LINE",
"1020 230 LINE"
);
},
{
closed = 1;
nodes = (
"1020 925 LINE",
"1595 925 LINE",
"1595 1152 LINE",
"1020 1152 LINE"
);
},
{
closed = 1;
nodes = (
"1002 -18 OFFCURVE",
"1184 235 OFFCURVE",
"1184 576 CURVE SMOOTH",
"1184 931 OFFCURVE",
"986 1170 OFFCURVE",
"617 1170 CURVE SMOOTH",
"248 1170 OFFCURVE",
"30 931 OFFCURVE",
"30 576 CURVE SMOOTH",
"30 235 OFFCURVE",
"232 -18 OFFCURVE",
"617 -18 CURVE SMOOTH"
);
},
{
closed = 1;
nodes = (
"816 944 OFFCURVE",
"952 792 OFFCURVE",
"952 574 CURVE SMOOTH",
"952 353 OFFCURVE",
"816 212 OFFCURVE",
"617 212 CURVE SMOOTH",
"418 212 OFFCURVE",
"282 353 OFFCURVE",
"282 574 CURVE SMOOTH",
"282 792 OFFCURVE",
"416 944 OFFCURVE",
"617 944 CURVE SMOOTH"
);
}
);
width = 1714;
},
{
layerId = "07CFD988-7AB2-42E7-A00D-A2450F106178";
paths = (
{
closed = 1;
nodes = (
"1022 594 LINE",
"1666 594 LINE",
"1666 621 LINE",
"1022 621 LINE"
);
},
{
closed = 1;
nodes = (
"902 3 LINE",
"1686 3 LINE",
"1686 30 LINE",
"902 30 LINE"
);
},
{
closed = 1;
nodes = (
"902 1128 LINE",
"1666 1128 LINE",
"1666 1155 LINE",
"902 1155 LINE"
);
},
{
closed = 1;
nodes = (
"1115 -15 OFFCURVE",
"1314 238 OFFCURVE",
"1314 579 CURVE SMOOTH",
"1314 934 OFFCURVE",
"1100 1173 OFFCURVE",
"737 1173 CURVE SMOOTH",
"374 1173 OFFCURVE",
"160 934 OFFCURVE",
"160 579 CURVE SMOOTH",
"160 238 OFFCURVE",
"359 -15 OFFCURVE",
"737 -15 CURVE SMOOTH"
);
},
{
closed = 1;
nodes = (
"1076 1144 OFFCURVE",
"1282 908 OFFCURVE",
"1282 572 CURVE SMOOTH",
"1282 229 OFFCURVE",
"1084 12 OFFCURVE",
"737 12 CURVE SMOOTH",
"390 12 OFFCURVE",
"192 229 OFFCURVE",
"192 572 CURVE SMOOTH",
"192 908 OFFCURVE",
"386 1144 OFFCURVE",
"737 1144 CURVE SMOOTH"
);
}
);
width = 1816;
},
{
layerId = "8F4C15E6-FE25-4FE1-BA9A-20FEE9FEA92B";
paths = (
{
closed = 1;
nodes = (
"834 543 LINE",
"1506 543 LINE",
"1506 670 LINE",
"834 670 LINE"
);
},
{
closed = 1;
nodes = (
"834 0 LINE",
"1618 0 LINE",
"1618 130 LINE",
"834 130 LINE"
);
},
{
closed = 1;
nodes = (
"834 1025 LINE",
"1539 1025 LINE",
"1539 1152 LINE",
"834 1152 LINE"
);
},
{
closed = 1;
nodes = (
"1055 -18 OFFCURVE",
"1254 235 OFFCURVE",
"1254 576 CURVE SMOOTH",
"1254 931 OFFCURVE",
"1040 1170 OFFCURVE",
"677 1170 CURVE SMOOTH",
"314 1170 OFFCURVE",
"100 931 OFFCURVE",
"100 576 CURVE SMOOTH",
"100 235 OFFCURVE",
"299 -18 OFFCURVE",
"677 -18 CURVE SMOOTH"
);
},
{
closed = 1;
nodes = (
"936 1044 OFFCURVE",
"1112 850 OFFCURVE",
"1112 573 CURVE SMOOTH",
"1112 291 OFFCURVE",
"935 112 OFFCURVE",
"677 112 CURVE SMOOTH",
"419 112 OFFCURVE",
"242 291 OFFCURVE",
"242 573 CURVE SMOOTH",
"242 850 OFFCURVE",
"416 1044 OFFCURVE",
"677 1044 CURVE SMOOTH"
);
}
);
width = 1708;
},
{
layerId = "59F31D40-6FCC-412D-85D2-AC9268FECF70";
paths = (
{
closed = 1;
nodes = (
"1040 443 LINE",
"1582 443 LINE",
"1582 670 LINE",
"1040 670 LINE"
);
},
{
closed = 1;
nodes = (
"1040 0 LINE",
"1694 0 LINE",
"1694 230 LINE",
"1040 230 LINE"
);
},
{
closed = 1;
nodes = (
"1040 925 LINE",
"1615 925 LINE",
"1615 1152 LINE",
"1040 1152 LINE"
);
},
{
closed = 1;
nodes = (
"1022 -18 OFFCURVE",
"1204 235 OFFCURVE",
"1204 576 CURVE SMOOTH",
"1204 931 OFFCURVE",
"1006 1170 OFFCURVE",
"637 1170 CURVE SMOOTH",
"268 1170 OFFCURVE",
"50 931 OFFCURVE",
"50 576 CURVE SMOOTH",
"50 235 OFFCURVE",
"252 -18 OFFCURVE",
"637 -18 CURVE SMOOTH"
);
},
{
closed = 1;
nodes = (
"836 944 OFFCURVE",
"972 792 OFFCURVE",
"972 574 CURVE SMOOTH",
"972 353 OFFCURVE",
"836 212 OFFCURVE",
"637 212 CURVE SMOOTH",
"438 212 OFFCURVE",
"302 353 OFFCURVE",
"302 574 CURVE SMOOTH",
"302 792 OFFCURVE",
"436 944 OFFCURVE",
"637 944 CURVE SMOOTH"
);
}
);
width = 1744;
},
{
layerId = "A3C9B703-72F4-4F0D-9958-30991330B555";
paths = (
{
closed = 1;
nodes = (
"796 -30 OFFCURVE",
"1001 195 OFFCURVE",
"1033 578 CURVE SMOOTH",
"1066 971 OFFCURVE",
"892 1182 OFFCURVE",
"633 1182 CURVE SMOOTH",
"379 1182 OFFCURVE",
"168 971 OFFCURVE",
"134 576 CURVE SMOOTH",
"101 195 OFFCURVE",
"263 -30 OFFCURVE",
"529 -30 CURVE SMOOTH"
);
},
{
closed = 1;
nodes = (
"873 1155 OFFCURVE",
"1030 958 OFFCURVE",
"1000 578 CURVE SMOOTH",
"972 223 OFFCURVE",
"779 -8 OFFCURVE",
"529 -3 CURVE SMOOTH",
"286 2 OFFCURVE",
"134 202 OFFCURVE",
"167 576 CURVE SMOOTH",
"201 958 OFFCURVE",
"395 1155 OFFCURVE",
"632 1155 CURVE SMOOTH"
);
},
{
closed = 1;
nodes = (
"1006 593 LINE",
"1553 593 LINE",
"1553 620 LINE",
"1015 620 LINE"
);
},
{
closed = 1;
nodes = (
"1553 0 LINE",
"1553 28 LINE",
"955 28 LINE",
"944 0 LINE"
);
},
{
closed = 1;
nodes = (
"1027 1125 LINE",
"1625 1125 LINE",
"1625 1152 LINE",
"1024 1152 LINE"
);
}
);
width = 1708;
}
);
leftKerningGroup = O;
leftMetricsKey = O;
rightMetricsKey = E;
unicode = 0152;
},
{
glyphname = P;
lastChange = "2018-11-30 00:30:58 +0000";
layers = (
{
anchors = (
{
name = bottom;
position = "{428, 0}";
},
{
name = top;
position = "{428, 1152}";
}
);
background = {
paths = (
{
closed = 1;
nodes = (
"292 0 LINE",
"292 508 LINE",
"344 510 OFFCURVE",
"376 504 OFFCURVE",
"411 483 CURVE SMOOTH",
"540 407 OFFCURVE",
"721 122 OFFCURVE",
"784 0 CURVE",
"959 0 LINE",
"866 159 OFFCURVE",
"706 431 OFFCURVE",
"536 510 CURVE",
"536 513 LINE",
"718 534 OFFCURVE",
"824 670 OFFCURVE",
"824 855 CURVE SMOOTH",
"824 1072 OFFCURVE",
"681 1152 OFFCURVE",
"450 1152 CURVE SMOOTH",
"144 1152 LINE",
"144 0 LINE"
);
},
{
closed = 1;
nodes = (
"292 1040 LINE",
"441 1040 LINE SMOOTH",
"606 1040 OFFCURVE",
"672 997 OFFCURVE",
"674 852 CURVE SMOOTH",
"676 695 OFFCURVE",
"601 602 OFFCURVE",
"431 602 CURVE SMOOTH",
"292 602 LINE"
);
}
);
};
layerId = "B520048A-B5B0-4F8C-90F0-FFAF6C62D524";
paths = (
{
closed = 1;
nodes = (
"144 1152 LINE",
"144 0 LINE",
"288 0 LINE",
"288 438 LINE",
"450 438 LINE SMOOTH",
"685 438 OFFCURVE",
"846 564 OFFCURVE",
"846 804 CURVE SMOOTH",
"846 1034 OFFCURVE",
"695 1152 OFFCURVE",
"481 1152 CURVE SMOOTH"
);
},
{
closed = 1;
nodes = (
"476 1022 LINE SMOOTH",
"600 1022 OFFCURVE",
"698 962 OFFCURVE",
"698 800 CURVE SMOOTH",
"698 637 OFFCURVE",
"601 568 OFFCURVE",
"452 568 CURVE SMOOTH",
"288 568 LINE",
"288 1022 LINE"
);
}
);
width = 910;
},
{
anchors = (
{
name = bottom;
position = "{511, 0}";
},
{
name = top;
position = "{511, 1152}";
}
);
layerId = "21D66A2E-3203-408D-B482-78BB09110413";
paths = (
{
closed = 1;
nodes = (
"80 1152 LINE",
"80 0 LINE",
"300 0 LINE",
"300 358 LINE",
"496 358 LINE SMOOTH",
"731 358 OFFCURVE",
"902 495 OFFCURVE",
"902 765 CURVE SMOOTH",
"902 1024 OFFCURVE",
"741 1152 OFFCURVE",
"527 1152 CURVE SMOOTH"
);
},
{
closed = 1;
nodes = (
"486 942 LINE SMOOTH",
"586 942 OFFCURVE",
"674 896 OFFCURVE",
"674 758 CURVE SMOOTH",
"674 622 OFFCURVE",
"587 568 OFFCURVE",
"467 568 CURVE SMOOTH",
"300 568 LINE",
"300 942 LINE"
);
}
);
width = 934;
},
{
anchors = (
{
name = bottom;
position = "{484, 0}";
},
{
name = top;
position = "{484, 1152}";
}
);
background = {
paths = (
{
closed = 1;
nodes = (
"348 0 LINE",
"348 508 LINE",
"400 510 OFFCURVE",
"432 504 OFFCURVE",
"467 483 CURVE SMOOTH",
"596 407 OFFCURVE",
"777 122 OFFCURVE",
"840 0 CURVE",
"1015 0 LINE",
"922 159 OFFCURVE",
"762 431 OFFCURVE",
"592 510 CURVE",
"592 513 LINE",
"774 534 OFFCURVE",
"880 670 OFFCURVE",
"880 855 CURVE SMOOTH",
"880 1072 OFFCURVE",
"737 1152 OFFCURVE",
"506 1152 CURVE SMOOTH",
"200 1152 LINE",
"200 0 LINE"
);
},
{
closed = 1;
nodes = (
"348 1040 LINE",
"497 1040 LINE SMOOTH",
"662 1040 OFFCURVE",
"728 997 OFFCURVE",
"730 852 CURVE SMOOTH",
"732 695 OFFCURVE",
"657 602 OFFCURVE",
"487 602 CURVE SMOOTH",
"348 602 LINE"
);
}
);
};
layerId = "4CECAF9F-8433-4C1D-B398-9C9ECB761FA2";
paths = (
{
closed = 1;
nodes = (
"200 1152 LINE",
"200 0 LINE",
"236 0 LINE",
"236 438 LINE",
"496 438 LINE SMOOTH",
"741 438 OFFCURVE",
"902 564 OFFCURVE",
"902 804 CURVE SMOOTH",
"902 1034 OFFCURVE",
"751 1152 OFFCURVE",
"527 1152 CURVE SMOOTH"
);
},
{
closed = 1;
nodes = (
"522 1122 LINE SMOOTH",
"716 1122 OFFCURVE",
"868 1025 OFFCURVE",
"868 802 CURVE SMOOTH",
"868 578 OFFCURVE",
"717 468 OFFCURVE",
"498 468 CURVE SMOOTH",
"236 468 LINE",
"236 1122 LINE"
);
}
);
width = 1012;
},
{
anchors = (
{
name = bottom;
position = "{581, 0}";
},
{
name = top;
position = "{581, 1152}";
}
);
layerId = "E81C9CF6-C278-46EE-B3DD-D93820CD8949";
paths = (
{
closed = 1;
nodes = (
"50 1152 LINE",
"50 0 LINE",
"434 0 LINE",
"434 258 LINE",
"576 258 LINE SMOOTH",
"828 258 OFFCURVE",
"1014 412 OFFCURVE",
"1014 716 CURVE SMOOTH",
"1014 1008 OFFCURVE",
"839 1152 OFFCURVE",
"609 1152 CURVE SMOOTH"
);
},
{
closed = 1;
nodes = (
"517 802 LINE SMOOTH",
"584 802 OFFCURVE",
"644 778 OFFCURVE",
"644 707 CURVE SMOOTH",
"644 636 OFFCURVE",
"585 608 OFFCURVE",
"504 608 CURVE SMOOTH",
"434 608 LINE",
"434 802 LINE"
);
}
);
width = 1024;
},
{
anchors = (
{
name = bottom;
position = "{484, 0}";
},
{
name = top;
position = "{484, 1152}";
}
);
background = {
paths = (
{
closed = 1;
nodes = (
"348 0 LINE",
"348 508 LINE",
"400 510 OFFCURVE",
"432 504 OFFCURVE",
"467 483 CURVE SMOOTH",
"596 407 OFFCURVE",
"777 122 OFFCURVE",
"840 0 CURVE",
"1015 0 LINE",
"922 159 OFFCURVE",
"762 431 OFFCURVE",
"592 510 CURVE",
"592 513 LINE",
"774 534 OFFCURVE",
"880 670 OFFCURVE",
"880 855 CURVE SMOOTH",
"880 1072 OFFCURVE",
"737 1152 OFFCURVE",
"506 1152 CURVE SMOOTH",
"200 1152 LINE",
"200 0 LINE"
);
},
{
closed = 1;
nodes = (
"348 1040 LINE",
"497 1040 LINE SMOOTH",
"662 1040 OFFCURVE",
"728 997 OFFCURVE",
"730 852 CURVE SMOOTH",
"732 695 OFFCURVE",
"657 602 OFFCURVE",
"487 602 CURVE SMOOTH",
"348 602 LINE"
);
}
);
};
layerId = "07CFD988-7AB2-42E7-A00D-A2450F106178";
paths = (
{
closed = 1;
nodes = (
"200 1152 LINE",
"200 0 LINE",
"236 0 LINE",
"236 438 LINE",
"496 438 LINE SMOOTH",
"741 438 OFFCURVE",
"902 564 OFFCURVE",
"902 804 CURVE SMOOTH",
"902 1034 OFFCURVE",
"751 1152 OFFCURVE",
"527 1152 CURVE SMOOTH"
);
},
{
closed = 1;
nodes = (
"522 1122 LINE SMOOTH",
"716 1122 OFFCURVE",
"868 1025 OFFCURVE",
"868 802 CURVE SMOOTH",
"868 578 OFFCURVE",
"717 468 OFFCURVE",
"498 468 CURVE SMOOTH",
"236 468 LINE",
"236 1122 LINE"
);
}
);
width = 1012;
},
{
anchors = (
{
name = bottom;
position = "{428, 0}";
},
{
name = top;
position = "{428, 1152}";
}
);
background = {
paths = (
{
closed = 1;
nodes = (
"292 0 LINE",
"292 508 LINE",
"344 510 OFFCURVE",
"376 504 OFFCURVE",
"411 483 CURVE SMOOTH",
"540 407 OFFCURVE",
"721 122 OFFCURVE",
"784 0 CURVE",
"959 0 LINE",
"866 159 OFFCURVE",
"706 431 OFFCURVE",
"536 510 CURVE",
"536 513 LINE",
"718 534 OFFCURVE",
"824 670 OFFCURVE",
"824 855 CURVE SMOOTH",
"824 1072 OFFCURVE",
"681 1152 OFFCURVE",
"450 1152 CURVE SMOOTH",
"144 1152 LINE",
"144 0 LINE"
);
},
{
closed = 1;
nodes = (
"292 1040 LINE",
"441 1040 LINE SMOOTH",
"606 1040 OFFCURVE",
"672 997 OFFCURVE",
"674 852 CURVE SMOOTH",
"676 695 OFFCURVE",
"601 602 OFFCURVE",
"431 602 CURVE SMOOTH",
"292 602 LINE"
);
}
);
};
layerId = "8F4C15E6-FE25-4FE1-BA9A-20FEE9FEA92B";
paths = (
{
closed = 1;
nodes = (
"239 1022 LINE",
"305 1029 LINE SMOOTH",
"489 1049 OFFCURVE",
"667 998 OFFCURVE",
"659 803 CURVE SMOOTH",
"651 617 OFFCURVE",
"491 528 OFFCURVE",
"193 528 CURVE",
"193 398 LINE",
"568 398 OFFCURVE",
"787 544 OFFCURVE",
"799 807 CURVE SMOOTH",
"811 1074 OFFCURVE",
"583 1202 OFFCURVE",
"231 1159 CURVE SMOOTH",
"174 1152 LINE",
"114 0 LINE",
"254 0 LINE",
"314 1152 LINE"
);
}
);
width = 800;
},
{
anchors = (
{
name = bottom;
position = "{578, 0}";
},
{
name = top;
position = "{578, 1152}";
}
);
layerId = "59F31D40-6FCC-412D-85D2-AC9268FECF70";
paths = (
{
closed = 1;
nodes = (
"296 934 LINE",
"348 939 LINE SMOOTH",
"552 959 OFFCURVE",
"649 915 OFFCURVE",
"643 774 CURVE SMOOTH",
"637 622 OFFCURVE",
"515 533 OFFCURVE",
"260 533 CURVE",
"260 313 LINE",
"655 313 OFFCURVE",
"875 544 OFFCURVE",
"887 807 CURVE SMOOTH",
"899 1074 OFFCURVE",
"672 1177 OFFCURVE",
"298 1159 CURVE SMOOTH",
"151 1152 LINE",
"91 0 LINE",
"321 0 LINE",
"381 1152 LINE"
);
}
);
width = 900;
},
{
anchors = (
{
name = bottom;
position = "{458, 0}";
},
{
name = top;
position = "{458, 1152}";
}
);
background = {
paths = (
{
closed = 1;
nodes = (
"322 0 LINE",
"322 508 LINE",
"374 510 OFFCURVE",
"406 504 OFFCURVE",
"441 483 CURVE SMOOTH",
"570 407 OFFCURVE",
"751 122 OFFCURVE",
"814 0 CURVE",
"989 0 LINE",
"896 159 OFFCURVE",
"736 431 OFFCURVE",
"566 510 CURVE",
"566 513 LINE",
"748 534 OFFCURVE",
"854 670 OFFCURVE",
"854 855 CURVE SMOOTH",
"854 1072 OFFCURVE",
"711 1152 OFFCURVE",
"480 1152 CURVE SMOOTH",
"174 1152 LINE",
"174 0 LINE"
);
},
{
closed = 1;
nodes = (
"322 1040 LINE",
"471 1040 LINE SMOOTH",
"636 1040 OFFCURVE",
"702 997 OFFCURVE",
"704 852 CURVE SMOOTH",
"706 695 OFFCURVE",
"631 602 OFFCURVE",
"461 602 CURVE SMOOTH",
"322 602 LINE"
);
}
);
};
layerId = "A3C9B703-72F4-4F0D-9958-30991330B555";
paths = (
{
closed = 1;
nodes = (
"209 1122 LINE",
"263 1129 LINE SMOOTH",
"554 1167 OFFCURVE",
"809 1096 OFFCURVE",
"797 807 CURVE SMOOTH",
"786 547 OFFCURVE",
"533 458 OFFCURVE",
"183 417 CURVE",
"183 388 LINE",
"558 428 OFFCURVE",
"816 524 OFFCURVE",
"829 807 CURVE SMOOTH",
"843 1106 OFFCURVE",
"573 1197 OFFCURVE",
"261 1159 CURVE SMOOTH",
"204 1152 LINE",
"144 0 LINE",
"174 0 LINE",
"234 1152 LINE"
);
}
);
width = 860;
}
);
leftKerningGroup = H;
leftMetricsKey = H;
unicode = 0050;
},
{
glyphname = Thorn;
lastChange = "2019-03-05 23:42:59 +0000";
layers = (
{
layerId = "B520048A-B5B0-4F8C-90F0-FFAF6C62D524";
paths = (
{
closed = 1;
nodes = (
"288 0 LINE",
"288 222 LINE",
"450 222 LINE SMOOTH",
"685 222 OFFCURVE",
"846 348 OFFCURVE",
"846 588 CURVE SMOOTH",
"846 818 OFFCURVE",
"695 936 OFFCURVE",
"481 936 CURVE SMOOTH",
"288 936 LINE",
"288 1152 LINE",
"144 1152 LINE",
"144 0 LINE"
);
},
{
closed = 1;
nodes = (
"288 806 LINE",
"476 806 LINE SMOOTH",
"600 806 OFFCURVE",
"698 746 OFFCURVE",
"698 584 CURVE SMOOTH",
"698 421 OFFCURVE",
"601 352 OFFCURVE",
"452 352 CURVE SMOOTH",
"288 352 LINE"
);
}
);
width = 946;
},
{
layerId = "21D66A2E-3203-408D-B482-78BB09110413";
paths = (
{
closed = 1;
nodes = (
"324 0 LINE",
"324 198 LINE",
"496 198 LINE SMOOTH",
"731 198 OFFCURVE",
"892 335 OFFCURVE",
"892 595 CURVE SMOOTH",
"892 844 OFFCURVE",
"741 972 OFFCURVE",
"527 972 CURVE SMOOTH",
"324 972 LINE",
"324 1152 LINE",
"80 1152 LINE",
"80 0 LINE"
);
},
{
closed = 1;
nodes = (
"324 742 LINE",
"476 742 LINE SMOOTH",
"570 742 OFFCURVE",
"644 701 OFFCURVE",
"644 588 CURVE SMOOTH",
"644 476 OFFCURVE",
"571 428 OFFCURVE",
"458 428 CURVE SMOOTH",
"324 428 LINE"
);
}
);
width = 946;
},
{
layerId = "4CECAF9F-8433-4C1D-B398-9C9ECB761FA2";
paths = (
{
closed = 1;
nodes = (
"236 0 LINE",
"236 222 LINE",
"496 222 LINE SMOOTH",
"741 222 OFFCURVE",
"902 348 OFFCURVE",
"902 588 CURVE SMOOTH",
"902 818 OFFCURVE",
"751 936 OFFCURVE",
"527 936 CURVE SMOOTH",
"236 936 LINE",
"236 1152 LINE",
"200 1152 LINE",
"200 0 LINE"
);
},
{
closed = 1;
nodes = (
"236 906 LINE",
"522 906 LINE SMOOTH",
"716 906 OFFCURVE",
"868 809 OFFCURVE",
"868 586 CURVE SMOOTH",
"868 362 OFFCURVE",
"717 252 OFFCURVE",
"498 252 CURVE SMOOTH",
"236 252 LINE"
);
}
);
width = 1022;
},
{
layerId = "E81C9CF6-C278-46EE-B3DD-D93820CD8949";
paths = (
{
closed = 1;
nodes = (
"294 0 LINE",
"294 198 LINE",
"466 198 LINE SMOOTH",
"701 198 OFFCURVE",
"862 335 OFFCURVE",
"862 595 CURVE SMOOTH",
"862 844 OFFCURVE",
"711 972 OFFCURVE",
"497 972 CURVE SMOOTH",
"294 972 LINE",
"294 1152 LINE",
"50 1152 LINE",
"50 0 LINE"
);
},
{
closed = 1;
nodes = (
"294 742 LINE",
"446 742 LINE SMOOTH",
"540 742 OFFCURVE",
"614 701 OFFCURVE",
"614 588 CURVE SMOOTH",
"614 476 OFFCURVE",
"541 428 OFFCURVE",
"428 428 CURVE SMOOTH",
"294 428 LINE"
);
}
);
width = 916;
},
{
layerId = "07CFD988-7AB2-42E7-A00D-A2450F106178";
paths = (
{
closed = 1;
nodes = (
"236 0 LINE",
"236 222 LINE",
"496 222 LINE SMOOTH",
"741 222 OFFCURVE",
"902 348 OFFCURVE",
"902 588 CURVE SMOOTH",
"902 818 OFFCURVE",
"751 936 OFFCURVE",
"527 936 CURVE SMOOTH",
"236 936 LINE",
"236 1152 LINE",
"200 1152 LINE",
"200 0 LINE"
);
},
{
closed = 1;
nodes = (
"236 906 LINE",
"522 906 LINE SMOOTH",
"716 906 OFFCURVE",
"868 809 OFFCURVE",
"868 586 CURVE SMOOTH",
"868 362 OFFCURVE",
"717 252 OFFCURVE",
"498 252 CURVE SMOOTH",
"236 252 LINE"
);
}
);
width = 1022;
},
{
layerId = "8F4C15E6-FE25-4FE1-BA9A-20FEE9FEA92B";
paths = (
{
closed = 1;
nodes = (
"288 0 LINE",
"288 222 LINE",
"450 222 LINE SMOOTH",
"685 222 OFFCURVE",
"846 348 OFFCURVE",
"846 588 CURVE SMOOTH",
"846 818 OFFCURVE",
"695 936 OFFCURVE",
"481 936 CURVE SMOOTH",
"288 936 LINE",
"288 1152 LINE",
"144 1152 LINE",
"144 0 LINE"
);
},
{
closed = 1;
nodes = (
"288 806 LINE",
"476 806 LINE SMOOTH",
"600 806 OFFCURVE",
"698 746 OFFCURVE",
"698 584 CURVE SMOOTH",
"698 421 OFFCURVE",
"601 352 OFFCURVE",
"452 352 CURVE SMOOTH",
"288 352 LINE"
);
}
);
width = 946;
},
{
layerId = "59F31D40-6FCC-412D-85D2-AC9268FECF70";
paths = (
{
closed = 1;
nodes = (
"324 0 LINE",
"324 198 LINE",
"496 198 LINE SMOOTH",
"731 198 OFFCURVE",
"892 335 OFFCURVE",
"892 595 CURVE SMOOTH",
"892 844 OFFCURVE",
"741 972 OFFCURVE",
"527 972 CURVE SMOOTH",
"324 972 LINE",
"324 1152 LINE",
"80 1152 LINE",
"80 0 LINE"
);
},
{
closed = 1;
nodes = (
"324 742 LINE",
"476 742 LINE SMOOTH",
"570 742 OFFCURVE",
"644 701 OFFCURVE",
"644 588 CURVE SMOOTH",
"644 476 OFFCURVE",
"571 428 OFFCURVE",
"458 428 CURVE SMOOTH",
"324 428 LINE"
);
}
);
width = 946;
},
{
layerId = "A3C9B703-72F4-4F0D-9958-30991330B555";
paths = (
{
closed = 1;
nodes = (
"397 297 LINE",
"614 297 OFFCURVE",
"800 488 OFFCURVE",
"834 717 CURVE SMOOTH",
"867 933 OFFCURVE",
"743 983 OFFCURVE",
"668 983 CURVE SMOOTH",
"506 983 OFFCURVE",
"221 746 OFFCURVE",
"193 313 CURVE SMOOTH",
"173 0 LINE",
"143 0 LINE",
"159 156 OFFCURVE",
"214 1056 OFFCURVE",
"204 1152 CURVE",
"234 1152 LINE",
"242 1061 OFFCURVE",
"210 509 OFFCURVE",
"188 297 CURVE"
);
},
{
closed = 1;
nodes = (
"194 784 OFFCURVE",
"491 1009 OFFCURVE",
"670 1009 CURVE SMOOTH",
"763 1009 OFFCURVE",
"900 950 OFFCURVE",
"864 717 CURVE SMOOTH",
"826 467 OFFCURVE",
"635 270 OFFCURVE",
"395 270 CURVE",
"166 270 LINE"
);
}
);
width = 963;
}
);
leftMetricsKey = H;
unicode = 00DE;
},
{
glyphname = Q;
lastChange = "2018-11-30 00:24:38 +0000";
layers = (
{
anchors = (
{
name = bottom;
position = "{545, 0}";
},
{
name = top;
position = "{545, 1152}";
}
);
background = {
paths = (
{
closed = 1;
nodes = (
"736 -24 LINE",
"736 0 LINE",
"584 0 LINE",
"784 -263 LINE",
"865 -348 LINE",
"1056 -293 LINE"
);
}
);
};
layerId = "B520048A-B5B0-4F8C-90F0-FFAF6C62D524";
paths = (
{
closed = 1;
nodes = (
"1055 -18 OFFCURVE",
"1254 235 OFFCURVE",
"1254 576 CURVE SMOOTH",
"1254 931 OFFCURVE",
"1040 1170 OFFCURVE",
"677 1170 CURVE SMOOTH",
"314 1170 OFFCURVE",
"100 931 OFFCURVE",
"100 576 CURVE SMOOTH",
"100 235 OFFCURVE",
"299 -18 OFFCURVE",
"677 -18 CURVE SMOOTH"
);
},
{
closed = 1;
nodes = (
"936 1044 OFFCURVE",
"1112 850 OFFCURVE",
"1112 573 CURVE SMOOTH",
"1112 291 OFFCURVE",
"935 112 OFFCURVE",
"677 112 CURVE SMOOTH",
"419 112 OFFCURVE",
"242 291 OFFCURVE",
"242 573 CURVE SMOOTH",
"242 850 OFFCURVE",
"416 1044 OFFCURVE",
"677 1044 CURVE SMOOTH"
);
},
{
closed = 1;
nodes = (
"736 76 LINE",
"604 40 LINE",
"885 -348 LINE",
"1056 -293 LINE"
);
}
);
width = 1354;
},
{
anchors = (
{
name = bottom;
position = "{605, 0}";
},
{
name = top;
position = "{605, 1152}";
}
);
layerId = "21D66A2E-3203-408D-B482-78BB09110413";
paths = (
{
closed = 1;
nodes = (
"1032 -18 OFFCURVE",
"1244 235 OFFCURVE",
"1244 576 CURVE SMOOTH",
"1244 931 OFFCURVE",
"1016 1170 OFFCURVE",
"647 1170 CURVE SMOOTH",
"278 1170 OFFCURVE",
"50 931 OFFCURVE",
"50 576 CURVE SMOOTH",
"50 235 OFFCURVE",
"262 -18 OFFCURVE",
"647 -18 CURVE SMOOTH"
);
},
{
closed = 1;
nodes = (
"859 964 OFFCURVE",
"1014 804 OFFCURVE",
"1014 574 CURVE SMOOTH",
"1014 341 OFFCURVE",
"859 192 OFFCURVE",
"647 192 CURVE SMOOTH",
"435 192 OFFCURVE",
"280 341 OFFCURVE",
"280 574 CURVE SMOOTH",
"280 804 OFFCURVE",
"433 964 OFFCURVE",
"647 964 CURVE SMOOTH"
);
},
{
closed = 1;
nodes = (
"784 76 LINE",
"592 40 LINE",
"833 -358 LINE",
"1104 -283 LINE"
);
}
);
width = 1294;
},
{
anchors = (
{
name = bottom;
position = "{545, 0}";
},
{
name = top;
position = "{545, 1152}";
}
);
background = {
paths = (
{
closed = 1;
nodes = (
"736 -24 LINE",
"736 0 LINE",
"584 0 LINE",
"784 -263 LINE",
"865 -348 LINE",
"1056 -293 LINE"
);
}
);
};
layerId = "4CECAF9F-8433-4C1D-B398-9C9ECB761FA2";
paths = (
{
closed = 1;
nodes = (
"1115 -18 OFFCURVE",
"1314 235 OFFCURVE",
"1314 576 CURVE SMOOTH",
"1314 931 OFFCURVE",
"1100 1170 OFFCURVE",
"737 1170 CURVE SMOOTH",
"374 1170 OFFCURVE",
"160 931 OFFCURVE",
"160 576 CURVE SMOOTH",
"160 235 OFFCURVE",
"359 -18 OFFCURVE",
"737 -18 CURVE SMOOTH"
);
},
{
closed = 1;
nodes = (
"1076 1144 OFFCURVE",
"1282 908 OFFCURVE",
"1282 572 CURVE SMOOTH",
"1282 229 OFFCURVE",
"1084 12 OFFCURVE",
"737 12 CURVE SMOOTH",
"390 12 OFFCURVE",
"192 229 OFFCURVE",
"192 572 CURVE SMOOTH",
"192 908 OFFCURVE",
"386 1144 OFFCURVE",
"737 1144 CURVE SMOOTH"
);
},
{
closed = 1;
nodes = (
"712 100 LINE",
"685 94 LINE",
"935 -348 LINE",
"971 -343 LINE"
);
}
);
width = 1474;
},
{
anchors = (
{
name = bottom;
position = "{605, 0}";
},
{
name = top;
position = "{605, 1152}";
}
);
layerId = "E81C9CF6-C278-46EE-B3DD-D93820CD8949";
paths = (
{
closed = 1;
nodes = (
"1038 -18 OFFCURVE",
"1256 235 OFFCURVE",
"1256 576 CURVE SMOOTH",
"1256 931 OFFCURVE",
"1022 1170 OFFCURVE",
"643 1170 CURVE SMOOTH",
"264 1170 OFFCURVE",
"30 931 OFFCURVE",
"30 576 CURVE SMOOTH",
"30 235 OFFCURVE",
"248 -18 OFFCURVE",
"643 -18 CURVE SMOOTH"
);
},
{
closed = 1;
nodes = (
"766 820 OFFCURVE",
"856 719 OFFCURVE",
"856 573 CURVE SMOOTH",
"856 423 OFFCURVE",
"766 332 OFFCURVE",
"643 332 CURVE SMOOTH",
"520 332 OFFCURVE",
"430 426 OFFCURVE",
"430 573 CURVE SMOOTH",
"430 719 OFFCURVE",
"519 820 OFFCURVE",
"643 820 CURVE SMOOTH"
);
},
{
closed = 1;
nodes = (
"896 76 LINE",
"544 40 LINE",
"855 -368 LINE",
"1206 -293 LINE"
);
}
);
width = 1286;
},
{
anchors = (
{
name = bottom;
position = "{545, 0}";
},
{
name = top;
position = "{545, 1152}";
}
);
background = {
paths = (
{
closed = 1;
nodes = (
"736 -24 LINE",
"736 0 LINE",
"584 0 LINE",
"784 -263 LINE",
"865 -348 LINE",
"1056 -293 LINE"
);
}
);
};
layerId = "07CFD988-7AB2-42E7-A00D-A2450F106178";
paths = (
{
closed = 1;
nodes = (
"1115 -18 OFFCURVE",
"1314 235 OFFCURVE",
"1314 576 CURVE SMOOTH",
"1314 931 OFFCURVE",
"1100 1170 OFFCURVE",
"737 1170 CURVE SMOOTH",
"374 1170 OFFCURVE",
"160 931 OFFCURVE",
"160 576 CURVE SMOOTH",
"160 235 OFFCURVE",
"359 -18 OFFCURVE",
"737 -18 CURVE SMOOTH"
);
},
{
closed = 1;
nodes = (
"1076 1144 OFFCURVE",
"1282 908 OFFCURVE",
"1282 572 CURVE SMOOTH",
"1282 229 OFFCURVE",
"1084 12 OFFCURVE",
"737 12 CURVE SMOOTH",
"390 12 OFFCURVE",
"192 229 OFFCURVE",
"192 572 CURVE SMOOTH",
"192 908 OFFCURVE",
"386 1144 OFFCURVE",
"737 1144 CURVE SMOOTH"
);
},
{
closed = 1;
nodes = (
"712 100 LINE",
"685 94 LINE",
"935 -348 LINE",
"971 -343 LINE"
);
}
);
width = 1474;
},
{
anchors = (
{
name = bottom;
position = "{545, 0}";
},
{
name = top;
position = "{545, 1152}";
}
);
background = {
paths = (
{
closed = 1;
nodes = (
"736 -24 LINE",
"736 0 LINE",
"584 0 LINE",
"784 -263 LINE",
"865 -348 LINE",
"1056 -293 LINE"
);
}
);
};
layerId = "8F4C15E6-FE25-4FE1-BA9A-20FEE9FEA92B";
paths = (
{
closed = 1;
nodes = (
"1019 -227 OFFCURVE",
"843 -47 OFFCURVE",
"736 76 CURVE",
"604 40 LINE",
"698 -89 OFFCURVE",
"859 -284 OFFCURVE",
"1005 -348 CURVE",
"1176 -293 LINE"
);
},
{
closed = 1;
nodes = (
"726 -30 OFFCURVE",
"931 195 OFFCURVE",
"963 578 CURVE SMOOTH",
"996 971 OFFCURVE",
"822 1182 OFFCURVE",
"563 1182 CURVE SMOOTH",
"309 1182 OFFCURVE",
"98 971 OFFCURVE",
"64 576 CURVE SMOOTH",
"31 195 OFFCURVE",
"193 -30 OFFCURVE",
"459 -30 CURVE SMOOTH"
);
},
{
closed = 1;
nodes = (
"741 1043 OFFCURVE",
"849 850 OFFCURVE",
"827 575 CURVE SMOOTH",
"805 291 OFFCURVE",
"647 110 OFFCURVE",
"469 110 CURVE SMOOTH",
"291 110 OFFCURVE",
"174 291 OFFCURVE",
"200 573 CURVE SMOOTH",
"226 850 OFFCURVE",
"371 1043 OFFCURVE",
"556 1043 CURVE SMOOTH"
);
}
);
width = 1000;
},
{
anchors = (
{
name = bottom;
position = "{605, 0}";
},
{
name = top;
position = "{605, 1152}";
}
);
layerId = "59F31D40-6FCC-412D-85D2-AC9268FECF70";
paths = (
{
closed = 1;
nodes = (
"1052 -202 OFFCURVE",
"906 -24 OFFCURVE",
"794 106 CURVE",
"572 40 LINE",
"658 -93 OFFCURVE",
"773 -271 OFFCURVE",
"910 -358 CURVE",
"1201 -283 LINE"
);
},
{
closed = 1;
nodes = (
"799 -30 OFFCURVE",
"1015 195 OFFCURVE",
"1051 578 CURVE SMOOTH",
"1087 971 OFFCURVE",
"905 1182 OFFCURVE",
"619 1182 CURVE SMOOTH",
"339 1182 OFFCURVE",
"109 971 OFFCURVE",
"71 576 CURVE SMOOTH",
"35 195 OFFCURVE",
"211 -30 OFFCURVE",
"504 -30 CURVE SMOOTH"
);
},
{
closed = 1;
nodes = (
"761 972 OFFCURVE",
"829 808 OFFCURVE",
"801 575 CURVE SMOOTH",
"773 334 OFFCURVE",
"651 181 OFFCURVE",
"511 181 CURVE SMOOTH",
"371 181 OFFCURVE",
"289 334 OFFCURVE",
"321 574 CURVE SMOOTH",
"352 808 OFFCURVE",
"470 972 OFFCURVE",
"615 972 CURVE SMOOTH"
);
}
);
width = 1100;
},
{
anchors = (
{
name = bottom;
position = "{545, 0}";
},
{
name = top;
position = "{545, 1152}";
}
);
background = {
paths = (
{
closed = 1;
nodes = (
"736 -24 LINE",
"736 0 LINE",
"584 0 LINE",
"784 -263 LINE",
"865 -348 LINE",
"1056 -293 LINE"
);
}
);
};
layerId = "A3C9B703-72F4-4F0D-9958-30991330B555";
paths = (
{
closed = 1;
nodes = (
"1014 -257 OFFCURVE",
"743 -77 OFFCURVE",
"658 4 CURVE",
"622 -2 LINE",
"714 -99 OFFCURVE",
"994 -284 OFFCURVE",
"1210 -348 CURVE",
"1231 -323 LINE"
);
},
{
closed = 1;
nodes = (
"796 -30 OFFCURVE",
"1001 195 OFFCURVE",
"1033 578 CURVE SMOOTH",
"1066 971 OFFCURVE",
"892 1182 OFFCURVE",
"633 1182 CURVE SMOOTH",
"379 1182 OFFCURVE",
"168 971 OFFCURVE",
"134 576 CURVE SMOOTH",
"101 195 OFFCURVE",
"263 -30 OFFCURVE",
"529 -30 CURVE SMOOTH"
);
},
{
closed = 1;
nodes = (
"856 1155 OFFCURVE",
"1029 944 OFFCURVE",
"1000 578 CURVE SMOOTH",
"972 222 OFFCURVE",
"779 -8 OFFCURVE",
"529 -3 CURVE SMOOTH",
"286 2 OFFCURVE",
"132 202 OFFCURVE",
"167 576 CURVE SMOOTH",
"201 938 OFFCURVE",
"408 1155 OFFCURVE",
"632 1155 CURVE SMOOTH"
);
}
);
width = 1140;
}
);
leftKerningGroup = O;
leftMetricsKey = O;
rightKerningGroup = O;
unicode = 0051;
},
{
glyphname = R;
lastChange = "2018-11-30 11:09:59 +0000";
layers = (
{
anchors = (
{
name = bottom;
position = "{497, 90}";
},
{
name = top;
position = "{497, 1152}";
}
);
layerId = "B520048A-B5B0-4F8C-90F0-FFAF6C62D524";
paths = (
{
closed = 1;
nodes = (
"144 1152 LINE",
"144 0 LINE",
"288 0 LINE",
"288 438 LINE",
"450 438 LINE SMOOTH",
"685 438 OFFCURVE",
"846 564 OFFCURVE",
"846 804 CURVE SMOOTH",
"846 1034 OFFCURVE",
"695 1152 OFFCURVE",
"481 1152 CURVE SMOOTH"
);
},
{
closed = 1;
nodes = (
"476 1022 LINE SMOOTH",
"600 1022 OFFCURVE",
"698 962 OFFCURVE",
"698 800 CURVE SMOOTH",
"698 637 OFFCURVE",
"601 568 OFFCURVE",
"452 568 CURVE SMOOTH",
"288 568 LINE",
"288 1022 LINE"
);
},
{
closed = 1;
nodes = (
"510 565 LINE",
"381 513 LINE",
"758 0 LINE",
"940 0 LINE"
);
}
);
width = 1004;
},
{
anchors = (
{
name = bottom;
position = "{528, 0}";
},
{
name = top;
position = "{528, 1152}";
}
);
layerId = "21D66A2E-3203-408D-B482-78BB09110413";
paths = (
{
closed = 1;
nodes = (
"80 1152 LINE",
"80 0 LINE",
"300 0 LINE",
"300 378 LINE",
"536 378 LINE SMOOTH",
"771 378 OFFCURVE",
"932 515 OFFCURVE",
"932 775 CURVE SMOOTH",
"932 1024 OFFCURVE",
"781 1152 OFFCURVE",
"567 1152 CURVE SMOOTH"
);
},
{
closed = 1;
nodes = (
"526 942 LINE SMOOTH",
"626 942 OFFCURVE",
"704 896 OFFCURVE",
"704 768 CURVE SMOOTH",
"704 642 OFFCURVE",
"627 588 OFFCURVE",
"507 588 CURVE SMOOTH",
"300 588 LINE",
"300 942 LINE"
);
},
{
closed = 1;
nodes = (
"670 466 LINE",
"450 412 LINE",
"698 0 LINE",
"960 0 LINE"
);
}
);
width = 1044;
},
{
anchors = (
{
name = bottom;
position = "{553, 90}";
},
{
name = top;
position = "{553, 1152}";
}
);
layerId = "4CECAF9F-8433-4C1D-B398-9C9ECB761FA2";
paths = (
{
closed = 1;
nodes = (
"200 1152 LINE",
"200 0 LINE",
"232 0 LINE",
"232 458 LINE",
"506 458 LINE SMOOTH",
"741 458 OFFCURVE",
"902 584 OFFCURVE",
"902 814 CURVE SMOOTH",
"902 1034 OFFCURVE",
"751 1152 OFFCURVE",
"537 1152 CURVE SMOOTH"
);
},
{
closed = 1;
nodes = (
"542 1122 LINE SMOOTH",
"732 1122 OFFCURVE",
"872 1024 OFFCURVE",
"872 812 CURVE SMOOTH",
"872 600 OFFCURVE",
"724 488 OFFCURVE",
"508 488 CURVE SMOOTH",
"232 488 LINE",
"232 1122 LINE"
);
},
{
closed = 1;
nodes = (
"590 488 LINE",
"562 475 LINE",
"906 0 LINE",
"946 0 LINE"
);
}
);
width = 1076;
},
{
anchors = (
{
name = bottom;
position = "{528, 0}";
},
{
name = top;
position = "{528, 1152}";
}
);
layerId = "E81C9CF6-C278-46EE-B3DD-D93820CD8949";
paths = (
{
closed = 1;
nodes = (
"50 1152 LINE",
"50 0 LINE",
"434 0 LINE",
"434 378 LINE",
"516 378 LINE SMOOTH",
"828 378 OFFCURVE",
"1014 499 OFFCURVE",
"1014 760 CURVE SMOOTH",
"1014 1018 OFFCURVE",
"839 1152 OFFCURVE",
"609 1152 CURVE SMOOTH"
);
},
{
closed = 1;
nodes = (
"517 802 LINE SMOOTH",
"584 802 OFFCURVE",
"644 778 OFFCURVE",
"644 707 CURVE SMOOTH",
"644 636 OFFCURVE",
"585 608 OFFCURVE",
"504 608 CURVE SMOOTH",
"434 608 LINE",
"434 802 LINE"
);
},
{
closed = 1;
nodes = (
"154 560 LINE",
"154 210 LINE",
"1028 -39 LINE",
"1028 321 LINE"
);
}
);
width = 1024;
},
{
anchors = (
{
name = bottom;
position = "{553, 90}";
},
{
name = top;
position = "{553, 1152}";
}
);
layerId = "07CFD988-7AB2-42E7-A00D-A2450F106178";
paths = (
{
closed = 1;
nodes = (
"200 1152 LINE",
"200 0 LINE",
"232 0 LINE",
"232 458 LINE",
"506 458 LINE SMOOTH",
"741 458 OFFCURVE",
"902 584 OFFCURVE",
"902 814 CURVE SMOOTH",
"902 1034 OFFCURVE",
"751 1152 OFFCURVE",
"537 1152 CURVE SMOOTH"
);
},
{
closed = 1;
nodes = (
"542 1122 LINE SMOOTH",
"732 1122 OFFCURVE",
"872 1024 OFFCURVE",
"872 812 CURVE SMOOTH",
"872 600 OFFCURVE",
"724 488 OFFCURVE",
"508 488 CURVE SMOOTH",
"232 488 LINE",
"232 1122 LINE"
);
},
{
closed = 1;
nodes = (
"590 488 LINE",
"562 475 LINE",
"906 0 LINE",
"946 0 LINE"
);
}
);
width = 1076;
},
{
anchors = (
{
name = bottom;
position = "{477, 90}";
},
{
name = top;
position = "{477, 1152}";
}
);
layerId = "8F4C15E6-FE25-4FE1-BA9A-20FEE9FEA92B";
paths = (
{
closed = 1;
nodes = (
"94 0 LINE",
"234 0 LINE",
"291 1091 LINE",
"245 1026 LINE",
"437 1062 OFFCURVE",
"676 1062 OFFCURVE",
"667 853 CURVE SMOOTH",
"659 667 OFFCURVE",
"471 528 OFFCURVE",
"203 528 CURVE",
"356 352 OFFCURVE",
"580 111 OFFCURVE",
"693 0 CURVE",
"903 0 LINE",
"759 130 OFFCURVE",
"520 371 OFFCURVE",
"421 496 CURVE",
"409 423 LINE",
"634 483 OFFCURVE",
"797 650 OFFCURVE",
"807 863 CURVE SMOOTH",
"820 1144 OFFCURVE",
"563 1202 OFFCURVE",
"211 1159 CURVE SMOOTH",
"154 1152 LINE"
);
}
);
width = 900;
},
{
anchors = (
{
name = bottom;
position = "{528, 0}";
},
{
name = top;
position = "{528, 1152}";
}
);
layerId = "59F31D40-6FCC-412D-85D2-AC9268FECF70";
paths = (
{
closed = 1;
nodes = (
"91 0 LINE",
"321 0 LINE",
"381 1152 LINE",
"287 944 LINE",
"534 970 OFFCURVE",
"660 943 OFFCURVE",
"654 782 CURVE SMOOTH",
"648 622 OFFCURVE",
"515 533 OFFCURVE",
"300 533 CURVE",
"423 342 OFFCURVE",
"613 88 OFFCURVE",
"699 0 CURVE",
"981 0 LINE",
"887 97 OFFCURVE",
"649 386 OFFCURVE",
"605 483 CURVE",
"471 388 LINE",
"716 388 OFFCURVE",
"887 573 OFFCURVE",
"897 807 CURVE SMOOTH",
"909 1082 OFFCURVE",
"692 1181 OFFCURVE",
"378 1164 CURVE SMOOTH",
"151 1152 LINE"
);
}
);
width = 980;
},
{
anchors = (
{
name = bottom;
position = "{477, 90}";
},
{
name = top;
position = "{477, 1152}";
}
);
layerId = "A3C9B703-72F4-4F0D-9958-30991330B555";
paths = (
{
closed = 1;
nodes = (
"144 0 LINE",
"174 0 LINE",
"234 1152 LINE",
"209 1122 LINE",
"607 1174 OFFCURVE",
"808 1075 OFFCURVE",
"797 807 CURVE SMOOTH",
"786 547 OFFCURVE",
"529 447 OFFCURVE",
"183 417 CURVE",
"297 320 OFFCURVE",
"667 55 OFFCURVE",
"769 0 CURVE",
"835 0 LINE",
"720 61 OFFCURVE",
"341 320 OFFCURVE",
"227 417 CURVE",
"174 386 LINE",
"533 419 OFFCURVE",
"815 510 OFFCURVE",
"829 807 CURVE SMOOTH",
"843 1106 OFFCURVE",
"573 1197 OFFCURVE",
"261 1159 CURVE SMOOTH",
"204 1152 LINE"
);
}
);
width = 900;
}
);
leftMetricsKey = H;
unicode = 0052;
},
{
glyphname = S;
lastChange = "2018-11-30 00:43:31 +0000";
layers = (
{
anchors = (
{
name = bottom;
position = "{501, 0}";
},
{
name = top;
position = "{501, 1152}";
}
);
background = {
paths = (
{
closed = 1;
nodes = (
"97 158 LINE",
"122 -5 OFFCURVE",
"289 -26 OFFCURVE",
"373 -26 CURVE SMOOTH",
"537 -26 OFFCURVE",
"685 52 OFFCURVE",
"685 218 CURVE SMOOTH",
"685 365 OFFCURVE",
"564 401 OFFCURVE",
"420 454 CURVE SMOOTH",
"340 485 OFFCURVE",
"276 516 OFFCURVE",
"276 590 CURVE SMOOTH",
"276 665 OFFCURVE",
"333 703 OFFCURVE",
"415 703 CURVE SMOOTH",
"485 703 OFFCURVE",
"531 676 OFFCURVE",
"520 622 CURVE",
"636 622 LINE",
"662 771 OFFCURVE",
"509 793 OFFCURVE",
"428 793 CURVE SMOOTH",
"264 793 OFFCURVE",
"140 709 OFFCURVE",
"140 568 CURVE SMOOTH",
"140 444 OFFCURVE",
"238 386 OFFCURVE",
"386 337 CURVE SMOOTH",
"495 300 OFFCURVE",
"549 260 OFFCURVE",
"549 190 CURVE SMOOTH",
"549 99 OFFCURVE",
"478 65 OFFCURVE",
"386 65 CURVE SMOOTH",
"299 65 OFFCURVE",
"237 97 OFFCURVE",
"224 193 CURVE"
);
}
);
};
layerId = "B520048A-B5B0-4F8C-90F0-FFAF6C62D524";
paths = (
{
closed = 1;
nodes = (
"650 1040 OFFCURVE",
"790 989 OFFCURVE",
"851 949 CURVE",
"851 1105 LINE",
"788 1129 OFFCURVE",
"664 1170 OFFCURVE",
"514 1170 CURVE SMOOTH",
"290 1170 OFFCURVE",
"141 1074 OFFCURVE",
"141 876 CURVE SMOOTH",
"141 694 OFFCURVE",
"263 629 OFFCURVE",
"499 549 CURVE SMOOTH",
"669 491 OFFCURVE",
"783 452 OFFCURVE",
"783 304 CURVE SMOOTH",
"783 145 OFFCURVE",
"649 108 OFFCURVE",
"509 108 CURVE SMOOTH",
"379 108 OFFCURVE",
"239 141 OFFCURVE",
"116 224 CURVE",
"116 58 LINE",
"232 11 OFFCURVE",
"353 -18 OFFCURVE",
"488 -18 CURVE SMOOTH",
"730 -18 OFFCURVE",
"925 75 OFFCURVE",
"925 318 CURVE SMOOTH",
"925 523 OFFCURVE",
"776 590 OFFCURVE",
"571 662 CURVE SMOOTH",
"394 724 OFFCURVE",
"279 780 OFFCURVE",
"279 894 CURVE SMOOTH",
"279 1001 OFFCURVE",
"381 1040 OFFCURVE",
"507 1040 CURVE SMOOTH"
);
}
);
width = 1041;
},
{
anchors = (
{
name = bottom;
position = "{368, 0}";
},
{
name = top;
position = "{368, 1152}";
}
);
background = {
paths = (
{
closed = 1;
nodes = (
"266 660 OFFCURVE",
"200 674 OFFCURVE",
"141 674 CURVE SMOOTH",
"32 674 OFFCURVE",
"-62 626 OFFCURVE",
"-62 506 CURVE SMOOTH",
"-62 409 OFFCURVE",
"-4 351 OFFCURVE",
"129 292 CURVE SMOOTH",
"245 240 OFFCURVE",
"284 200 OFFCURVE",
"284 139 CURVE SMOOTH",
"284 61 OFFCURVE",
"214 31 OFFCURVE",
"144 31 CURVE SMOOTH",
"94 31 OFFCURVE",
"30 46 OFFCURVE",
"-53 87 CURVE",
"-68 37 LINE",
"11 3 OFFCURVE",
"83 -14 OFFCURVE",
"154 -14 CURVE SMOOTH",
"276 -14 OFFCURVE",
"370 36 OFFCURVE",
"370 154 CURVE SMOOTH",
"370 277 OFFCURVE",
"266 331 OFFCURVE",
"176 371 CURVE SMOOTH",
"68 418 OFFCURVE",
"17 460 OFFCURVE",
"17 521 CURVE SMOOTH",
"17 578 OFFCURVE",
"62 629 OFFCURVE",
"149 629 CURVE SMOOTH",
"189 629 OFFCURVE",
"250 617 OFFCURVE",
"331 590 CURVE",
"342 637 LINE"
);
}
);
};
layerId = "21D66A2E-3203-408D-B482-78BB09110413";
paths = (
{
closed = 1;
nodes = (
"558 964 OFFCURVE",
"691 935 OFFCURVE",
"780 891 CURVE",
"780 1105 LINE",
"697 1145 OFFCURVE",
"573 1170 OFFCURVE",
"453 1170 CURVE SMOOTH",
"199 1170 OFFCURVE",
"40 1060 OFFCURVE",
"40 832 CURVE SMOOTH",
"40 630 OFFCURVE",
"175 560 OFFCURVE",
"425 480 CURVE SMOOTH",
"550 440 OFFCURVE",
"626 395 OFFCURVE",
"626 326 CURVE SMOOTH",
"626 243 OFFCURVE",
"518 188 OFFCURVE",
"389 188 CURVE SMOOTH",
"246 188 OFFCURVE",
"125 254 OFFCURVE",
"45 310 CURVE",
"45 66 LINE",
"131 19 OFFCURVE",
"258 -18 OFFCURVE",
"405 -18 CURVE SMOOTH",
"639 -18 OFFCURVE",
"844 75 OFFCURVE",
"844 348 CURVE SMOOTH",
"844 593 OFFCURVE",
"670 646 OFFCURVE",
"399 736 CURVE SMOOTH",
"335 757 OFFCURVE",
"258 781 OFFCURVE",
"258 855 CURVE SMOOTH",
"258 929 OFFCURVE",
"335 964 OFFCURVE",
"451 964 CURVE SMOOTH"
);
}
);
width = 884;
},
{
anchors = (
{
name = bottom;
position = "{500, 0}";
},
{
name = top;
position = "{500, 1152}";
}
);
background = {
paths = (
{
closed = 1;
nodes = (
"96 158 LINE",
"121 -5 OFFCURVE",
"288 -26 OFFCURVE",
"372 -26 CURVE SMOOTH",
"536 -26 OFFCURVE",
"684 52 OFFCURVE",
"684 218 CURVE SMOOTH",
"684 365 OFFCURVE",
"563 401 OFFCURVE",
"419 454 CURVE SMOOTH",
"339 485 OFFCURVE",
"275 516 OFFCURVE",
"275 590 CURVE SMOOTH",
"275 665 OFFCURVE",
"332 703 OFFCURVE",
"414 703 CURVE SMOOTH",
"484 703 OFFCURVE",
"530 676 OFFCURVE",
"519 622 CURVE",
"635 622 LINE",
"661 771 OFFCURVE",
"508 793 OFFCURVE",
"427 793 CURVE SMOOTH",
"263 793 OFFCURVE",
"139 709 OFFCURVE",
"139 568 CURVE SMOOTH",
"139 444 OFFCURVE",
"237 386 OFFCURVE",
"385 337 CURVE SMOOTH",
"494 300 OFFCURVE",
"548 260 OFFCURVE",
"548 190 CURVE SMOOTH",
"548 99 OFFCURVE",
"477 65 OFFCURVE",
"385 65 CURVE SMOOTH",
"298 65 OFFCURVE",
"236 97 OFFCURVE",
"223 193 CURVE"
);
}
);
};
layerId = "4CECAF9F-8433-4C1D-B398-9C9ECB761FA2";
paths = (
{
closed = 1;
nodes = (
"655 1140 OFFCURVE",
"795 1104 OFFCURVE",
"870 1061 CURVE",
"870 1097 LINE",
"797 1139 OFFCURVE",
"663 1170 OFFCURVE",
"523 1170 CURVE SMOOTH",
"289 1170 OFFCURVE",
"140 1074 OFFCURVE",
"140 896 CURVE SMOOTH",
"140 702 OFFCURVE",
"316 659 OFFCURVE",
"498 599 CURVE SMOOTH",
"677 540 OFFCURVE",
"882 502 OFFCURVE",
"882 284 CURVE SMOOTH",
"882 95 OFFCURVE",
"716 12 OFFCURVE",
"494 12 CURVE SMOOTH",
"378 12 OFFCURVE",
"226 35 OFFCURVE",
"123 96 CURVE",
"123 58 LINE",
"219 11 OFFCURVE",
"362 -18 OFFCURVE",
"492 -18 CURVE SMOOTH",
"729 -18 OFFCURVE",
"914 75 OFFCURVE",
"914 289 CURVE SMOOTH",
"914 503 OFFCURVE",
"739 559 OFFCURVE",
"570 612 CURVE SMOOTH",
"373 673 OFFCURVE",
"170 720 OFFCURVE",
"170 899 CURVE SMOOTH",
"170 1053 OFFCURVE",
"316 1140 OFFCURVE",
"522 1140 CURVE SMOOTH"
);
}
);
width = 1040;
},
{
anchors = (
{
name = bottom;
position = "{348, 0}";
},
{
name = top;
position = "{348, 1152}";
}
);
background = {
paths = (
{
closed = 1;
nodes = (
"246 660 OFFCURVE",
"180 674 OFFCURVE",
"121 674 CURVE SMOOTH",
"12 674 OFFCURVE",
"-82 626 OFFCURVE",
"-82 506 CURVE SMOOTH",
"-82 409 OFFCURVE",
"-24 351 OFFCURVE",
"109 292 CURVE SMOOTH",
"225 240 OFFCURVE",
"264 200 OFFCURVE",
"264 139 CURVE SMOOTH",
"264 61 OFFCURVE",
"194 31 OFFCURVE",
"124 31 CURVE SMOOTH",
"74 31 OFFCURVE",
"10 46 OFFCURVE",
"-73 87 CURVE",
"-88 37 LINE",
"-9 3 OFFCURVE",
"63 -14 OFFCURVE",
"134 -14 CURVE SMOOTH",
"256 -14 OFFCURVE",
"350 36 OFFCURVE",
"350 154 CURVE SMOOTH",
"350 277 OFFCURVE",
"246 331 OFFCURVE",
"156 371 CURVE SMOOTH",
"48 418 OFFCURVE",
"-3 460 OFFCURVE",
"-3 521 CURVE SMOOTH",
"-3 578 OFFCURVE",
"42 629 OFFCURVE",
"129 629 CURVE SMOOTH",
"169 629 OFFCURVE",
"230 617 OFFCURVE",
"311 590 CURVE",
"322 637 LINE"
);
}
);
};
layerId = "E81C9CF6-C278-46EE-B3DD-D93820CD8949";
paths = (
{
closed = 1;
nodes = (
"620 894 OFFCURVE",
"743 857 OFFCURVE",
"796 834 CURVE",
"796 1105 LINE",
"698 1145 OFFCURVE",
"553 1170 OFFCURVE",
"433 1170 CURVE SMOOTH",
"179 1170 OFFCURVE",
"20 1060 OFFCURVE",
"20 829 CURVE SMOOTH",
"20 606 OFFCURVE",
"173 541 OFFCURVE",
"358 438 CURVE SMOOTH",
"397 416 OFFCURVE",
"414 404 OFFCURVE",
"414 375 CURVE SMOOTH",
"414 318 OFFCURVE",
"346 288 OFFCURVE",
"262 288 CURVE SMOOTH",
"167 288 OFFCURVE",
"85 325 OFFCURVE",
"44 346 CURVE",
"45 36 LINE",
"111 9 OFFCURVE",
"239 -18 OFFCURVE",
"374 -18 CURVE SMOOTH",
"620 -18 OFFCURVE",
"824 75 OFFCURVE",
"824 348 CURVE SMOOTH",
"824 573 OFFCURVE",
"696 652 OFFCURVE",
"505 736 CURVE SMOOTH",
"459 755 OFFCURVE",
"408 775 OFFCURVE",
"408 822 CURVE SMOOTH",
"408 870 OFFCURVE",
"460 894 OFFCURVE",
"531 894 CURVE SMOOTH"
);
}
);
width = 834;
},
{
anchors = (
{
name = bottom;
position = "{500, 0}";
},
{
name = top;
position = "{500, 1152}";
}
);
background = {
paths = (
{
closed = 1;
nodes = (
"96 158 LINE",
"121 -5 OFFCURVE",
"288 -26 OFFCURVE",
"372 -26 CURVE SMOOTH",
"536 -26 OFFCURVE",
"684 52 OFFCURVE",
"684 218 CURVE SMOOTH",
"684 365 OFFCURVE",
"563 401 OFFCURVE",
"419 454 CURVE SMOOTH",
"339 485 OFFCURVE",
"275 516 OFFCURVE",
"275 590 CURVE SMOOTH",
"275 665 OFFCURVE",
"332 703 OFFCURVE",
"414 703 CURVE SMOOTH",
"484 703 OFFCURVE",
"530 676 OFFCURVE",
"519 622 CURVE",
"635 622 LINE",
"661 771 OFFCURVE",
"508 793 OFFCURVE",
"427 793 CURVE SMOOTH",
"263 793 OFFCURVE",
"139 709 OFFCURVE",
"139 568 CURVE SMOOTH",
"139 444 OFFCURVE",
"237 386 OFFCURVE",
"385 337 CURVE SMOOTH",
"494 300 OFFCURVE",
"548 260 OFFCURVE",
"548 190 CURVE SMOOTH",
"548 99 OFFCURVE",
"477 65 OFFCURVE",
"385 65 CURVE SMOOTH",
"298 65 OFFCURVE",
"236 97 OFFCURVE",
"223 193 CURVE"
);
}
);
};
layerId = "07CFD988-7AB2-42E7-A00D-A2450F106178";
paths = (
{
closed = 1;
nodes = (
"655 1140 OFFCURVE",
"795 1104 OFFCURVE",
"870 1061 CURVE",
"870 1097 LINE",
"797 1139 OFFCURVE",
"663 1170 OFFCURVE",
"523 1170 CURVE SMOOTH",
"289 1170 OFFCURVE",
"140 1074 OFFCURVE",
"140 896 CURVE SMOOTH",
"140 702 OFFCURVE",
"316 659 OFFCURVE",
"498 599 CURVE SMOOTH",
"677 540 OFFCURVE",
"882 502 OFFCURVE",
"882 284 CURVE SMOOTH",
"882 95 OFFCURVE",
"716 12 OFFCURVE",
"494 12 CURVE SMOOTH",
"378 12 OFFCURVE",
"226 35 OFFCURVE",
"123 96 CURVE",
"123 58 LINE",
"219 11 OFFCURVE",
"362 -18 OFFCURVE",
"492 -18 CURVE SMOOTH",
"729 -18 OFFCURVE",
"914 75 OFFCURVE",
"914 289 CURVE SMOOTH",
"914 503 OFFCURVE",
"739 559 OFFCURVE",
"570 612 CURVE SMOOTH",
"373 673 OFFCURVE",
"170 720 OFFCURVE",
"170 899 CURVE SMOOTH",
"170 1053 OFFCURVE",
"316 1140 OFFCURVE",
"522 1140 CURVE SMOOTH"
);
}
);
width = 1040;
},
{
anchors = (
{
name = bottom;
position = "{402, 0}";
},
{
name = top;
position = "{402, 1152}";
}
);
background = {
paths = (
{
closed = 1;
nodes = (
"-4 158 LINE",
"21 -5 OFFCURVE",
"188 -26 OFFCURVE",
"272 -26 CURVE SMOOTH",
"436 -26 OFFCURVE",
"584 52 OFFCURVE",
"584 218 CURVE SMOOTH",
"584 365 OFFCURVE",
"463 401 OFFCURVE",
"319 454 CURVE SMOOTH",
"239 485 OFFCURVE",
"175 516 OFFCURVE",
"175 590 CURVE SMOOTH",
"175 665 OFFCURVE",
"232 703 OFFCURVE",
"314 703 CURVE SMOOTH",
"384 703 OFFCURVE",
"430 676 OFFCURVE",
"419 622 CURVE",
"535 622 LINE",
"561 771 OFFCURVE",
"408 793 OFFCURVE",
"327 793 CURVE SMOOTH",
"163 793 OFFCURVE",
"39 709 OFFCURVE",
"39 568 CURVE SMOOTH",
"39 444 OFFCURVE",
"137 386 OFFCURVE",
"285 337 CURVE SMOOTH",
"394 300 OFFCURVE",
"448 260 OFFCURVE",
"448 190 CURVE SMOOTH",
"448 99 OFFCURVE",
"377 65 OFFCURVE",
"285 65 CURVE SMOOTH",
"198 65 OFFCURVE",
"136 97 OFFCURVE",
"123 193 CURVE"
);
}
);
};
layerId = "8F4C15E6-FE25-4FE1-BA9A-20FEE9FEA92B";
paths = (
{
closed = 1;
nodes = (
"23 136 LINE",
"61 32 OFFCURVE",
"184 -18 OFFCURVE",
"346 -18 CURVE SMOOTH",
"567 -18 OFFCURVE",
"731 75 OFFCURVE",
"753 289 CURVE SMOOTH",
"777 520 OFFCURVE",
"607 593 OFFCURVE",
"457 659 CURVE SMOOTH",
"375 695 OFFCURVE",
"231 755 OFFCURVE",
"246 887 CURVE SMOOTH",
"259 1001 OFFCURVE",
"378 1048 OFFCURVE",
"482 1048 CURVE SMOOTH",
"578 1048 OFFCURVE",
"640 1009 OFFCURVE",
"684 975 CURVE",
"755 1088 LINE",
"697 1138 OFFCURVE",
"614 1170 OFFCURVE",
"493 1170 CURVE SMOOTH",
"283 1170 OFFCURVE",
"140 1074 OFFCURVE",
"120 893 CURVE SMOOTH",
"96 678 OFFCURVE",
"282 592 OFFCURVE",
"412 536 CURVE SMOOTH",
"528 486 OFFCURVE",
"641 436 OFFCURVE",
"627 295 CURVE SMOOTH",
"613 156 OFFCURVE",
"487 104 OFFCURVE",
"364 104 CURVE SMOOTH",
"247 104 OFFCURVE",
"135 151 OFFCURVE",
"107 252 CURVE"
);
}
);
width = 810;
},
{
anchors = (
{
name = bottom;
position = "{368, 0}";
},
{
name = top;
position = "{368, 1152}";
}
);
background = {
paths = (
{
closed = 1;
nodes = (
"266 660 OFFCURVE",
"200 674 OFFCURVE",
"141 674 CURVE SMOOTH",
"32 674 OFFCURVE",
"-62 626 OFFCURVE",
"-62 506 CURVE SMOOTH",
"-62 409 OFFCURVE",
"-4 351 OFFCURVE",
"129 292 CURVE SMOOTH",
"245 240 OFFCURVE",
"284 200 OFFCURVE",
"284 139 CURVE SMOOTH",
"284 61 OFFCURVE",
"214 31 OFFCURVE",
"144 31 CURVE SMOOTH",
"94 31 OFFCURVE",
"30 46 OFFCURVE",
"-53 87 CURVE",
"-68 37 LINE",
"11 3 OFFCURVE",
"83 -14 OFFCURVE",
"154 -14 CURVE SMOOTH",
"276 -14 OFFCURVE",
"370 36 OFFCURVE",
"370 154 CURVE SMOOTH",
"370 277 OFFCURVE",
"266 331 OFFCURVE",
"176 371 CURVE SMOOTH",
"68 418 OFFCURVE",
"17 460 OFFCURVE",
"17 521 CURVE SMOOTH",
"17 578 OFFCURVE",
"62 629 OFFCURVE",
"149 629 CURVE SMOOTH",
"189 629 OFFCURVE",
"250 617 OFFCURVE",
"331 590 CURVE",
"342 637 LINE"
);
}
);
};
layerId = "59F31D40-6FCC-412D-85D2-AC9268FECF70";
paths = (
{
closed = 1;
nodes = (
"20 136 LINE",
"64 32 OFFCURVE",
"213 -18 OFFCURVE",
"396 -18 CURVE SMOOTH",
"647 -18 OFFCURVE",
"826 75 OFFCURVE",
"853 329 CURVE SMOOTH",
"877 560 OFFCURVE",
"744 644 OFFCURVE",
"574 709 CURVE SMOOTH",
"501 737 OFFCURVE",
"356 780 OFFCURVE",
"364 860 CURVE SMOOTH",
"370 923 OFFCURVE",
"463 958 OFFCURVE",
"568 958 CURVE SMOOTH",
"664 958 OFFCURVE",
"740 929 OFFCURVE",
"770 884 CURVE",
"861 1088 LINE",
"795 1138 OFFCURVE",
"701 1170 OFFCURVE",
"563 1170 CURVE SMOOTH",
"325 1170 OFFCURVE",
"157 1074 OFFCURVE",
"133 863 CURVE SMOOTH",
"105 619 OFFCURVE",
"296 575 OFFCURVE",
"425 526 CURVE SMOOTH",
"538 483 OFFCURVE",
"636 436 OFFCURVE",
"623 335 CURVE SMOOTH",
"611 245 OFFCURVE",
"519 194 OFFCURVE",
"404 194 CURVE SMOOTH",
"262 194 OFFCURVE",
"158 271 OFFCURVE",
"126 344 CURVE"
);
}
);
width = 900;
},
{
anchors = (
{
name = bottom;
position = "{452, 0}";
},
{
name = top;
position = "{452, 1152}";
}
);
background = {
paths = (
{
closed = 1;
nodes = (
"46 158 LINE",
"71 -5 OFFCURVE",
"238 -26 OFFCURVE",
"322 -26 CURVE SMOOTH",
"486 -26 OFFCURVE",
"634 52 OFFCURVE",
"634 218 CURVE SMOOTH",
"634 365 OFFCURVE",
"513 401 OFFCURVE",
"369 454 CURVE SMOOTH",
"289 485 OFFCURVE",
"225 516 OFFCURVE",
"225 590 CURVE SMOOTH",
"225 665 OFFCURVE",
"282 703 OFFCURVE",
"364 703 CURVE SMOOTH",
"434 703 OFFCURVE",
"480 676 OFFCURVE",
"469 622 CURVE",
"585 622 LINE",
"611 771 OFFCURVE",
"458 793 OFFCURVE",
"377 793 CURVE SMOOTH",
"213 793 OFFCURVE",
"89 709 OFFCURVE",
"89 568 CURVE SMOOTH",
"89 444 OFFCURVE",
"187 386 OFFCURVE",
"335 337 CURVE SMOOTH",
"444 300 OFFCURVE",
"498 260 OFFCURVE",
"498 190 CURVE SMOOTH",
"498 99 OFFCURVE",
"427 65 OFFCURVE",
"335 65 CURVE SMOOTH",
"248 65 OFFCURVE",
"186 97 OFFCURVE",
"173 193 CURVE"
);
}
);
};
layerId = "A3C9B703-72F4-4F0D-9958-30991330B555";
paths = (
{
closed = 1;
nodes = (
"95 166 LINE",
"111 32 OFFCURVE",
"234 -18 OFFCURVE",
"396 -18 CURVE SMOOTH",
"617 -18 OFFCURVE",
"781 75 OFFCURVE",
"803 284 CURVE SMOOTH",
"826 510 OFFCURVE",
"647 558 OFFCURVE",
"491 602 CURVE SMOOTH",
"373 635 OFFCURVE",
"178 685 OFFCURVE",
"202 893 CURVE SMOOTH",
"219 1046 OFFCURVE",
"351 1143 OFFCURVE",
"543 1143 CURVE SMOOTH",
"639 1143 OFFCURVE",
"744 1102 OFFCURVE",
"780 1058 CURVE",
"805 1088 LINE",
"747 1138 OFFCURVE",
"664 1170 OFFCURVE",
"543 1170 CURVE SMOOTH",
"333 1170 OFFCURVE",
"190 1074 OFFCURVE",
"170 893 CURVE SMOOTH",
"146 678 OFFCURVE",
"331 614 OFFCURVE",
"488 570 CURVE SMOOTH",
"610 536 OFFCURVE",
"791 492 OFFCURVE",
"771 289 CURVE SMOOTH",
"752 100 OFFCURVE",
"581 9 OFFCURVE",
"396 9 CURVE SMOOTH",
"254 9 OFFCURVE",
"144 52 OFFCURVE",
"115 176 CURVE"
);
}
);
width = 900;
}
);
unicode = 0053;
},
{
glyphname = Germandbls;
lastChange = "2019-03-05 22:48:30 +0000";
layers = (
{
layerId = "B520048A-B5B0-4F8C-90F0-FFAF6C62D524";
paths = (
{
closed = 1;
nodes = (
"144 1152 LINE",
"144 0 LINE",
"284 0 LINE",
"284 1152 LINE"
);
},
{
closed = 1;
nodes = (
"550 55 LINE",
"628 15 OFFCURVE",
"718 -13 OFFCURVE",
"822 -13 CURVE SMOOTH",
"1064 -13 OFFCURVE",
"1208 141 OFFCURVE",
"1208 348 CURVE SMOOTH",
"1208 543 OFFCURVE",
"1078 677 OFFCURVE",
"876 692 CURVE",
"876 694 LINE",
"1144 1152 LINE",
"150 1152 LINE",
"150 1032 LINE",
"913 1032 LINE",
"656 582 LINE",
"757 582 LINE SMOOTH",
"933 582 OFFCURVE",
"1066 521 OFFCURVE",
"1066 338 CURVE SMOOTH",
"1066 194 OFFCURVE",
"991 113 OFFCURVE",
"827 113 CURVE SMOOTH",
"731 113 OFFCURVE",
"637 144 OFFCURVE",
"550 197 CURVE"
);
}
);
width = 1260;
},
{
layerId = "21D66A2E-3203-408D-B482-78BB09110413";
paths = (
{
closed = 1;
nodes = (
"80 1152 LINE",
"80 0 LINE",
"320 0 LINE",
"320 1152 LINE"
);
},
{
closed = 1;
nodes = (
"434 55 LINE",
"512 15 OFFCURVE",
"602 -13 OFFCURVE",
"706 -13 CURVE SMOOTH",
"968 -13 OFFCURVE",
"1114 137 OFFCURVE",
"1114 354 CURVE SMOOTH",
"1114 539 OFFCURVE",
"1021 674 OFFCURVE",
"850 712 CURVE",
"850 714 LINE",
"1118 1152 LINE",
"234 1152 LINE",
"234 952 LINE",
"762 952 LINE",
"500 512 LINE",
"641 512 LINE SMOOTH",
"783 512 OFFCURVE",
"896 471 OFFCURVE",
"896 350 CURVE SMOOTH",
"896 254 OFFCURVE",
"830 193 OFFCURVE",
"698 193 CURVE SMOOTH",
"602 193 OFFCURVE",
"521 224 OFFCURVE",
"434 277 CURVE"
);
}
);
width = 1160;
},
{
layerId = "4CECAF9F-8433-4C1D-B398-9C9ECB761FA2";
paths = (
{
closed = 1;
nodes = (
"200 1152 LINE",
"200 0 LINE",
"232 0 LINE",
"232 1152 LINE"
);
},
{
closed = 1;
nodes = (
"572 55 LINE",
"650 13 OFFCURVE",
"740 -13 OFFCURVE",
"844 -13 CURVE SMOOTH",
"1086 -13 OFFCURVE",
"1210 131 OFFCURVE",
"1210 312 CURVE SMOOTH",
"1210 553 OFFCURVE",
"994 611 OFFCURVE",
"781 612 CURVE",
"781 614 LINE",
"1166 1152 LINE",
"212 1152 LINE",
"212 1122 LINE",
"1107 1122 LINE",
"720 582 LINE",
"779 582 LINE SMOOTH",
"955 582 OFFCURVE",
"1178 539 OFFCURVE",
"1178 312 CURVE SMOOTH",
"1178 147 OFFCURVE",
"1064 14 OFFCURVE",
"844 14 CURVE SMOOTH",
"748 14 OFFCURVE",
"654 41 OFFCURVE",
"572 89 CURVE"
);
}
);
width = 1262;
},
{
layerId = "E81C9CF6-C278-46EE-B3DD-D93820CD8949";
paths = (
{
closed = 1;
nodes = (
"50 1152 LINE",
"50 0 LINE",
"290 0 LINE",
"290 1152 LINE"
);
},
{
closed = 1;
nodes = (
"404 55 LINE",
"482 15 OFFCURVE",
"572 -13 OFFCURVE",
"676 -13 CURVE SMOOTH",
"938 -13 OFFCURVE",
"1084 137 OFFCURVE",
"1084 354 CURVE SMOOTH",
"1084 539 OFFCURVE",
"991 674 OFFCURVE",
"820 712 CURVE",
"820 714 LINE",
"1088 1152 LINE",
"204 1152 LINE",
"204 952 LINE",
"732 952 LINE",
"470 512 LINE",
"611 512 LINE SMOOTH",
"753 512 OFFCURVE",
"866 471 OFFCURVE",
"866 350 CURVE SMOOTH",
"866 254 OFFCURVE",
"800 193 OFFCURVE",
"668 193 CURVE SMOOTH",
"572 193 OFFCURVE",
"491 224 OFFCURVE",
"404 277 CURVE"
);
}
);
width = 1130;
},
{
layerId = "07CFD988-7AB2-42E7-A00D-A2450F106178";
paths = (
{
closed = 1;
nodes = (
"200 1152 LINE",
"200 0 LINE",
"232 0 LINE",
"232 1152 LINE"
);
},
{
closed = 1;
nodes = (
"572 55 LINE",
"650 13 OFFCURVE",
"740 -13 OFFCURVE",
"844 -13 CURVE SMOOTH",
"1086 -13 OFFCURVE",
"1210 131 OFFCURVE",
"1210 312 CURVE SMOOTH",
"1210 553 OFFCURVE",
"994 611 OFFCURVE",
"781 612 CURVE",
"781 614 LINE",
"1166 1152 LINE",
"212 1152 LINE",
"212 1122 LINE",
"1107 1122 LINE",
"720 582 LINE",
"779 582 LINE SMOOTH",
"955 582 OFFCURVE",
"1178 539 OFFCURVE",
"1178 312 CURVE SMOOTH",
"1178 147 OFFCURVE",
"1064 14 OFFCURVE",
"844 14 CURVE SMOOTH",
"748 14 OFFCURVE",
"654 41 OFFCURVE",
"572 89 CURVE"
);
}
);
width = 1262;
},
{
layerId = "8F4C15E6-FE25-4FE1-BA9A-20FEE9FEA92B";
paths = (
{
closed = 1;
nodes = (
"144 1152 LINE",
"144 0 LINE",
"284 0 LINE",
"284 1152 LINE"
);
},
{
closed = 1;
nodes = (
"550 55 LINE",
"628 15 OFFCURVE",
"718 -13 OFFCURVE",
"822 -13 CURVE SMOOTH",
"1064 -13 OFFCURVE",
"1208 141 OFFCURVE",
"1208 348 CURVE SMOOTH",
"1208 543 OFFCURVE",
"1078 677 OFFCURVE",
"876 692 CURVE",
"876 694 LINE",
"1144 1152 LINE",
"150 1152 LINE",
"150 1032 LINE",
"913 1032 LINE",
"656 582 LINE",
"757 582 LINE SMOOTH",
"933 582 OFFCURVE",
"1066 521 OFFCURVE",
"1066 338 CURVE SMOOTH",
"1066 194 OFFCURVE",
"991 113 OFFCURVE",
"827 113 CURVE SMOOTH",
"731 113 OFFCURVE",
"637 144 OFFCURVE",
"550 197 CURVE"
);
}
);
width = 1260;
},
{
layerId = "59F31D40-6FCC-412D-85D2-AC9268FECF70";
paths = (
{
closed = 1;
nodes = (
"80 1152 LINE",
"80 0 LINE",
"320 0 LINE",
"320 1152 LINE"
);
},
{
closed = 1;
nodes = (
"434 55 LINE",
"512 15 OFFCURVE",
"602 -13 OFFCURVE",
"706 -13 CURVE SMOOTH",
"968 -13 OFFCURVE",
"1114 137 OFFCURVE",
"1114 354 CURVE SMOOTH",
"1114 539 OFFCURVE",
"1021 674 OFFCURVE",
"850 712 CURVE",
"850 714 LINE",
"1118 1152 LINE",
"234 1152 LINE",
"234 952 LINE",
"762 952 LINE",
"500 512 LINE",
"641 512 LINE SMOOTH",
"783 512 OFFCURVE",
"896 471 OFFCURVE",
"896 350 CURVE SMOOTH",
"896 254 OFFCURVE",
"830 193 OFFCURVE",
"698 193 CURVE SMOOTH",
"602 193 OFFCURVE",
"521 224 OFFCURVE",
"434 277 CURVE"
);
}
);
width = 1160;
},
{
layerId = "A3C9B703-72F4-4F0D-9958-30991330B555";
paths = (
{
closed = 1;
nodes = (
"894 -13 OFFCURVE",
"1086 141 OFFCURVE",
"1098 361 CURVE SMOOTH",
"1113 623 OFFCURVE",
"874 742 OFFCURVE",
"599 590 CURVE",
"672 801 OFFCURVE",
"825 990 OFFCURVE",
"1015 1112 CURVE",
"1015 1152 LINE",
"518 1152 LINE SMOOTH",
"94 1152 OFFCURVE",
"206 881 OFFCURVE",
"170 467 CURVE SMOOTH",
"129 0 LINE",
"159 0 LINE",
"200 465 LINE SMOOTH",
"235 867 OFFCURVE",
"115 1125 OFFCURVE",
"517 1125 CURVE SMOOTH",
"982 1125 LINE",
"791 1004 OFFCURVE",
"621 783 OFFCURVE",
"560 562 CURVE",
"600 562 LINE",
"878 704 OFFCURVE",
"1078 589 OFFCURVE",
"1066 361 CURVE SMOOTH",
"1056 165 OFFCURVE",
"882 14 OFFCURVE",
"638 14 CURVE SMOOTH",
"510 14 OFFCURVE",
"400 57 OFFCURVE",
"371 181 CURVE",
"351 171 LINE",
"367 37 OFFCURVE",
"490 -13 OFFCURVE",
"638 -13 CURVE SMOOTH"
);
}
);
width = 1200;
}
);
leftMetricsKey = H;
unicode = 1E9E;
},
{
glyphname = Schwa;
lastChange = "2019-03-05 21:24:17 +0000";
layers = (
{
layerId = "B520048A-B5B0-4F8C-90F0-FFAF6C62D524";
paths = (
{
closed = 1;
nodes = (
"148 933 LINE",
"213 973 OFFCURVE",
"353 1029 OFFCURVE",
"527 1029 CURVE SMOOTH",
"792 1029 OFFCURVE",
"976 895 OFFCURVE",
"976 575 CURVE SMOOTH",
"976 292 OFFCURVE",
"829 118 OFFCURVE",
"576 118 CURVE SMOOTH",
"371 118 OFFCURVE",
"250 234 OFFCURVE",
"250 435 CURVE SMOOTH",
"250 559 LINE",
"192 515 LINE",
"986 519 LINE",
"986 645 LINE",
"100 645 LINE",
"100 494 LINE SMOOTH",
"100 188 OFFCURVE",
"223 -18 OFFCURVE",
"553 -18 CURVE SMOOTH",
"906 -18 OFFCURVE",
"1124 220 OFFCURVE",
"1124 581 CURVE SMOOTH",
"1124 917 OFFCURVE",
"926 1172 OFFCURVE",
"528 1172 CURVE SMOOTH",
"367 1172 OFFCURVE",
"221 1131 OFFCURVE",
"143 1093 CURVE"
);
}
);
width = 1224;
},
{
layerId = "8F4C15E6-FE25-4FE1-BA9A-20FEE9FEA92B";
paths = (
{
closed = 1;
nodes = (
"949 1013 OFFCURVE",
"1011 897 OFFCURVE",
"982 681 CURVE SMOOTH",
"939 368 OFFCURVE",
"750 131 OFFCURVE",
"524 131 CURVE SMOOTH",
"423 131 OFFCURVE",
"385 181 OFFCURVE",
"389 240 CURVE SMOOTH",
"399 421 OFFCURVE",
"806 650 OFFCURVE",
"1010 709 CURVE",
"1010 885 LINE",
"735 803 OFFCURVE",
"238 538 OFFCURVE",
"219 241 CURVE SMOOTH",
"209 75 OFFCURVE",
"344 -20 OFFCURVE",
"523 -20 CURVE SMOOTH",
"839 -20 OFFCURVE",
"1077 275 OFFCURVE",
"1121 675 CURVE SMOOTH",
"1154 980 OFFCURVE",
"1065 1166 OFFCURVE",
"760 1166 CURVE SMOOTH",
"428 1166 OFFCURVE",
"98 937 OFFCURVE",
"47 772 CURVE",
"144 604 LINE",
"168 797 OFFCURVE",
"506 1013 OFFCURVE",
"758 1013 CURVE SMOOTH"
);
}
);
width = 1150;
},
{
layerId = "07CFD988-7AB2-42E7-A00D-A2450F106178";
width = 600;
},
{
layerId = "E81C9CF6-C278-46EE-B3DD-D93820CD8949";
width = 600;
},
{
layerId = "4CECAF9F-8433-4C1D-B398-9C9ECB761FA2";
paths = (
{
closed = 1;
nodes = (
"214 1038 LINE",
"303 1102 OFFCURVE",
"446 1149 OFFCURVE",
"602 1149 CURVE SMOOTH",
"958 1149 OFFCURVE",
"1154 912 OFFCURVE",
"1154 578 CURVE SMOOTH",
"1154 236 OFFCURVE",
"951 10 OFFCURVE",
"627 10 CURVE SMOOTH",
"330 10 OFFCURVE",
"192 212 OFFCURVE",
"192 489 CURVE SMOOTH",
"192 573 LINE",
"169 559 LINE",
"1154 559 LINE",
"1154 589 LINE",
"160 589 LINE",
"160 486 LINE SMOOTH",
"160 189 OFFCURVE",
"303 -18 OFFCURVE",
"623 -18 CURVE SMOOTH",
"964 -18 OFFCURVE",
"1186 221 OFFCURVE",
"1186 584 CURVE SMOOTH",
"1186 921 OFFCURVE",
"994 1177 OFFCURVE",
"608 1177 CURVE SMOOTH",
"437 1177 OFFCURVE",
"291 1126 OFFCURVE",
"214 1077 CURVE"
);
}
);
width = 1346;
},
{
layerId = "21D66A2E-3203-408D-B482-78BB09110413";
paths = (
{
closed = 1;
nodes = (
"108 858 LINE",
"203 892 OFFCURVE",
"339 940 OFFCURVE",
"505 940 CURVE SMOOTH",
"733 940 OFFCURVE",
"898 846 OFFCURVE",
"898 575 CURVE SMOOTH",
"898 335 OFFCURVE",
"766 198 OFFCURVE",
"539 198 CURVE SMOOTH",
"355 198 OFFCURVE",
"266 286 OFFCURVE",
"266 456 CURVE SMOOTH",
"266 561 LINE",
"152 465 LINE",
"946 465 LINE",
"946 685 LINE",
"50 685 LINE",
"50 494 LINE SMOOTH",
"50 188 OFFCURVE",
"191 -18 OFFCURVE",
"521 -18 CURVE SMOOTH",
"874 -18 OFFCURVE",
"1112 220 OFFCURVE",
"1112 581 CURVE SMOOTH",
"1112 917 OFFCURVE",
"894 1172 OFFCURVE",
"496 1172 CURVE SMOOTH",
"335 1172 OFFCURVE",
"181 1131 OFFCURVE",
"103 1093 CURVE"
);
}
);
width = 1162;
},
{
layerId = "59F31D40-6FCC-412D-85D2-AC9268FECF70";
paths = (
{
closed = 1;
nodes = (
"902 960 OFFCURVE",
"954 843 OFFCURVE",
"932 661 CURVE SMOOTH",
"896 365 OFFCURVE",
"691 168 OFFCURVE",
"528 168 CURVE SMOOTH",
"468 168 OFFCURVE",
"435 195 OFFCURVE",
"438 232 CURVE SMOOTH",
"448 365 OFFCURVE",
"763 610 OFFCURVE",
"1004 684 CURVE",
"969 879 LINE",
"661 787 OFFCURVE",
"228 529 OFFCURVE",
"225 237 CURVE SMOOTH",
"223 62 OFFCURVE",
"373 -20 OFFCURVE",
"546 -20 CURVE SMOOTH",
"875 -20 OFFCURVE",
"1085 277 OFFCURVE",
"1122 657 CURVE SMOOTH",
"1153 988 OFFCURVE",
"1038 1177 OFFCURVE",
"746 1177 CURVE SMOOTH",
"430 1177 OFFCURVE",
"35 945 OFFCURVE",
"-21 739 CURVE",
"156 527 LINE",
"174 801 OFFCURVE",
"532 960 OFFCURVE",
"732 960 CURVE SMOOTH"
);
}
);
width = 1162;
},
{
layerId = "A3C9B703-72F4-4F0D-9958-30991330B555";
paths = (
{
closed = 1;
nodes = (
"733 750 OFFCURVE",
"778 664 OFFCURVE",
"754 465 CURVE SMOOTH",
"720 180 OFFCURVE",
"591 7 OFFCURVE",
"397 7 CURVE SMOOTH",
"290 7 OFFCURVE",
"217 60 OFFCURVE",
"225 157 CURVE SMOOTH",
"241 347 OFFCURVE",
"549 518 OFFCURVE",
"761 568 CURVE",
"761 598 LINE",
"530 543 OFFCURVE",
"203 358 OFFCURVE",
"192 153 CURVE SMOOTH",
"186 43 OFFCURVE",
"274 -20 OFFCURVE",
"396 -20 CURVE SMOOTH",
"612 -20 OFFCURVE",
"753 178 OFFCURVE",
"785 465 CURVE SMOOTH",
"809 684 OFFCURVE",
"747 777 OFFCURVE",
"562 777 CURVE SMOOTH",
"329 777 OFFCURVE",
"73 623 OFFCURVE",
"39 512 CURVE",
"62 497 LINE",
"98 602 OFFCURVE",
"338 750 OFFCURVE",
"560 750 CURVE SMOOTH"
);
}
);
width = 900;
}
);
rightMetricsKey = O;
unicode = 018F;
},
